<svg width="82" height="108" viewBox="0 0 82 108" fill="none" xmlns="http://www.w3.org/2000/svg">
<circle cx="40" cy="40" r="40" transform="matrix(0.938191 0.346117 0 1 6.47266 -7.5)" fill="#F7DF27"/>
<circle cx="40" cy="40" r="39" transform="matrix(0.938191 0.346117 0 1 0.222656 0)" fill="#FF6E00" stroke="white" stroke-width="2"/>
<path d="M38.5824 24.2369V24.2653C38.6091 24.4171 38.6091 24.5875 38.6091 24.7579V45.2339C38.5824 45.3377 38.5025 45.3366 38.4226 45.3639C37.863 45.4415 37.3302 45.5005 36.7706 45.5496C35.998 45.6338 35.1986 45.7365 34.426 45.8206L31.6283 46.1517C30.8556 46.2358 30.083 46.32 29.3369 46.4139C28.431 46.5341 27.4985 46.6161 26.5926 46.7363C25.8199 46.8204 25.0472 46.9329 24.2479 47.0072C23.6084 47.0837 22.969 47.1318 22.3562 47.2181C22.3029 47.2269 22.2496 47.2356 22.1963 47.2159C22.1697 47.2061 22.1697 47.2061 22.143 47.1679L22.8624 46.1553C24.2479 44.2241 25.6067 42.3114 26.9922 40.3802C28.4577 38.3081 29.9497 36.2458 31.4152 34.1737C32.774 32.261 34.1595 30.3582 35.5184 28.4456C36.5042 27.0485 37.5167 25.6613 38.5025 24.2642C38.5291 24.2172 38.5558 24.1986 38.5558 24.1418L38.5824 24.1517C38.5558 24.1702 38.5824 24.2085 38.5824 24.2369Z" fill="white"/>
<path d="M54.9394 59.2671L54.966 59.3054L51.0494 60.3312L38.7398 63.543C38.6865 63.5517 38.6332 63.5605 38.6066 63.579C38.5266 63.5495 38.5266 63.4643 38.5266 63.4359V63.1804V45.6295C38.5266 45.5443 38.5266 45.4307 38.5533 45.3553C38.5799 45.2516 38.6598 45.3095 38.7398 45.3673C39.0862 45.6655 39.4592 45.9735 39.8055 46.2717C40.8447 47.1663 41.8838 48.0608 42.9229 48.9269C43.8288 49.6871 44.7081 50.4659 45.614 51.2261C46.5199 51.9863 47.4258 52.7749 48.3317 53.5351C49.1043 54.1893 49.9037 54.8818 50.6763 55.5361C51.449 56.1903 52.2483 56.8828 53.021 57.537C53.6338 58.0471 54.2467 58.5856 54.8595 59.0957C54.8595 59.1809 54.8861 59.2191 54.9394 59.2671Z" fill="white"/>
<path d="M38.5801 81.2053C38.5801 81.2337 38.5535 81.2523 38.5535 81.2807L38.5269 81.2708C38.5269 81.214 38.4736 81.166 38.4469 81.0994C36.795 78.0192 35.1431 74.9106 33.4911 71.8304C31.8125 68.6836 30.1073 65.4986 28.4287 62.3517C26.8034 59.3098 25.1515 56.2296 23.5262 53.1876C23.0999 52.3772 22.6736 51.5951 22.2473 50.7847C22.2207 50.718 22.194 50.6798 22.1407 50.575C22.2207 50.6044 22.2739 50.6809 22.3006 50.7191C24.6186 53.0227 26.91 55.3164 29.2281 57.6199C31.8925 60.2784 34.5302 62.9271 37.1947 65.5857L38.5535 66.9389C38.6068 67.0154 38.6068 67.0722 38.6068 67.129V80.8175C38.6068 80.9595 38.6068 81.1015 38.5801 81.2053Z" fill="white"/>
<path d="M22.114 47.214V47.1856C22.9666 47.1026 23.7925 46.9813 24.6451 46.8983C25.7376 46.7617 26.83 46.6535 27.9224 46.5169C28.7483 46.424 29.6009 46.3126 30.4269 46.2197C31.6525 46.0755 32.8515 45.9498 34.0772 45.8056C34.9031 45.7127 35.7291 45.6198 36.5817 45.5084C37.1679 45.4407 37.7807 45.3827 38.3669 45.315C38.4201 45.3063 38.5001 45.3073 38.5267 45.2604C38.5534 45.2702 38.5534 45.2986 38.5267 45.3172V63.3508C38.5267 63.436 38.5001 63.5114 38.5534 63.5878C38.5001 63.6534 38.4468 63.5485 38.4201 63.5103C38.1804 63.2798 37.9406 63.0494 37.7008 62.7905C32.5584 57.6559 27.3895 52.483 22.2472 47.3484C22.2205 47.3101 22.1672 47.2621 22.114 47.214Z" fill="white"/>
<path d="M54.8863 62.6554L54.9129 62.6653C54.9129 62.7221 54.8597 62.7592 54.833 62.8062C49.9305 68.353 45.028 73.9282 40.1255 79.4751C39.6192 80.0551 39.0863 80.6253 38.5801 81.2053C38.5535 81.1671 38.5535 81.1387 38.5535 81.1103V80.9399V67.1661V66.9105C39.6725 66.6134 40.7649 66.3348 41.884 66.0377C46.2003 64.9037 50.5167 63.7982 54.8064 62.6544C54.833 62.6926 54.8597 62.674 54.8863 62.6554Z" fill="white"/>
<path d="M38.5535 45.3269V45.2701V45.0997V24.4817C38.5535 24.3965 38.5268 24.3299 38.5801 24.2644C43.9889 35.8304 49.3976 47.368 54.7797 58.9242C54.833 59.029 54.913 59.1721 54.9396 59.2955C54.5666 59.0159 54.2202 58.6893 53.8738 58.3912C53.4475 58.0351 52.9946 57.6408 52.5683 57.2847C52.3018 57.0444 52.0088 56.8227 51.7423 56.5824C51.2894 56.1881 50.8364 55.8222 50.3835 55.4279C50.117 55.216 49.8506 54.9757 49.5841 54.7354L47.8256 53.2347C47.5325 52.9846 47.2395 52.7345 46.9197 52.4745L45.6408 51.4063C45.3744 51.1944 45.1079 50.9541 44.8415 50.7138L43.083 49.2131C42.7899 48.963 42.4968 48.7128 42.1771 48.4529L40.8982 47.3847C40.6051 47.1346 40.3386 46.8943 40.0455 46.6442C39.5393 46.2018 39.0331 45.7594 38.5002 45.3357C38.5801 45.3367 38.5535 45.3269 38.5535 45.3269Z" fill="white"/>
</svg>
