<svg width="82" height="108" viewBox="0 0 82 108" fill="none" xmlns="http://www.w3.org/2000/svg">
<circle cx="40" cy="40" r="40" transform="matrix(0.938191 0.346117 0 1 6.58398 -7.5)" fill="#F7DF27"/>
<circle cx="40" cy="40" r="39" transform="matrix(0.938191 0.346117 0 1 0.333984 0)" fill="#FF6E00" stroke="white" stroke-width="2"/>
<path d="M53.3395 36.2215L59.6674 38.556L46.4985 50.4801C41.7295 54.7951 33.9975 51.9426 29.2251 44.1076L16.0511 22.465L22.3841 24.8014L32.389 41.241C33.8467 43.628 35.8112 45.3893 37.858 46.1444C39.9047 46.8995 41.8692 46.5876 43.3269 45.2762L53.3395 36.2215Z" fill="white"/>
<path d="M22.3027 71.4381L15.9705 69.102L29.2249 57.1059C33.9939 52.7909 41.726 55.6434 46.4984 63.4785L59.7528 85.2542L53.4249 82.9197L43.3344 66.345C41.8767 63.9581 39.9122 62.1967 37.8655 61.4416C35.8188 60.6866 33.8543 60.9984 32.3966 62.3098L22.3027 71.4381Z" fill="white"/>
</svg>
