<svg width="32" height="25" viewBox="0 0 32 25" fill="none" xmlns="http://www.w3.org/2000/svg">
<path d="M16.0002 1C20.3471 1 24.2567 2.00879 27.0611 3.61273C29.8834 5.22689 31.4788 7.37063 31.4788 9.61309C31.4788 11.8555 29.8834 13.9993 27.0611 15.6135C24.2567 17.2174 20.3471 18.2262 16.0002 18.2262C11.6534 18.2262 7.74378 17.2174 4.93938 15.6135C2.11706 13.9993 0.521729 11.8555 0.521729 9.61309C0.521729 7.37063 2.11706 5.22689 4.93938 3.61273C7.74378 2.00879 11.6534 1 16.0002 1Z" fill="url(#paint0_linear_3_344)" stroke="url(#paint1_linear_3_344)"/>
<path fill-rule="evenodd" clip-rule="evenodd" d="M0.00313573 12.6636H0V15.6541C1.73916e-06 16.8816 0.41385 18.0968 1.21793 19.2308C2.022 20.3646 3.20054 21.3948 4.68629 22.2627C6.17201 23.1305 7.93583 23.8189 9.87705 24.2887C11.8182 24.7584 13.8988 25 16 25C18.1012 25 20.1817 24.7584 22.123 24.2887C24.064 23.8189 25.8279 23.1305 27.3137 22.2627C28.7994 21.3948 29.9779 20.3646 30.7821 19.2308C31.5861 18.0968 32 16.8816 32 15.6541V12.6636H31.9969C31.8264 17.7387 24.7296 21.42 16 21.42C7.27034 21.42 0.173594 17.7387 0.00313573 12.6636Z" fill="#DAF727"/>
<g opacity="0.8" filter="url(#filter0_f_3_344)">
<path d="M14.8864 14.1449L15.3088 15.0552C15.3555 15.1558 15.4795 15.2208 15.5857 15.2005L16.3553 15.0534C16.4062 15.0437 16.4462 15.0152 16.4666 14.9741C16.4867 14.933 16.4855 14.8827 16.4631 14.8345L16.0406 13.9242L16.4255 13.8506L16.8478 14.7609C16.8946 14.8614 17.0186 14.9265 17.1247 14.9062L17.8942 14.7591C17.9452 14.7494 17.9854 14.7209 18.0055 14.6798C18.0257 14.6387 18.0245 14.5884 18.0021 14.5402L17.5798 13.6299L17.6443 13.6175C19.1772 13.3243 19.924 12.3624 19.3202 11.0609C18.8125 9.96694 17.7603 9.51715 16.8135 9.60544L16.7838 9.54134C17.4483 9.22235 17.7497 8.58428 17.3387 7.69864C16.8212 6.58284 15.6219 6.07472 14.2714 6.33297L14.2006 6.3465L13.7782 5.43609C13.7558 5.38779 13.7141 5.34535 13.6621 5.31811C13.6102 5.29086 13.5524 5.28104 13.5014 5.29078L12.7319 5.43794C12.6808 5.4477 12.6408 5.47623 12.6206 5.51729C12.6003 5.55833 12.6015 5.60852 12.624 5.6568L13.0463 6.56722L12.6054 6.65154L12.183 5.74112C12.1606 5.69283 12.1189 5.6504 12.0669 5.62316C12.015 5.5959 11.9572 5.58609 11.9062 5.59583L11.1928 5.73224C11.1418 5.742 11.1018 5.77055 11.0815 5.81159C11.0613 5.85263 11.0625 5.90281 11.0849 5.95112L11.5073 6.86152L9.97353 7.16356C9.92251 7.1733 9.88247 7.20185 9.86224 7.24289C9.842 7.28394 9.84323 7.33413 9.86563 7.38242L10.1998 8.10274C10.2461 8.20251 10.3689 8.26863 10.4751 8.24832L11.0544 8.13359C11.2073 8.1054 11.38 8.13549 11.5349 8.21729C11.6898 8.2991 11.8142 8.42596 11.8812 8.5702L13.7414 12.5797C13.8086 12.7246 13.8123 12.8752 13.7515 12.9983C13.6908 13.1214 13.5707 13.2069 13.4177 13.2362L12.8458 13.3544C12.7948 13.3641 12.7547 13.3927 12.7345 13.4338C12.7143 13.4747 12.7155 13.5249 12.7379 13.5732L13.0758 14.3015C13.1224 14.402 13.2465 14.4671 13.3527 14.4469L14.8864 14.1449ZM13.1079 7.73457L14.4307 7.48161C15.1279 7.34831 15.7055 7.63272 15.9806 8.22559C16.2749 8.85996 15.9984 9.30218 14.9964 9.49377L14.0115 9.68213L13.1079 7.73457ZM14.4768 10.685L15.8927 10.4143C16.7676 10.247 17.44 10.5783 17.7589 11.2659C18.081 11.9599 17.7671 12.4141 16.5883 12.6395L15.4817 12.8511L14.4771 10.6858L14.4768 10.685Z" fill="#5235E8" fill-opacity="0.64"/>
</g>
<path d="M11.3822 7.25263L11.3828 7.25252L11.9615 7.1379C12.0915 7.11407 12.2384 7.13973 12.3702 7.20931C12.5021 7.27899 12.6082 7.38707 12.6652 7.50993L14.5254 11.5194C14.5826 11.6428 14.5858 11.7711 14.534 11.876C14.4823 11.9809 14.38 12.0538 14.2496 12.0787L14.2484 12.079L13.6778 12.1968C13.6775 12.1969 13.6773 12.1969 13.6771 12.197C13.6037 12.2112 13.5461 12.2523 13.517 12.3114C13.4878 12.3707 13.4895 12.4432 13.5219 12.513L13.8598 13.2412C13.9272 13.3866 14.1063 13.4804 14.2597 13.4512L14.2602 13.451L15.7082 13.1659L16.0929 13.9951C16.1602 14.1402 16.3394 14.2343 16.4927 14.2048L17.2623 14.0577C17.3359 14.0437 17.3938 14.0024 17.423 13.943C17.4522 13.8838 17.4505 13.8113 17.4182 13.7415L17.0333 12.9121L17.247 12.8712L17.6319 13.7006C17.6992 13.8459 17.8783 13.94 18.0317 13.9105L18.8013 13.7634C18.875 13.7492 18.9328 13.7081 18.962 13.6487C18.9912 13.5895 18.9895 13.517 18.9571 13.4472L18.5723 12.6177C19.3422 12.4668 19.9234 12.1475 20.2356 11.6938C20.5523 11.2341 20.5881 10.6424 20.2751 9.96793C20.0125 9.40172 19.6053 8.99626 19.1359 8.7449C18.7443 8.5353 18.3147 8.43569 17.8975 8.43546C18.1477 8.27524 18.3323 8.06032 18.4241 7.79454C18.5375 7.46572 18.5069 7.06505 18.2938 6.60566C18.0248 6.02584 17.575 5.5982 17.0129 5.35135C16.4573 5.10729 15.8023 5.04445 15.1181 5.17264L14.7332 4.34311C14.7009 4.27337 14.6406 4.21207 14.5656 4.17272C14.4906 4.13335 14.407 4.11915 14.3333 4.13324L13.5638 4.2804C13.4901 4.29449 13.4323 4.33572 13.4031 4.39501C13.3738 4.45429 13.3756 4.52679 13.4079 4.59655L13.7928 5.42603L13.5229 5.47765L13.138 4.64816C13.1057 4.57841 13.0454 4.51712 12.9704 4.47775C12.8953 4.4384 12.8118 4.4242 12.7381 4.43829L12.0248 4.5747C11.9511 4.5888 11.8933 4.63002 11.864 4.68931C11.8348 4.74859 11.8366 4.8211 11.8689 4.89085L12.254 5.72078L10.8055 6.00601L10.843 6.08694L10.805 6.0061L10.8052 6.00605C10.7317 6.02019 10.6739 6.06139 10.6447 6.12062C10.6155 6.17991 10.6173 6.2524 10.6496 6.32215L10.9838 7.04247C11.0504 7.18588 11.2277 7.28219 11.3822 7.25263ZM14.9289 8.50824L14.1004 6.72253L15.3377 6.48592C15.6712 6.42217 15.9652 6.46025 16.2032 6.57532C16.4401 6.68979 16.6355 6.88717 16.7646 7.16532C16.9027 7.46304 16.9028 7.70408 16.7627 7.8944C16.6194 8.08882 16.3211 8.24202 15.8284 8.33623L14.9289 8.50824ZM15.4693 9.673L16.7997 9.41859C17.2235 9.33755 17.5862 9.37958 17.8752 9.5143C18.1623 9.64811 18.3921 9.88029 18.5429 10.2056C18.6947 10.5328 18.6923 10.7903 18.5262 10.9949C18.3556 11.205 18.0036 11.3704 17.4202 11.4819L16.3992 11.6772L15.4693 9.673Z" fill="white" stroke="#8D79F1" stroke-width="0.25"/>
<defs>
<filter id="filter0_f_3_344" x="5.8479" y="1.28711" width="17.6815" height="17.917" filterUnits="userSpaceOnUse" color-interpolation-filters="sRGB">
<feFlood flood-opacity="0" result="BackgroundImageFix"/>
<feBlend mode="normal" in="SourceGraphic" in2="BackgroundImageFix" result="shape"/>
<feGaussianBlur stdDeviation="2" result="effect1_foregroundBlur_3_344"/>
</filter>
<linearGradient id="paint0_linear_3_344" x1="32.4659" y1="1.65136" x2="-0.359438" y2="13.2643" gradientUnits="userSpaceOnUse">
<stop stop-color="#5235E8"/>
<stop offset="1" stop-color="#816CEF"/>
</linearGradient>
<linearGradient id="paint1_linear_3_344" x1="7.15646" y1="0.461682" x2="27.5474" y2="15.0893" gradientUnits="userSpaceOnUse">
<stop stop-color="#B0A3F5"/>
<stop offset="1" stop-color="#917FF1"/>
</linearGradient>
</defs>
</svg>
