<svg width="83" height="108" viewBox="0 0 83 108" fill="none" xmlns="http://www.w3.org/2000/svg">
<path d="M81.2937 69.4512C76.2811 89.0307 55.9164 94.5589 35.8074 81.7967C15.7069 69.0389 3.47042 42.8194 8.48528 23.2424C13.4957 3.65977 33.8604 -1.86941 53.9631 10.8892C74.0706 23.6495 86.3064 49.8711 81.2932 69.4514L81.2935 69.4511L81.2937 69.4512Z" fill="#F7DF27"/>
<path d="M75.0437 76.9544C70.0311 96.5339 49.6664 102.062 29.5574 89.2999C9.45688 76.5421 -2.77958 50.3226 2.23528 30.7456C7.24573 11.1629 27.6104 5.63376 47.7131 18.3923C67.8206 31.1527 80.0564 57.3743 75.0432 76.9546L75.0435 76.9543L75.0437 76.9544Z" fill="#FF6E00" stroke="white" stroke-width="2"/>
<path fill-rule="evenodd" clip-rule="evenodd" d="M55.1913 54.2521C55.9382 49.2045 52.136 44.9404 46.9368 41.1135L48.6235 34.5251L44.5054 31.9122L42.8636 38.3272C41.7809 37.64 40.6692 36.9587 39.5642 36.2822L41.218 29.8252L37.1025 27.2132L35.4149 33.7989C34.5191 33.251 33.6391 32.7115 32.7854 32.1702L32.7902 32.1492L27.1113 28.5427L26.0159 32.8266C26.0159 32.8266 29.0711 34.7002 29.0067 34.7224C30.6743 35.7813 30.9759 37.0691 30.9258 37.9833L29.0045 45.4891C29.1194 45.5625 29.2683 45.6625 29.4327 45.7935L29.3133 45.7177L29.3131 45.7175C29.2115 45.653 29.1058 45.5858 28.9974 45.5181L26.3044 56.0321C26.1006 56.497 25.5834 57.1166 24.4175 56.3787C24.4587 56.4577 21.4244 54.4784 21.4244 54.4784L19.3799 58.7485L24.7388 62.1494C25.3257 62.5228 25.9056 62.8979 26.4797 63.2692L26.48 63.2694C26.8811 63.5288 27.2792 63.7863 27.6749 64.0401L25.9708 70.7048L30.084 73.3159L31.7716 66.7226C32.8953 67.4623 33.9858 68.1645 35.0534 68.8411L33.3715 75.4025L37.4897 78.0155L39.1936 71.3645C46.2158 75.3716 51.4958 76.7484 53.7183 70.7984C55.5092 66.0084 53.6292 62.171 49.9348 58.7579C52.6256 59.0891 54.6523 57.9505 55.1927 54.2532L55.1914 54.2517L55.1913 54.2521ZM45.7825 64.8437C44.6149 69.4137 37.2711 64.637 33.9111 62.4515C33.6089 62.2549 33.3389 62.0793 33.1085 61.9333L35.3698 53.1052C35.6506 53.2835 35.9937 53.4921 36.3824 53.7285C39.8579 55.842 46.9788 60.1724 45.7827 64.8438L45.7825 64.8437ZM37.0795 49.5012C39.8808 51.3315 45.9918 55.3243 47.0561 51.1719L47.0564 51.172C48.1432 46.9244 42.2043 43.332 39.3038 41.5775C38.9775 41.3801 38.6897 41.206 38.4546 41.0568L36.4044 49.0637C36.5979 49.1865 36.8251 49.3349 37.0795 49.5012Z" fill="white"/>
</svg>
