<svg width="800" height="562" viewBox="0 0 800 562" fill="none" xmlns="http://www.w3.org/2000/svg">
<g filter="url(#filter0_d_1_1665)">
<rect x="60" y="60" width="640" height="402" rx="24" fill="white"/>
<rect x="61" y="61" width="638" height="400" rx="23" stroke="#EFEDFD" stroke-width="2"/>
</g>
<path d="M108.761 107.364H110.523V115.017C110.523 115.831 110.331 116.553 109.949 117.182C109.566 117.807 109.028 118.299 108.335 118.659C107.642 119.015 106.83 119.193 105.898 119.193C104.97 119.193 104.159 119.015 103.466 118.659C102.773 118.299 102.235 117.807 101.852 117.182C101.47 116.553 101.278 115.831 101.278 115.017V107.364H103.034V114.875C103.034 115.402 103.15 115.869 103.381 116.278C103.616 116.688 103.947 117.009 104.375 117.244C104.803 117.475 105.311 117.591 105.898 117.591C106.489 117.591 106.998 117.475 107.426 117.244C107.858 117.009 108.188 116.688 108.415 116.278C108.646 115.869 108.761 115.402 108.761 114.875V107.364ZM119.502 110.42C119.441 109.883 119.191 109.466 118.752 109.17C118.312 108.871 117.759 108.722 117.093 108.722C116.616 108.722 116.203 108.797 115.854 108.949C115.506 109.097 115.235 109.301 115.042 109.562C114.852 109.82 114.758 110.114 114.758 110.443C114.758 110.72 114.822 110.958 114.951 111.159C115.083 111.36 115.256 111.528 115.468 111.665C115.684 111.797 115.915 111.909 116.161 112C116.407 112.087 116.644 112.159 116.871 112.216L118.008 112.511C118.379 112.602 118.759 112.725 119.15 112.881C119.54 113.036 119.901 113.241 120.235 113.494C120.568 113.748 120.837 114.062 121.042 114.438C121.25 114.812 121.354 115.261 121.354 115.784C121.354 116.443 121.184 117.028 120.843 117.54C120.506 118.051 120.015 118.455 119.371 118.75C118.731 119.045 117.956 119.193 117.047 119.193C116.176 119.193 115.422 119.055 114.786 118.778C114.15 118.502 113.651 118.11 113.292 117.602C112.932 117.091 112.733 116.485 112.695 115.784H114.456C114.491 116.205 114.627 116.555 114.866 116.835C115.108 117.112 115.417 117.318 115.792 117.455C116.17 117.587 116.585 117.653 117.036 117.653C117.532 117.653 117.973 117.576 118.36 117.42C118.75 117.261 119.057 117.042 119.28 116.761C119.504 116.477 119.616 116.146 119.616 115.767C119.616 115.422 119.517 115.14 119.32 114.92C119.127 114.701 118.864 114.519 118.53 114.375C118.201 114.231 117.828 114.104 117.411 113.994L116.036 113.619C115.104 113.366 114.366 112.992 113.82 112.5C113.278 112.008 113.008 111.356 113.008 110.545C113.008 109.875 113.189 109.29 113.553 108.79C113.917 108.29 114.409 107.902 115.03 107.625C115.651 107.345 116.352 107.205 117.133 107.205C117.92 107.205 118.616 107.343 119.218 107.619C119.824 107.896 120.301 108.277 120.65 108.761C120.998 109.242 121.18 109.795 121.195 110.42H119.502ZM127.299 119H123.532V107.364H127.419C128.559 107.364 129.538 107.597 130.356 108.062C131.174 108.525 131.801 109.189 132.237 110.057C132.676 110.92 132.896 111.956 132.896 113.165C132.896 114.377 132.674 115.419 132.231 116.29C131.792 117.161 131.155 117.831 130.322 118.301C129.489 118.767 128.481 119 127.299 119ZM125.288 117.466H127.203C128.089 117.466 128.826 117.299 129.413 116.966C130 116.629 130.439 116.142 130.731 115.506C131.023 114.866 131.169 114.085 131.169 113.165C131.169 112.252 131.023 111.477 130.731 110.841C130.443 110.205 130.013 109.722 129.441 109.392C128.869 109.062 128.159 108.898 127.311 108.898H125.288V117.466ZM138.814 106.818L135.064 120.75H133.547L137.297 106.818H138.814ZM140.473 119V107.364H144.735C145.561 107.364 146.244 107.5 146.786 107.773C147.328 108.042 147.733 108.407 148.002 108.869C148.271 109.328 148.405 109.845 148.405 110.42C148.405 110.905 148.316 111.314 148.138 111.648C147.96 111.977 147.722 112.242 147.422 112.443C147.127 112.64 146.801 112.784 146.445 112.875V112.989C146.831 113.008 147.208 113.133 147.576 113.364C147.947 113.591 148.254 113.915 148.496 114.335C148.739 114.756 148.86 115.267 148.86 115.869C148.86 116.464 148.72 116.998 148.439 117.472C148.163 117.941 147.735 118.314 147.155 118.591C146.576 118.864 145.835 119 144.934 119H140.473ZM142.229 117.494H144.763C145.604 117.494 146.206 117.331 146.57 117.006C146.934 116.68 147.115 116.273 147.115 115.784C147.115 115.417 147.023 115.08 146.837 114.773C146.651 114.466 146.386 114.222 146.042 114.04C145.701 113.858 145.295 113.767 144.826 113.767H142.229V117.494ZM142.229 112.398H144.581C144.975 112.398 145.329 112.322 145.644 112.17C145.962 112.019 146.214 111.807 146.4 111.534C146.589 111.258 146.684 110.932 146.684 110.557C146.684 110.076 146.515 109.672 146.178 109.347C145.841 109.021 145.324 108.858 144.627 108.858H142.229V112.398ZM150.448 108.875V107.364H159.454V108.875H155.823V119H154.073V108.875H150.448ZM170.689 111.148H168.916C168.848 110.769 168.721 110.436 168.535 110.148C168.35 109.86 168.123 109.616 167.854 109.415C167.585 109.214 167.284 109.062 166.95 108.96C166.621 108.858 166.27 108.807 165.899 108.807C165.229 108.807 164.628 108.975 164.098 109.312C163.571 109.65 163.155 110.144 162.848 110.795C162.545 111.447 162.393 112.242 162.393 113.182C162.393 114.129 162.545 114.928 162.848 115.58C163.155 116.231 163.573 116.723 164.104 117.057C164.634 117.39 165.23 117.557 165.893 117.557C166.261 117.557 166.609 117.508 166.939 117.409C167.272 117.307 167.573 117.157 167.842 116.96C168.111 116.763 168.338 116.523 168.524 116.239C168.713 115.951 168.844 115.621 168.916 115.25L170.689 115.256C170.594 115.828 170.41 116.354 170.138 116.835C169.869 117.312 169.522 117.725 169.098 118.074C168.677 118.419 168.196 118.686 167.655 118.875C167.113 119.064 166.522 119.159 165.882 119.159C164.874 119.159 163.977 118.92 163.189 118.443C162.401 117.962 161.78 117.275 161.325 116.381C160.874 115.487 160.649 114.42 160.649 113.182C160.649 111.939 160.876 110.873 161.331 109.983C161.785 109.089 162.407 108.403 163.194 107.926C163.982 107.445 164.878 107.205 165.882 107.205C166.499 107.205 167.075 107.294 167.609 107.472C168.147 107.646 168.63 107.903 169.058 108.244C169.486 108.581 169.84 108.994 170.121 109.483C170.401 109.968 170.59 110.523 170.689 111.148Z" fill="#131316"/>
<circle opacity="0.1" cx="196" cy="113" r="8" transform="rotate(180 196 113)" fill="#131316"/>
<path d="M192.612 111.271L195.819 114.99C195.911 115.097 196.088 115.097 196.181 114.99L199.388 111.271C199.507 111.133 199.399 110.93 199.207 110.93L192.793 110.93C192.601 110.93 192.493 111.133 192.612 111.271Z" fill="#131316"/>
<rect x="100" y="166" width="1" height="216" fill="#F4F4F6"/>
<rect x="201" y="166" width="1" height="216" fill="#F4F4F6"/>
<rect x="302" y="166" width="1" height="216" fill="#F4F4F6"/>
<rect x="403" y="166" width="1" height="216" fill="#F4F4F6"/>
<rect x="504" y="166" width="1" height="216" fill="#F4F4F6"/>
<rect x="605" y="166" width="1" height="216" fill="#F4F4F6"/>
<rect x="606" y="166" width="1.00001" height="505" transform="rotate(90 606 166)" fill="#F4F4F6"/>
<rect x="606" y="213" width="1.00001" height="505" transform="rotate(90 606 213)" fill="#F4F4F6"/>
<rect x="606" y="260" width="1.00001" height="505" transform="rotate(90 606 260)" fill="#F4F4F6"/>
<rect x="606" y="307" width="1.00001" height="505" transform="rotate(90 606 307)" fill="#F4F4F6"/>
<rect x="606" y="354" width="1.00001" height="505" transform="rotate(90 606 354)" fill="#F4F4F6"/>
<rect x="606" y="401" width="1.00001" height="505" transform="rotate(90 606 401)" fill="#F4F4F6"/>
<rect x="628" y="166" width="40" height="6" rx="2" fill="#E3E3E8"/>
<rect x="628" y="208" width="40" height="6" rx="2" fill="#E3E3E8"/>
<rect x="628" y="250" width="40" height="6" rx="2" fill="#E3E3E8"/>
<rect x="628" y="292" width="40" height="6" rx="2" fill="#E3E3E8"/>
<rect x="628" y="334" width="40" height="6" rx="2" fill="#E3E3E8"/>
<rect x="628" y="376" width="40" height="6" rx="2" fill="#E3E3E8"/>
<path d="M104.398 416.273H105.455V422.511C105.455 423.068 105.352 423.541 105.148 423.93C104.943 424.32 104.655 424.615 104.283 424.817C103.911 425.018 103.472 425.119 102.966 425.119C102.489 425.119 102.064 425.033 101.692 424.859C101.32 424.683 101.027 424.433 100.814 424.109C100.601 423.786 100.494 423.401 100.494 422.955H101.534C101.534 423.202 101.595 423.418 101.717 423.602C101.842 423.784 102.013 423.926 102.229 424.028C102.445 424.131 102.69 424.182 102.966 424.182C103.27 424.182 103.528 424.118 103.741 423.99C103.955 423.862 104.116 423.675 104.227 423.428C104.341 423.178 104.398 422.872 104.398 422.511V416.273ZM109.422 425.153C109.007 425.153 108.631 425.075 108.293 424.919C107.955 424.76 107.686 424.531 107.488 424.233C107.289 423.932 107.189 423.568 107.189 423.142C107.189 422.767 107.263 422.463 107.411 422.23C107.559 421.994 107.756 421.81 108.003 421.676C108.25 421.543 108.523 421.443 108.821 421.378C109.123 421.31 109.425 421.256 109.729 421.216C110.127 421.165 110.449 421.126 110.696 421.101C110.946 421.072 111.128 421.026 111.242 420.96C111.358 420.895 111.417 420.781 111.417 420.619V420.585C111.417 420.165 111.301 419.838 111.071 419.605C110.844 419.372 110.499 419.256 110.036 419.256C109.556 419.256 109.179 419.361 108.907 419.571C108.634 419.781 108.442 420.006 108.331 420.244L107.377 419.903C107.547 419.506 107.774 419.196 108.059 418.974C108.346 418.75 108.658 418.594 108.996 418.506C109.337 418.415 109.672 418.369 110.002 418.369C110.212 418.369 110.453 418.395 110.726 418.446C111.002 418.494 111.267 418.595 111.523 418.749C111.782 418.902 111.996 419.134 112.167 419.443C112.337 419.753 112.422 420.168 112.422 420.688V425H111.417V424.114H111.365C111.297 424.256 111.184 424.408 111.024 424.57C110.865 424.732 110.654 424.869 110.39 424.983C110.125 425.097 109.803 425.153 109.422 425.153ZM109.576 424.25C109.973 424.25 110.309 424.172 110.581 424.016C110.857 423.859 111.064 423.658 111.203 423.411C111.346 423.163 111.417 422.903 111.417 422.631V421.71C111.374 421.761 111.28 421.808 111.135 421.851C110.993 421.891 110.828 421.926 110.641 421.957C110.456 421.986 110.276 422.011 110.1 422.034C109.926 422.054 109.786 422.071 109.678 422.085C109.417 422.119 109.172 422.175 108.945 422.251C108.721 422.325 108.539 422.437 108.399 422.588C108.263 422.736 108.195 422.937 108.195 423.193C108.195 423.543 108.324 423.807 108.583 423.986C108.844 424.162 109.175 424.25 109.576 424.25ZM115.323 421.062V425H114.318V418.455H115.289V419.477H115.375C115.528 419.145 115.761 418.878 116.073 418.676C116.386 418.472 116.789 418.369 117.284 418.369C117.727 418.369 118.115 418.46 118.447 418.642C118.779 418.821 119.038 419.094 119.223 419.46C119.407 419.824 119.5 420.284 119.5 420.841V425H118.494V420.909C118.494 420.395 118.36 419.994 118.093 419.707C117.826 419.418 117.46 419.273 116.994 419.273C116.673 419.273 116.386 419.342 116.133 419.482C115.883 419.621 115.686 419.824 115.541 420.091C115.396 420.358 115.323 420.682 115.323 421.062Z" fill="#9C9CAB"/>
<path d="M146.057 425V416.273H151.29V417.21H147.114V420.159H150.898V421.097H147.114V425H146.057ZM155.287 425.136C154.657 425.136 154.113 424.997 153.655 424.719C153.201 424.438 152.85 424.045 152.603 423.543C152.358 423.037 152.236 422.449 152.236 421.778C152.236 421.108 152.358 420.517 152.603 420.006C152.85 419.491 153.194 419.091 153.634 418.804C154.077 418.514 154.594 418.369 155.185 418.369C155.526 418.369 155.863 418.426 156.195 418.54C156.527 418.653 156.83 418.838 157.103 419.094C157.375 419.347 157.593 419.682 157.755 420.099C157.917 420.517 157.997 421.031 157.997 421.642V422.068H152.952V421.199H156.975C156.975 420.83 156.901 420.5 156.753 420.21C156.608 419.92 156.401 419.692 156.131 419.524C155.864 419.357 155.549 419.273 155.185 419.273C154.784 419.273 154.438 419.372 154.145 419.571C153.855 419.767 153.632 420.023 153.476 420.338C153.32 420.653 153.242 420.991 153.242 421.352V421.932C153.242 422.426 153.327 422.845 153.497 423.189C153.671 423.53 153.911 423.79 154.218 423.969C154.524 424.145 154.881 424.233 155.287 424.233C155.551 424.233 155.79 424.196 156.003 424.122C156.219 424.045 156.405 423.932 156.561 423.781C156.718 423.628 156.838 423.437 156.924 423.21L157.895 423.483C157.793 423.812 157.621 424.102 157.38 424.352C157.138 424.599 156.84 424.793 156.485 424.932C156.13 425.068 155.73 425.136 155.287 425.136ZM159.724 425V416.273H160.729V419.494H160.815C160.888 419.381 160.991 419.236 161.121 419.06C161.255 418.881 161.445 418.722 161.692 418.582C161.942 418.44 162.281 418.369 162.707 418.369C163.258 418.369 163.744 418.507 164.164 418.783C164.584 419.058 164.913 419.449 165.148 419.955C165.384 420.46 165.502 421.057 165.502 421.744C165.502 422.438 165.384 423.038 165.148 423.547C164.913 424.053 164.586 424.445 164.168 424.723C163.751 424.999 163.269 425.136 162.724 425.136C162.303 425.136 161.967 425.067 161.714 424.928C161.461 424.786 161.266 424.625 161.13 424.446C160.994 424.264 160.888 424.114 160.815 423.994H160.695V425H159.724ZM160.712 421.727C160.712 422.222 160.785 422.658 160.93 423.036C161.075 423.411 161.286 423.705 161.565 423.918C161.843 424.128 162.184 424.233 162.587 424.233C163.008 424.233 163.359 424.122 163.64 423.901C163.924 423.676 164.137 423.375 164.279 422.997C164.424 422.616 164.496 422.193 164.496 421.727C164.496 421.267 164.425 420.852 164.283 420.483C164.144 420.111 163.933 419.817 163.648 419.601C163.367 419.382 163.013 419.273 162.587 419.273C162.178 419.273 161.834 419.376 161.556 419.584C161.278 419.788 161.067 420.075 160.925 420.445C160.783 420.811 160.712 421.239 160.712 421.727Z" fill="#9C9CAB"/>
<path d="M192.057 416.273H193.318L196.284 423.517H196.386L199.352 416.273H200.614V425H199.625V418.369H199.54L196.812 425H195.858L193.131 418.369H193.045V425H192.057V416.273ZM204.582 425.153C204.168 425.153 203.791 425.075 203.453 424.919C203.115 424.76 202.847 424.531 202.648 424.233C202.449 423.932 202.349 423.568 202.349 423.142C202.349 422.767 202.423 422.463 202.571 422.23C202.719 421.994 202.916 421.81 203.163 421.676C203.41 421.543 203.683 421.443 203.982 421.378C204.283 421.31 204.585 421.256 204.889 421.216C205.287 421.165 205.609 421.126 205.857 421.101C206.107 421.072 206.288 421.026 206.402 420.96C206.518 420.895 206.577 420.781 206.577 420.619V420.585C206.577 420.165 206.462 419.838 206.232 419.605C206.004 419.372 205.659 419.256 205.196 419.256C204.716 419.256 204.339 419.361 204.067 419.571C203.794 419.781 203.602 420.006 203.491 420.244L202.537 419.903C202.707 419.506 202.935 419.196 203.219 418.974C203.506 418.75 203.818 418.594 204.156 418.506C204.497 418.415 204.832 418.369 205.162 418.369C205.372 418.369 205.614 418.395 205.886 418.446C206.162 418.494 206.428 418.595 206.683 418.749C206.942 418.902 207.156 419.134 207.327 419.443C207.497 419.753 207.582 420.168 207.582 420.688V425H206.577V424.114H206.526C206.457 424.256 206.344 424.408 206.185 424.57C206.026 424.732 205.814 424.869 205.55 424.983C205.285 425.097 204.963 425.153 204.582 425.153ZM204.736 424.25C205.134 424.25 205.469 424.172 205.741 424.016C206.017 423.859 206.224 423.658 206.364 423.411C206.506 423.163 206.577 422.903 206.577 422.631V421.71C206.534 421.761 206.44 421.808 206.295 421.851C206.153 421.891 205.989 421.926 205.801 421.957C205.616 421.986 205.436 422.011 205.26 422.034C205.087 422.054 204.946 422.071 204.838 422.085C204.577 422.119 204.332 422.175 204.105 422.251C203.881 422.325 203.699 422.437 203.56 422.588C203.423 422.736 203.355 422.937 203.355 423.193C203.355 423.543 203.484 423.807 203.743 423.986C204.004 424.162 204.335 424.25 204.736 424.25ZM209.478 425V418.455H210.45V419.443H210.518C210.637 419.119 210.853 418.857 211.165 418.655C211.478 418.453 211.83 418.352 212.222 418.352C212.296 418.352 212.388 418.354 212.499 418.357C212.61 418.359 212.694 418.364 212.751 418.369V419.392C212.717 419.384 212.638 419.371 212.516 419.354C212.397 419.334 212.271 419.324 212.137 419.324C211.819 419.324 211.535 419.391 211.285 419.524C211.038 419.655 210.842 419.837 210.697 420.07C210.555 420.3 210.484 420.562 210.484 420.858V425H209.478Z" fill="#9C9CAB"/>
<path d="M239.415 425H238.307L241.511 416.273H242.602L245.807 425H244.699L242.091 417.653H242.023L239.415 425ZM239.824 421.591H244.29V422.528H239.824V421.591ZM247.09 427.455V418.455H248.061V419.494H248.181C248.255 419.381 248.357 419.236 248.488 419.06C248.621 418.881 248.811 418.722 249.059 418.582C249.309 418.44 249.647 418.369 250.073 418.369C250.624 418.369 251.11 418.507 251.53 418.783C251.951 419.058 252.279 419.449 252.515 419.955C252.75 420.46 252.868 421.057 252.868 421.744C252.868 422.438 252.75 423.038 252.515 423.547C252.279 424.053 251.952 424.445 251.534 424.723C251.117 424.999 250.635 425.136 250.09 425.136C249.669 425.136 249.333 425.067 249.08 424.928C248.827 424.786 248.632 424.625 248.496 424.446C248.36 424.264 248.255 424.114 248.181 423.994H248.096V427.455H247.09ZM248.078 421.727C248.078 422.222 248.151 422.658 248.296 423.036C248.441 423.411 248.652 423.705 248.931 423.918C249.209 424.128 249.55 424.233 249.953 424.233C250.374 424.233 250.725 424.122 251.006 423.901C251.29 423.676 251.503 423.375 251.645 422.997C251.79 422.616 251.863 422.193 251.863 421.727C251.863 421.267 251.792 420.852 251.649 420.483C251.51 420.111 251.299 419.817 251.015 419.601C250.733 419.382 250.38 419.273 249.953 419.273C249.544 419.273 249.201 419.376 248.922 419.584C248.644 419.788 248.434 420.075 248.292 420.445C248.149 420.811 248.078 421.239 248.078 421.727ZM254.462 425V418.455H255.434V419.443H255.502C255.621 419.119 255.837 418.857 256.15 418.655C256.462 418.453 256.815 418.352 257.207 418.352C257.281 418.352 257.373 418.354 257.484 418.357C257.594 418.359 257.678 418.364 257.735 418.369V419.392C257.701 419.384 257.623 419.371 257.501 419.354C257.381 419.334 257.255 419.324 257.121 419.324C256.803 419.324 256.519 419.391 256.269 419.524C256.022 419.655 255.826 419.837 255.681 420.07C255.539 420.3 255.468 420.562 255.468 420.858V425H254.462Z" fill="#9C9CAB"/>
<path d="M284.057 416.273H285.318L288.284 423.517H288.386L291.352 416.273H292.614V425H291.625V418.369H291.54L288.812 425H287.858L285.131 418.369H285.045V425H284.057V416.273ZM296.582 425.153C296.168 425.153 295.791 425.075 295.453 424.919C295.115 424.76 294.847 424.531 294.648 424.233C294.449 423.932 294.349 423.568 294.349 423.142C294.349 422.767 294.423 422.463 294.571 422.23C294.719 421.994 294.916 421.81 295.163 421.676C295.41 421.543 295.683 421.443 295.982 421.378C296.283 421.31 296.585 421.256 296.889 421.216C297.287 421.165 297.609 421.126 297.857 421.101C298.107 421.072 298.288 421.026 298.402 420.96C298.518 420.895 298.577 420.781 298.577 420.619V420.585C298.577 420.165 298.462 419.838 298.232 419.605C298.004 419.372 297.659 419.256 297.196 419.256C296.716 419.256 296.339 419.361 296.067 419.571C295.794 419.781 295.602 420.006 295.491 420.244L294.537 419.903C294.707 419.506 294.935 419.196 295.219 418.974C295.506 418.75 295.818 418.594 296.156 418.506C296.497 418.415 296.832 418.369 297.162 418.369C297.372 418.369 297.614 418.395 297.886 418.446C298.162 418.494 298.428 418.595 298.683 418.749C298.942 418.902 299.156 419.134 299.327 419.443C299.497 419.753 299.582 420.168 299.582 420.688V425H298.577V424.114H298.526C298.457 424.256 298.344 424.408 298.185 424.57C298.026 424.732 297.814 424.869 297.55 424.983C297.285 425.097 296.963 425.153 296.582 425.153ZM296.736 424.25C297.134 424.25 297.469 424.172 297.741 424.016C298.017 423.859 298.224 423.658 298.364 423.411C298.506 423.163 298.577 422.903 298.577 422.631V421.71C298.534 421.761 298.44 421.808 298.295 421.851C298.153 421.891 297.989 421.926 297.801 421.957C297.616 421.986 297.436 422.011 297.26 422.034C297.087 422.054 296.946 422.071 296.838 422.085C296.577 422.119 296.332 422.175 296.105 422.251C295.881 422.325 295.699 422.437 295.56 422.588C295.423 422.736 295.355 422.937 295.355 423.193C295.355 423.543 295.484 423.807 295.743 423.986C296.004 424.162 296.335 424.25 296.736 424.25ZM301.891 427.455C301.721 427.455 301.569 427.44 301.435 427.412C301.302 427.386 301.209 427.361 301.158 427.335L301.414 426.449C301.658 426.511 301.874 426.534 302.062 426.517C302.249 426.5 302.415 426.416 302.56 426.266C302.708 426.118 302.843 425.878 302.965 425.545L303.153 425.034L300.732 418.455H301.823L303.63 423.67H303.698L305.505 418.455H306.596L303.817 425.955C303.692 426.293 303.538 426.572 303.353 426.794C303.168 427.018 302.954 427.185 302.709 427.293C302.468 427.401 302.195 427.455 301.891 427.455Z" fill="#9C9CAB"/>
<path d="M336.398 416.273H337.455V422.511C337.455 423.068 337.352 423.541 337.148 423.93C336.943 424.32 336.655 424.615 336.283 424.817C335.911 425.018 335.472 425.119 334.966 425.119C334.489 425.119 334.064 425.033 333.692 424.859C333.32 424.683 333.027 424.433 332.814 424.109C332.601 423.786 332.494 423.401 332.494 422.955H333.534C333.534 423.202 333.595 423.418 333.717 423.602C333.842 423.784 334.013 423.926 334.229 424.028C334.445 424.131 334.69 424.182 334.966 424.182C335.27 424.182 335.528 424.118 335.741 423.99C335.955 423.862 336.116 423.675 336.227 423.428C336.341 423.178 336.398 422.872 336.398 422.511V416.273ZM343.621 422.324V418.455H344.627V425H343.621V423.892H343.553C343.399 424.224 343.161 424.507 342.837 424.74C342.513 424.97 342.104 425.085 341.61 425.085C341.201 425.085 340.837 424.996 340.519 424.817C340.201 424.635 339.951 424.362 339.769 423.999C339.587 423.632 339.496 423.17 339.496 422.614V418.455H340.502V422.545C340.502 423.023 340.635 423.403 340.902 423.688C341.172 423.972 341.516 424.114 341.934 424.114C342.184 424.114 342.438 424.05 342.696 423.922C342.958 423.794 343.176 423.598 343.353 423.334C343.532 423.07 343.621 422.733 343.621 422.324ZM347.534 421.062V425H346.529V418.455H347.5V419.477H347.586C347.739 419.145 347.972 418.878 348.284 418.676C348.597 418.472 349 418.369 349.495 418.369C349.938 418.369 350.326 418.46 350.658 418.642C350.99 418.821 351.249 419.094 351.434 419.46C351.618 419.824 351.711 420.284 351.711 420.841V425H350.705V420.909C350.705 420.395 350.571 419.994 350.304 419.707C350.037 419.418 349.671 419.273 349.205 419.273C348.884 419.273 348.597 419.342 348.344 419.482C348.094 419.621 347.897 419.824 347.752 420.091C347.607 420.358 347.534 420.682 347.534 421.062Z" fill="#9C9CAB"/>
<path d="M381.398 416.273H382.455V422.511C382.455 423.068 382.352 423.541 382.148 423.93C381.943 424.32 381.655 424.615 381.283 424.817C380.911 425.018 380.472 425.119 379.966 425.119C379.489 425.119 379.064 425.033 378.692 424.859C378.32 424.683 378.027 424.433 377.814 424.109C377.601 423.786 377.494 423.401 377.494 422.955H378.534C378.534 423.202 378.595 423.418 378.717 423.602C378.842 423.784 379.013 423.926 379.229 424.028C379.445 424.131 379.69 424.182 379.966 424.182C380.27 424.182 380.528 424.118 380.741 423.99C380.955 423.862 381.116 423.675 381.227 423.428C381.341 423.178 381.398 422.872 381.398 422.511V416.273ZM388.621 422.324V418.455H389.627V425H388.621V423.892H388.553C388.399 424.224 388.161 424.507 387.837 424.74C387.513 424.97 387.104 425.085 386.61 425.085C386.201 425.085 385.837 424.996 385.519 424.817C385.201 424.635 384.951 424.362 384.769 423.999C384.587 423.632 384.496 423.17 384.496 422.614V418.455H385.502V422.545C385.502 423.023 385.635 423.403 385.902 423.688C386.172 423.972 386.516 424.114 386.934 424.114C387.184 424.114 387.438 424.05 387.696 423.922C387.958 423.794 388.176 423.598 388.353 423.334C388.532 423.07 388.621 422.733 388.621 422.324ZM392.534 416.273V425H391.529V416.273H392.534Z" fill="#9C9CAB"/>
<path d="M419.415 425H418.307L421.511 416.273H422.602L425.807 425H424.699L422.091 417.653H422.023L419.415 425ZM419.824 421.591H424.29V422.528H419.824V421.591ZM431.215 422.324V418.455H432.221V425H431.215V423.892H431.147C430.993 424.224 430.755 424.507 430.431 424.74C430.107 424.97 429.698 425.085 429.203 425.085C428.794 425.085 428.431 424.996 428.113 424.817C427.794 424.635 427.544 424.362 427.363 423.999C427.181 423.632 427.09 423.17 427.09 422.614V418.455H428.096V422.545C428.096 423.023 428.229 423.403 428.496 423.688C428.766 423.972 429.11 424.114 429.527 424.114C429.777 424.114 430.032 424.05 430.29 423.922C430.551 423.794 430.77 423.598 430.946 423.334C431.125 423.07 431.215 422.733 431.215 422.324ZM436.765 427.591C436.279 427.591 435.861 427.528 435.512 427.403C435.162 427.281 434.871 427.119 434.638 426.918C434.408 426.719 434.225 426.506 434.088 426.278L434.89 425.716C434.98 425.835 435.095 425.972 435.235 426.125C435.374 426.281 435.564 426.416 435.806 426.53C436.05 426.646 436.37 426.705 436.765 426.705C437.293 426.705 437.729 426.577 438.073 426.321C438.417 426.065 438.588 425.665 438.588 425.119V423.79H438.503C438.429 423.909 438.324 424.057 438.188 424.233C438.054 424.406 437.861 424.561 437.608 424.697C437.358 424.831 437.02 424.898 436.594 424.898C436.066 424.898 435.591 424.773 435.171 424.523C434.753 424.273 434.422 423.909 434.178 423.432C433.936 422.955 433.816 422.375 433.816 421.693C433.816 421.023 433.934 420.439 434.169 419.942C434.405 419.442 434.733 419.055 435.154 418.783C435.574 418.507 436.06 418.369 436.611 418.369C437.037 418.369 437.375 418.44 437.625 418.582C437.878 418.722 438.071 418.881 438.205 419.06C438.341 419.236 438.446 419.381 438.52 419.494H438.622V418.455H439.594V425.188C439.594 425.75 439.466 426.207 439.211 426.56C438.958 426.915 438.617 427.175 438.188 427.339C437.762 427.507 437.287 427.591 436.765 427.591ZM436.73 423.994C437.134 423.994 437.475 423.902 437.753 423.717C438.032 423.533 438.243 423.267 438.388 422.92C438.533 422.574 438.605 422.159 438.605 421.676C438.605 421.205 438.534 420.788 438.392 420.428C438.25 420.067 438.04 419.784 437.762 419.58C437.483 419.375 437.14 419.273 436.73 419.273C436.304 419.273 435.949 419.381 435.665 419.597C435.384 419.812 435.172 420.102 435.03 420.466C434.891 420.83 434.821 421.233 434.821 421.676C434.821 422.131 434.892 422.533 435.034 422.882C435.179 423.229 435.392 423.501 435.674 423.7C435.958 423.896 436.31 423.994 436.73 423.994Z" fill="#9C9CAB"/>
<path d="M470.83 418.455C470.778 418.023 470.571 417.688 470.207 417.449C469.844 417.21 469.398 417.091 468.869 417.091C468.483 417.091 468.145 417.153 467.855 417.278C467.568 417.403 467.344 417.575 467.182 417.794C467.023 418.013 466.943 418.261 466.943 418.54C466.943 418.773 466.999 418.973 467.109 419.141C467.223 419.305 467.368 419.443 467.544 419.554C467.72 419.662 467.905 419.751 468.098 419.822C468.291 419.891 468.469 419.946 468.631 419.989L469.517 420.227C469.744 420.287 469.997 420.369 470.276 420.474C470.557 420.58 470.825 420.723 471.081 420.905C471.339 421.084 471.553 421.314 471.72 421.595C471.888 421.876 471.972 422.222 471.972 422.631C471.972 423.102 471.848 423.528 471.601 423.909C471.357 424.29 470.999 424.592 470.527 424.817C470.058 425.041 469.489 425.153 468.818 425.153C468.193 425.153 467.652 425.053 467.195 424.851C466.74 424.649 466.382 424.368 466.121 424.007C465.862 423.646 465.716 423.227 465.682 422.75H466.773C466.801 423.08 466.912 423.352 467.105 423.568C467.301 423.781 467.548 423.94 467.847 424.045C468.148 424.148 468.472 424.199 468.818 424.199C469.222 424.199 469.584 424.134 469.905 424.003C470.226 423.869 470.48 423.685 470.668 423.449C470.855 423.21 470.949 422.932 470.949 422.614C470.949 422.324 470.868 422.088 470.706 421.906C470.544 421.724 470.331 421.577 470.067 421.463C469.803 421.349 469.517 421.25 469.21 421.165L468.136 420.858C467.455 420.662 466.915 420.382 466.517 420.018C466.119 419.655 465.92 419.179 465.92 418.591C465.92 418.102 466.053 417.676 466.317 417.312C466.584 416.946 466.942 416.662 467.391 416.46C467.842 416.256 468.347 416.153 468.903 416.153C469.466 416.153 469.966 416.254 470.403 416.456C470.841 416.655 471.188 416.928 471.443 417.274C471.702 417.621 471.838 418.014 471.852 418.455H470.83ZM476.377 425.136C475.746 425.136 475.202 424.997 474.745 424.719C474.29 424.438 473.94 424.045 473.692 423.543C473.448 423.037 473.326 422.449 473.326 421.778C473.326 421.108 473.448 420.517 473.692 420.006C473.94 419.491 474.283 419.091 474.724 418.804C475.167 418.514 475.684 418.369 476.275 418.369C476.616 418.369 476.952 418.426 477.285 418.54C477.617 418.653 477.92 418.838 478.192 419.094C478.465 419.347 478.683 419.682 478.844 420.099C479.006 420.517 479.087 421.031 479.087 421.642V422.068H474.042V421.199H478.065C478.065 420.83 477.991 420.5 477.843 420.21C477.698 419.92 477.491 419.692 477.221 419.524C476.954 419.357 476.638 419.273 476.275 419.273C475.874 419.273 475.528 419.372 475.235 419.571C474.945 419.767 474.722 420.023 474.566 420.338C474.41 420.653 474.332 420.991 474.332 421.352V421.932C474.332 422.426 474.417 422.845 474.587 423.189C474.761 423.53 475.001 423.79 475.308 423.969C475.614 424.145 475.971 424.233 476.377 424.233C476.641 424.233 476.88 424.196 477.093 424.122C477.309 424.045 477.495 423.932 477.651 423.781C477.808 423.628 477.928 423.437 478.013 423.21L478.985 423.483C478.883 423.812 478.711 424.102 478.469 424.352C478.228 424.599 477.93 424.793 477.575 424.932C477.219 425.068 476.82 425.136 476.377 425.136ZM480.677 427.455V418.455H481.649V419.494H481.768C481.842 419.381 481.944 419.236 482.075 419.06C482.208 418.881 482.399 418.722 482.646 418.582C482.896 418.44 483.234 418.369 483.66 418.369C484.211 418.369 484.697 418.507 485.118 418.783C485.538 419.058 485.866 419.449 486.102 419.955C486.338 420.46 486.456 421.057 486.456 421.744C486.456 422.438 486.338 423.038 486.102 423.547C485.866 424.053 485.539 424.445 485.122 424.723C484.704 424.999 484.223 425.136 483.677 425.136C483.257 425.136 482.92 425.067 482.667 424.928C482.414 424.786 482.22 424.625 482.083 424.446C481.947 424.264 481.842 424.114 481.768 423.994H481.683V427.455H480.677ZM481.666 421.727C481.666 422.222 481.738 422.658 481.883 423.036C482.028 423.411 482.24 423.705 482.518 423.918C482.796 424.128 483.137 424.233 483.541 424.233C483.961 424.233 484.312 424.122 484.593 423.901C484.877 423.676 485.091 423.375 485.233 422.997C485.377 422.616 485.45 422.193 485.45 421.727C485.45 421.267 485.379 420.852 485.237 420.483C485.098 420.111 484.886 419.817 484.602 419.601C484.321 419.382 483.967 419.273 483.541 419.273C483.132 419.273 482.788 419.376 482.51 419.584C482.231 419.788 482.021 420.075 481.879 420.445C481.737 420.811 481.666 421.239 481.666 421.727Z" fill="#9C9CAB"/>
<path d="M520.42 420.636C520.42 421.557 520.254 422.352 519.922 423.023C519.589 423.693 519.134 424.21 518.554 424.574C517.974 424.938 517.313 425.119 516.568 425.119C515.824 425.119 515.162 424.938 514.582 424.574C514.003 424.21 513.547 423.693 513.214 423.023C512.882 422.352 512.716 421.557 512.716 420.636C512.716 419.716 512.882 418.92 513.214 418.25C513.547 417.58 514.003 417.062 514.582 416.699C515.162 416.335 515.824 416.153 516.568 416.153C517.313 416.153 517.974 416.335 518.554 416.699C519.134 417.062 519.589 417.58 519.922 418.25C520.254 418.92 520.42 419.716 520.42 420.636ZM519.398 420.636C519.398 419.881 519.271 419.243 519.018 418.723C518.768 418.203 518.429 417.81 518 417.543C517.574 417.276 517.097 417.142 516.568 417.142C516.04 417.142 515.561 417.276 515.132 417.543C514.706 417.81 514.366 418.203 514.114 418.723C513.864 419.243 513.739 419.881 513.739 420.636C513.739 421.392 513.864 422.03 514.114 422.55C514.366 423.07 514.706 423.463 515.132 423.73C515.561 423.997 516.04 424.131 516.568 424.131C517.097 424.131 517.574 423.997 518 423.73C518.429 423.463 518.768 423.07 519.018 422.55C519.271 422.03 519.398 421.392 519.398 420.636ZM524.78 425.136C524.167 425.136 523.638 424.991 523.195 424.702C522.752 424.412 522.411 424.013 522.172 423.504C521.934 422.996 521.814 422.415 521.814 421.761C521.814 421.097 521.936 420.51 522.181 420.001C522.428 419.49 522.772 419.091 523.212 418.804C523.655 418.514 524.172 418.369 524.763 418.369C525.223 418.369 525.638 418.455 526.007 418.625C526.377 418.795 526.679 419.034 526.915 419.341C527.151 419.648 527.297 420.006 527.354 420.415H526.348C526.272 420.116 526.101 419.852 525.837 419.622C525.576 419.389 525.223 419.273 524.78 419.273C524.388 419.273 524.044 419.375 523.749 419.58C523.456 419.781 523.228 420.067 523.063 420.436C522.901 420.803 522.82 421.233 522.82 421.727C522.82 422.233 522.899 422.673 523.059 423.048C523.221 423.423 523.448 423.714 523.74 423.922C524.036 424.129 524.382 424.233 524.78 424.233C525.042 424.233 525.279 424.188 525.492 424.097C525.705 424.006 525.885 423.875 526.033 423.705C526.181 423.534 526.286 423.33 526.348 423.091H527.354C527.297 423.477 527.157 423.825 526.932 424.135C526.711 424.442 526.417 424.686 526.05 424.868C525.686 425.047 525.263 425.136 524.78 425.136ZM531.731 418.455V419.307H528.339V418.455H531.731ZM529.327 416.886H530.333V423.125C530.333 423.409 530.374 423.622 530.457 423.764C530.542 423.903 530.65 423.997 530.781 424.045C530.914 424.091 531.055 424.114 531.202 424.114C531.313 424.114 531.404 424.108 531.475 424.097C531.546 424.082 531.603 424.071 531.646 424.062L531.85 424.966C531.782 424.991 531.687 425.017 531.565 425.043C531.442 425.071 531.288 425.085 531.1 425.085C530.816 425.085 530.538 425.024 530.265 424.902C529.995 424.78 529.771 424.594 529.592 424.344C529.415 424.094 529.327 423.778 529.327 423.398V416.886Z" fill="#9C9CAB"/>
<path d="M564.977 416.273V425H563.955L559.199 418.148H559.114V425H558.057V416.273H559.08L563.852 423.142H563.938V416.273H564.977ZM569.675 425.136C569.084 425.136 568.565 424.996 568.119 424.714C567.676 424.433 567.33 424.04 567.08 423.534C566.832 423.028 566.709 422.437 566.709 421.761C566.709 421.08 566.832 420.484 567.08 419.976C567.33 419.467 567.676 419.072 568.119 418.791C568.565 418.51 569.084 418.369 569.675 418.369C570.266 418.369 570.783 418.51 571.226 418.791C571.672 419.072 572.018 419.467 572.266 419.976C572.516 420.484 572.641 421.08 572.641 421.761C572.641 422.437 572.516 423.028 572.266 423.534C572.018 424.04 571.672 424.433 571.226 424.714C570.783 424.996 570.266 425.136 569.675 425.136ZM569.675 424.233C570.124 424.233 570.493 424.118 570.783 423.888C571.072 423.658 571.287 423.355 571.426 422.98C571.565 422.605 571.635 422.199 571.635 421.761C571.635 421.324 571.565 420.916 571.426 420.538C571.287 420.161 571.072 419.855 570.783 419.622C570.493 419.389 570.124 419.273 569.675 419.273C569.226 419.273 568.857 419.389 568.567 419.622C568.277 419.855 568.062 420.161 567.923 420.538C567.784 420.916 567.714 421.324 567.714 421.761C567.714 422.199 567.784 422.605 567.923 422.98C568.062 423.355 568.277 423.658 568.567 423.888C568.857 424.118 569.226 424.233 569.675 424.233ZM579.354 418.455L576.933 425H575.91L573.49 418.455H574.581L576.388 423.67H576.456L578.263 418.455H579.354Z" fill="#9C9CAB"/>
<path d="M607.75 425H605.057V416.273H607.869C608.716 416.273 609.44 416.447 610.043 416.797C610.645 417.143 611.107 417.642 611.428 418.293C611.749 418.94 611.909 419.716 611.909 420.619C611.909 421.528 611.747 422.311 611.423 422.967C611.099 423.621 610.628 424.124 610.009 424.476C609.389 424.825 608.636 425 607.75 425ZM606.114 424.062H607.682C608.403 424.062 609.001 423.923 609.476 423.645C609.95 423.366 610.304 422.97 610.537 422.456C610.77 421.942 610.886 421.33 610.886 420.619C610.886 419.915 610.771 419.308 610.541 418.8C610.311 418.288 609.967 417.896 609.51 417.624C609.053 417.348 608.483 417.21 607.801 417.21H606.114V424.062ZM616.35 425.136C615.719 425.136 615.175 424.997 614.718 424.719C614.263 424.438 613.912 424.045 613.665 423.543C613.421 423.037 613.299 422.449 613.299 421.778C613.299 421.108 613.421 420.517 613.665 420.006C613.912 419.491 614.256 419.091 614.696 418.804C615.14 418.514 615.657 418.369 616.248 418.369C616.588 418.369 616.925 418.426 617.257 418.54C617.59 418.653 617.892 418.838 618.165 419.094C618.438 419.347 618.655 419.682 618.817 420.099C618.979 420.517 619.06 421.031 619.06 421.642V422.068H614.015V421.199H618.037C618.037 420.83 617.963 420.5 617.816 420.21C617.671 419.92 617.463 419.692 617.194 419.524C616.926 419.357 616.611 419.273 616.248 419.273C615.847 419.273 615.5 419.372 615.208 419.571C614.918 419.767 614.695 420.023 614.539 420.338C614.382 420.653 614.304 420.991 614.304 421.352V421.932C614.304 422.426 614.39 422.845 614.56 423.189C614.733 423.53 614.973 423.79 615.28 423.969C615.587 424.145 615.944 424.233 616.35 424.233C616.614 424.233 616.853 424.196 617.066 424.122C617.282 424.045 617.468 423.932 617.624 423.781C617.78 423.628 617.901 423.437 617.986 423.21L618.958 423.483C618.855 423.812 618.684 424.102 618.442 424.352C618.201 424.599 617.902 424.793 617.547 424.932C617.192 425.068 616.793 425.136 616.35 425.136ZM623.309 425.136C622.695 425.136 622.167 424.991 621.724 424.702C621.281 424.412 620.94 424.013 620.701 423.504C620.462 422.996 620.343 422.415 620.343 421.761C620.343 421.097 620.465 420.51 620.709 420.001C620.957 419.49 621.3 419.091 621.741 418.804C622.184 418.514 622.701 418.369 623.292 418.369C623.752 418.369 624.167 418.455 624.536 418.625C624.906 418.795 625.208 419.034 625.444 419.341C625.68 419.648 625.826 420.006 625.883 420.415H624.877C624.8 420.116 624.63 419.852 624.366 419.622C624.104 419.389 623.752 419.273 623.309 419.273C622.917 419.273 622.573 419.375 622.278 419.58C621.985 419.781 621.756 420.067 621.592 420.436C621.43 420.803 621.349 421.233 621.349 421.727C621.349 422.233 621.428 422.673 621.587 423.048C621.749 423.423 621.977 423.714 622.269 423.922C622.565 424.129 622.911 424.233 623.309 424.233C623.57 424.233 623.807 424.188 624.021 424.097C624.234 424.006 624.414 423.875 624.562 423.705C624.709 423.534 624.815 423.33 624.877 423.091H625.883C625.826 423.477 625.685 423.825 625.461 424.135C625.239 424.442 624.945 424.686 624.579 424.868C624.215 425.047 623.792 425.136 623.309 425.136Z" fill="#9C9CAB"/>
<rect x="556" y="209" width="8" height="54" rx="4" fill="#FB3766"/>
<rect x="559" y="201" width="2" height="80" rx="1" fill="#FB3766"/>
<rect x="244" y="225" width="8" height="54" rx="4" fill="#FB3766"/>
<rect x="247" y="217" width="2" height="80" rx="1" fill="#FB3766"/>
<rect x="196" y="206" width="8" height="54" rx="4" fill="#11CF8B"/>
<rect x="199" y="198" width="2" height="80" rx="1" fill="#11CF8B"/>
<rect x="220" y="191" width="8" height="54" rx="4" fill="#11CF8B"/>
<rect x="223" y="183" width="2" height="124" rx="1" fill="#11CF8B"/>
<rect x="124" y="227" width="8" height="54" rx="4" fill="#FB3766"/>
<rect x="127" y="219" width="2" height="103" rx="1" fill="#FB3766"/>
<rect x="388" y="246" width="8" height="54" rx="4" fill="#11CF8B"/>
<rect x="391" y="238" width="2" height="80" rx="1" fill="#11CF8B"/>
<rect x="484" y="211" width="8" height="40" rx="4" fill="#11CF8B"/>
<rect x="487" y="191" width="2" height="80" rx="1" fill="#11CF8B"/>
<rect x="460" y="226" width="8" height="32" rx="4" fill="#11CF8B"/>
<rect x="463" y="166" width="2" height="120" rx="1" fill="#11CF8B"/>
<rect x="364" y="254" width="8" height="27" rx="4" fill="#11CF8B"/>
<rect x="367" y="250" width="2" height="55" rx="1" fill="#11CF8B"/>
<rect x="532" y="203" width="8" height="27" rx="4" fill="#11CF8B"/>
<rect x="535" y="199" width="2" height="55" rx="1" fill="#11CF8B"/>
<rect x="172" y="254" width="8" height="27" rx="4" fill="#FB3766"/>
<rect x="175" y="233" width="2" height="55" rx="1" fill="#FB3766"/>
<rect x="580" y="246" width="8" height="20" rx="4" fill="#11CF8B"/>
<rect x="583" y="239" width="2" height="46" rx="1" fill="#11CF8B"/>
<rect x="268" y="238" width="8" height="20" rx="4" fill="#11CF8B"/>
<rect x="271" y="231" width="2" height="46" rx="1" fill="#11CF8B"/>
<rect x="508" y="204" width="8" height="20" rx="4" fill="#11CF8B"/>
<rect x="511" y="197" width="2" height="46" rx="1" fill="#11CF8B"/>
<rect x="436" y="222" width="8" height="16" rx="4" fill="#FB3766"/>
<rect x="439" y="216" width="2" height="55" rx="1" fill="#FB3766"/>
<rect x="340" y="266" width="8" height="16" rx="4" fill="#FB3766"/>
<rect x="343" y="260" width="2" height="55" rx="1" fill="#FB3766"/>
<rect x="316" y="277" width="8" height="16" rx="4" fill="#FB3766"/>
<rect x="319" y="268" width="2" height="70" rx="1" fill="#FB3766"/>
<rect x="100" y="266" width="8" height="16" rx="4" fill="#11CF8B"/>
<rect x="103" y="244" width="2" height="98" rx="1" fill="#11CF8B"/>
<rect x="412" y="230" width="8" height="16" rx="4" fill="#FB3766"/>
<rect x="415" y="224" width="2" height="40" rx="1" fill="#FB3766"/>
<rect x="148" y="232" width="8" height="16" rx="4" fill="#11CF8B"/>
<rect x="151" y="226" width="2" height="40" rx="1" fill="#11CF8B"/>
<rect x="292" y="283" width="8" height="16" rx="4" fill="#11CF8B"/>
<rect x="295" y="277" width="2" height="40" rx="1" fill="#11CF8B"/>
<defs>
<filter id="filter0_d_1_1665" x="0" y="0" width="800" height="562" filterUnits="userSpaceOnUse" color-interpolation-filters="sRGB">
<feFlood flood-opacity="0" result="BackgroundImageFix"/>
<feColorMatrix in="SourceAlpha" type="matrix" values="0 0 0 0 0 0 0 0 0 0 0 0 0 0 0 0 0 0 127 0" result="hardAlpha"/>
<feOffset dx="20" dy="20"/>
<feGaussianBlur stdDeviation="40"/>
<feComposite in2="hardAlpha" operator="out"/>
<feColorMatrix type="matrix" values="0 0 0 0 0.321569 0 0 0 0 0.207843 0 0 0 0 0.909804 0 0 0 0.1 0"/>
<feBlend mode="normal" in2="BackgroundImageFix" result="effect1_dropShadow_1_1665"/>
<feBlend mode="normal" in="SourceGraphic" in2="effect1_dropShadow_1_1665" result="shape"/>
</filter>
</defs>
</svg>
