<svg width="83" height="108" viewBox="0 0 83 108" fill="none" xmlns="http://www.w3.org/2000/svg">
<path d="M44.7777 86.3447C65.5036 93.9909 82.3053 82.2808 82.3053 60.1894C82.3053 38.098 65.5036 13.9909 44.7777 6.34468C24.0517 -1.30152 7.25 10.4086 7.25 32.5C7.25 54.5914 24.0517 78.6985 44.7777 86.3447Z" fill="#F7DF27"/>
<path opacity="0.2" d="M38.5277 93.8447C59.2536 101.491 76.0553 89.7808 76.0553 67.6894C76.0553 45.598 59.2536 21.4909 38.5277 13.8447C17.8017 6.19848 1 17.9086 1 40C1 62.0914 17.8017 86.1985 38.5277 93.8447Z" fill="#E2BD23"/>
<path d="M38.5277 93.8447C59.2536 101.491 76.0553 89.7808 76.0553 67.6894C76.0553 45.598 59.2536 21.4909 38.5277 13.8447C17.8017 6.19848 1 17.9086 1 40C1 62.0914 17.8017 86.1985 38.5277 93.8447Z" fill="#FF6E00" stroke="white" stroke-width="2"/>
<mask id="mask0_1_1583" style="mask-type:luminance" maskUnits="userSpaceOnUse" x="1" y="11" width="76" height="86">
<path d="M38.5277 93.8447C59.2536 101.491 76.0553 89.7808 76.0553 67.6894C76.0553 45.598 59.2536 21.4909 38.5277 13.8447C17.8017 6.19848 1 17.9086 1 40C1 62.0914 17.8017 86.1985 38.5277 93.8447Z" fill="white"/>
</mask>
<g mask="url(#mask0_1_1583)">
<path fill-rule="evenodd" clip-rule="evenodd" d="M39.1485 38.0298L28.9019 34.2496V48.7551L22.6506 46.4489V51.284L28.9019 53.5903V68.0958L39.1485 71.8759C44.5569 73.8712 45.7223 73.6974 48.0531 73.3498C48.234 73.3228 48.422 73.2948 48.6195 73.2667C51.3613 72.876 53.4921 71.6877 55.0119 69.7019C56.5316 67.716 57.2915 65.0308 57.2915 61.6461C57.2915 58.2615 56.5316 55.0156 55.0119 51.9084C53.4921 48.8012 51.3613 46.0408 48.6195 43.6271C45.8777 41.2134 42.7207 39.3476 39.1485 38.0298ZM36.5163 56.3994V64.4741L38.7724 65.3064C42.0626 66.5202 44.6869 66.5455 46.6454 65.3823C48.6038 64.2191 49.583 62.0258 49.583 58.8023C49.583 55.5789 48.6038 52.6631 46.6454 50.0549C44.6869 47.4466 42.0626 45.5356 38.7724 44.3218L36.5163 43.4895V51.5642L43.8017 54.2519V59.0871L36.5163 56.3994Z" fill="white"/>
</g>
</svg>
