<svg width="51" height="50" viewBox="0 0 51 50" fill="none" xmlns="http://www.w3.org/2000/svg">
<path opacity="0.2" d="M25.5 49C38.7548 49 49.5 38.2548 49.5 25C49.5 11.7452 38.7548 1 25.5 1C12.2452 1 1.5 11.7452 1.5 25C1.5 38.2548 12.2452 49 25.5 49Z" fill="#E2BD23"/>
<path d="M25.5 49C38.7548 49 49.5 38.2548 49.5 25C49.5 11.7452 38.7548 1 25.5 1C12.2452 1 1.5 11.7452 1.5 25C1.5 38.2548 12.2452 49 25.5 49Z" fill="#F0C30B" stroke="#0E0637" stroke-width="2"/>
<mask id="mask0_1_1915" style="mask-type:alpha" maskUnits="userSpaceOnUse" x="1" y="1" width="49" height="48">
<path d="M25.5 49C38.7548 49 49.5 38.2548 49.5 25C49.5 11.7452 38.7548 1 25.5 1C12.2452 1 1.5 11.7452 1.5 25C1.5 38.2548 12.2452 49 25.5 49Z" fill="white"/>
</mask>
<g mask="url(#mask0_1_1915)">
<path fill-rule="evenodd" clip-rule="evenodd" d="M25.897 15.3735H19.3441V24.0768H15.3462V26.9779H19.3441V35.6812H25.897C29.3559 35.6812 30.1012 35.319 31.5918 34.5945C31.7075 34.5383 31.8277 34.4799 31.954 34.4193C33.7075 33.5779 35.0702 32.3933 36.0421 30.8654C37.014 29.3375 37.5 27.5582 37.5 25.5274C37.5 23.4966 37.014 21.7173 36.0421 20.1894C35.0702 18.6614 33.7075 17.4768 31.954 16.6355C30.2005 15.7942 28.1816 15.3735 25.897 15.3735ZM24.2137 26.9779V31.8228H25.6566C27.7607 31.8228 29.439 31.2571 30.6915 30.1256C31.944 28.9942 32.5702 27.4615 32.5702 25.5274C32.5702 23.5933 31.944 22.0606 30.6915 20.9291C29.439 19.7977 27.7607 19.232 25.6566 19.232H24.2137V24.0768H28.8729V26.9779H24.2137Z" fill="white"/>
</g>
</svg>
