<svg width="544" height="250" viewBox="0 0 544 250" fill="none" xmlns="http://www.w3.org/2000/svg">
<path d="M91.6493 217.528L90 214.695V250H496V142.589L492.427 140.786L489.128 148.769L484.73 146.451H476.483L473.735 147.997L467.412 145.164L460.815 147.997L458.066 145.164L456.417 146.451L451.744 138.983L446.796 143.876H438.825L430.578 134.863L424.531 142.589L420.133 137.181L414.36 134.863L408.588 137.181L403.915 142.589L401.441 134.863L396.493 137.181L391.82 131L388.796 138.983L386.047 134.863L382.199 146.451L376.701 150.057L371.204 146.451L365.706 150.057L363.507 147.997L357.735 156.752L355.261 154.95L352.512 164.993L349.763 162.16L348.664 167.311L340.967 158.04L335.744 147.997L334.095 169.371L331.071 167.311L325.573 184.05L322 188.17L320.626 185.08L316.502 197.699L311.555 200.274L308.256 217.528L302.483 212.635V220.361L291.213 200.274L286.54 195.896L282.142 205.424L279.393 200.274L276.095 207.485H270.322L257.128 191.261L250.531 200.274L242.834 195.896L237.062 200.274L229.915 193.321L224.692 195.896L222.493 189.458L218.37 195.896L215.346 193.321L210.673 209.287L207.1 205.424L204.9 217.528L199.678 209.287L196.929 203.107L192.531 217.528L190.057 189.458L182.635 181.732L177.412 178.642L174.114 181.732L171.365 176.839L160.37 195.896L154.872 203.107L148.275 200.274V205.424L143.602 200.274L138.104 212.635H136.18L129.583 217.528L126.559 212.635L118.863 223.966V235.297L113.365 217.528L108.692 207.485L103.469 212.635L97.4218 207.485L91.6493 217.528Z" fill="url(#paint0_linear_37_212)" fill-opacity="0.2"/>
<path d="M90 214.695L91.6493 217.528L97.4218 207.485L103.469 212.635L108.692 207.485L113.365 217.528L118.863 235.297V223.966L126.559 212.635L129.583 217.528L136.18 212.635H138.104L143.602 200.274L148.275 205.425V200.274L154.872 203.107L160.37 195.896L171.365 176.839L174.114 181.732L177.412 178.642L182.635 181.732L190.057 189.458L192.531 217.528L196.929 203.107L199.678 209.287L204.9 217.528L207.1 205.425L210.673 209.287L215.346 193.321L218.37 195.896L222.493 189.458L224.692 195.896L229.915 193.321L237.062 200.274L242.834 195.896L250.531 200.274L257.128 191.261L270.322 207.485H276.095L279.393 200.274L282.142 205.425L286.54 195.896L291.213 200.274L302.483 220.361V212.635L308.256 217.528L311.554 200.274L316.502 197.699L320.626 185.08L322 188.17L325.573 184.05L331.071 167.311L334.095 169.371L335.744 147.997L340.967 158.04L348.664 167.311L349.763 162.16L352.512 164.993L355.261 154.95L357.735 156.752L363.507 147.997L365.706 150.057L371.204 146.451L376.701 150.057L382.199 146.451L386.047 134.863L388.796 138.983L391.82 131L396.493 137.181L401.441 134.863L403.915 142.589L408.588 137.181L414.36 134.863L420.133 137.181L424.531 142.589L430.578 134.863L438.825 143.876H446.796L451.744 138.983L456.417 146.451L458.066 145.164L460.815 147.997L467.412 145.164L473.735 147.997L476.483 146.451H484.73L489.128 148.769L492.427 140.786L496 142.589" stroke="#FF6E00" stroke-width="2"/>
<path d="M51.4773 77.0909V66.1818H52.1761V77.0909H51.4773ZM53.8295 69.4545C53.7784 69.0227 53.571 68.6875 53.2074 68.4489C52.8438 68.2102 52.3977 68.0909 51.8693 68.0909C51.483 68.0909 51.1449 68.1534 50.8551 68.2784C50.5682 68.4034 50.3438 68.5753 50.1818 68.794C50.0227 69.0128 49.9432 69.2614 49.9432 69.5398C49.9432 69.7727 49.9986 69.973 50.1094 70.1406C50.223 70.3054 50.3679 70.4432 50.544 70.554C50.7202 70.6619 50.9048 70.7514 51.098 70.8224C51.2912 70.8906 51.4688 70.946 51.6307 70.9886L52.517 71.2273C52.7443 71.2869 52.9972 71.3693 53.2756 71.4744C53.5568 71.5795 53.8253 71.723 54.081 71.9048C54.3395 72.0838 54.5526 72.3139 54.7202 72.5952C54.8878 72.8764 54.9716 73.2216 54.9716 73.6307C54.9716 74.1023 54.848 74.5284 54.6009 74.9091C54.3565 75.2898 53.9986 75.5923 53.527 75.8168C53.0582 76.0412 52.4886 76.1534 51.8182 76.1534C51.1932 76.1534 50.652 76.0526 50.1946 75.8509C49.7401 75.6491 49.3821 75.3679 49.1207 75.0071C48.8622 74.6463 48.7159 74.2273 48.6818 73.75H49.7727C49.8011 74.0795 49.9119 74.3523 50.1051 74.5682C50.3011 74.7812 50.5483 74.9403 50.8466 75.0455C51.1477 75.1477 51.4716 75.1989 51.8182 75.1989C52.2216 75.1989 52.5838 75.1335 52.9048 75.0028C53.2259 74.8693 53.4801 74.6847 53.6676 74.4489C53.8551 74.2102 53.9489 73.9318 53.9489 73.6136C53.9489 73.3239 53.8679 73.0881 53.706 72.9062C53.544 72.7244 53.331 72.5767 53.0668 72.4631C52.8026 72.3494 52.517 72.25 52.2102 72.1648L51.1364 71.858C50.4545 71.6619 49.9148 71.3821 49.517 71.0185C49.1193 70.6548 48.9205 70.179 48.9205 69.5909C48.9205 69.1023 49.0526 68.6761 49.3168 68.3125C49.5838 67.946 49.9418 67.6619 50.3906 67.4602C50.8423 67.2557 51.3466 67.1534 51.9034 67.1534C52.4659 67.1534 52.9659 67.2543 53.4034 67.456C53.8409 67.6548 54.1875 67.9276 54.4432 68.2741C54.7017 68.6207 54.8381 69.0142 54.8523 69.4545H53.8295ZM59.6839 67.2727V76H58.6271V68.3807H58.576L56.4453 69.7955V68.7216L58.6271 67.2727H59.6839ZM65.1005 76.1193C64.4584 76.1193 63.9115 75.9446 63.4598 75.5952C63.0081 75.2429 62.663 74.733 62.4243 74.0653C62.1857 73.3949 62.0664 72.5852 62.0664 71.6364C62.0664 70.6932 62.1857 69.8878 62.4243 69.2202C62.6658 68.5497 63.0124 68.0384 63.4641 67.6861C63.9187 67.331 64.4641 67.1534 65.1005 67.1534C65.7368 67.1534 66.2809 67.331 66.7326 67.6861C67.1871 68.0384 67.5337 68.5497 67.7723 69.2202C68.0138 69.8878 68.1346 70.6932 68.1346 71.6364C68.1346 72.5852 68.0152 73.3949 67.7766 74.0653C67.538 74.733 67.1928 75.2429 66.7411 75.5952C66.2894 75.9446 65.7425 76.1193 65.1005 76.1193ZM65.1005 75.1818C65.7368 75.1818 66.2312 74.875 66.5834 74.2614C66.9357 73.6477 67.1118 72.7727 67.1118 71.6364C67.1118 70.8807 67.0309 70.2372 66.8689 69.706C66.7098 69.1747 66.4797 68.7699 66.1786 68.4915C65.8803 68.2131 65.5209 68.0739 65.1005 68.0739C64.4698 68.0739 63.9769 68.3849 63.6218 69.0071C63.2667 69.6264 63.0891 70.5028 63.0891 71.6364C63.0891 72.392 63.1687 73.0341 63.3277 73.5625C63.4868 74.0909 63.7155 74.4929 64.0138 74.7685C64.315 75.044 64.6772 75.1818 65.1005 75.1818ZM49.858 89.6136L49.8409 88.3693H50.0455L52.9091 85.4545H54.1534L51.1023 88.5398H51.017L49.858 89.6136ZM48.9205 92V83.2727H49.9261V92H48.9205ZM53.0795 92L50.5227 88.7614L51.2386 88.0625L54.358 92H53.0795Z" fill="#717184"/>
<path d="M51.4773 141.091V130.182H52.1761V141.091H51.4773ZM53.8295 133.455C53.7784 133.023 53.571 132.688 53.2074 132.449C52.8438 132.21 52.3977 132.091 51.8693 132.091C51.483 132.091 51.1449 132.153 50.8551 132.278C50.5682 132.403 50.3438 132.575 50.1818 132.794C50.0227 133.013 49.9432 133.261 49.9432 133.54C49.9432 133.773 49.9986 133.973 50.1094 134.141C50.223 134.305 50.3679 134.443 50.544 134.554C50.7202 134.662 50.9048 134.751 51.098 134.822C51.2912 134.891 51.4688 134.946 51.6307 134.989L52.517 135.227C52.7443 135.287 52.9972 135.369 53.2756 135.474C53.5568 135.58 53.8253 135.723 54.081 135.905C54.3395 136.084 54.5526 136.314 54.7202 136.595C54.8878 136.876 54.9716 137.222 54.9716 137.631C54.9716 138.102 54.848 138.528 54.6009 138.909C54.3565 139.29 53.9986 139.592 53.527 139.817C53.0582 140.041 52.4886 140.153 51.8182 140.153C51.1932 140.153 50.652 140.053 50.1946 139.851C49.7401 139.649 49.3821 139.368 49.1207 139.007C48.8622 138.646 48.7159 138.227 48.6818 137.75H49.7727C49.8011 138.08 49.9119 138.352 50.1051 138.568C50.3011 138.781 50.5483 138.94 50.8466 139.045C51.1477 139.148 51.4716 139.199 51.8182 139.199C52.2216 139.199 52.5838 139.134 52.9048 139.003C53.2259 138.869 53.4801 138.685 53.6676 138.449C53.8551 138.21 53.9489 137.932 53.9489 137.614C53.9489 137.324 53.8679 137.088 53.706 136.906C53.544 136.724 53.331 136.577 53.0668 136.463C52.8026 136.349 52.517 136.25 52.2102 136.165L51.1364 135.858C50.4545 135.662 49.9148 135.382 49.517 135.018C49.1193 134.655 48.9205 134.179 48.9205 133.591C48.9205 133.102 49.0526 132.676 49.3168 132.312C49.5838 131.946 49.9418 131.662 50.3906 131.46C50.8423 131.256 51.3466 131.153 51.9034 131.153C52.4659 131.153 52.9659 131.254 53.4034 131.456C53.8409 131.655 54.1875 131.928 54.4432 132.274C54.7017 132.621 54.8381 133.014 54.8523 133.455H53.8295ZM59.4112 140.119C58.826 140.119 58.3089 140.016 57.8601 139.808C57.414 139.598 57.066 139.31 56.816 138.943C56.566 138.574 56.4425 138.153 56.4453 137.682C56.4425 137.312 56.5149 136.972 56.6626 136.659C56.8104 136.344 57.0121 136.081 57.2677 135.871C57.5263 135.658 57.8146 135.523 58.1328 135.466V135.415C57.7152 135.307 57.3828 135.072 57.1356 134.712C56.8885 134.348 56.7663 133.935 56.7692 133.472C56.7663 133.028 56.8785 132.632 57.1058 132.283C57.3331 131.933 57.6456 131.658 58.0433 131.456C58.4439 131.254 58.8998 131.153 59.4112 131.153C59.9169 131.153 60.3686 131.254 60.7663 131.456C61.164 131.658 61.4765 131.933 61.7038 132.283C61.9339 132.632 62.0504 133.028 62.0533 133.472C62.0504 133.935 61.924 134.348 61.674 134.712C61.4268 135.072 61.0987 135.307 60.6896 135.415V135.466C61.005 135.523 61.289 135.658 61.5419 135.871C61.7947 136.081 61.9964 136.344 62.147 136.659C62.2976 136.972 62.3743 137.312 62.3771 137.682C62.3743 138.153 62.2464 138.574 61.9936 138.943C61.7436 139.31 61.3956 139.598 60.9496 139.808C60.5064 140.016 59.9936 140.119 59.4112 140.119ZM59.4112 139.182C59.8061 139.182 60.147 139.118 60.4339 138.99C60.7209 138.862 60.9425 138.682 61.0987 138.449C61.255 138.216 61.3345 137.943 61.3373 137.631C61.3345 137.301 61.2493 137.01 61.0817 136.757C60.914 136.504 60.6854 136.305 60.3956 136.161C60.1087 136.016 59.7805 135.943 59.4112 135.943C59.039 135.943 58.7067 136.016 58.414 136.161C58.1243 136.305 57.8956 136.504 57.728 136.757C57.5632 137.01 57.4822 137.301 57.4851 137.631C57.4822 137.943 57.5575 138.216 57.7109 138.449C57.8672 138.682 58.0902 138.862 58.38 138.99C58.6697 139.118 59.0135 139.182 59.4112 139.182ZM59.4112 135.04C59.7237 135.04 60.0007 134.977 60.2422 134.852C60.4865 134.727 60.6783 134.553 60.8175 134.328C60.9567 134.104 61.0277 133.841 61.0305 133.54C61.0277 133.244 60.9581 132.987 60.8217 132.768C60.6854 132.547 60.4964 132.376 60.255 132.257C60.0135 132.135 59.7322 132.074 59.4112 132.074C59.0845 132.074 58.799 132.135 58.5547 132.257C58.3104 132.376 58.1214 132.547 57.9879 132.768C57.8544 132.987 57.789 133.244 57.7919 133.54C57.789 133.841 57.8558 134.104 57.9922 134.328C58.1314 134.553 58.3231 134.727 58.5675 134.852C58.8118 134.977 59.093 135.04 59.4112 135.04ZM65.0248 137.614L65.0078 136.369H65.2123L68.076 133.455H69.3203L66.2691 136.54H66.1839L65.0248 137.614ZM64.0873 140V131.273H65.093V140H64.0873ZM68.2464 140L65.6896 136.761L66.4055 136.062L69.5248 140H68.2464Z" fill="#717184"/>
<path d="M51.4773 189.091V178.182H52.1761V189.091H51.4773ZM53.8295 181.455C53.7784 181.023 53.571 180.688 53.2074 180.449C52.8438 180.21 52.3977 180.091 51.8693 180.091C51.483 180.091 51.1449 180.153 50.8551 180.278C50.5682 180.403 50.3438 180.575 50.1818 180.794C50.0227 181.013 49.9432 181.261 49.9432 181.54C49.9432 181.773 49.9986 181.973 50.1094 182.141C50.223 182.305 50.3679 182.443 50.544 182.554C50.7202 182.662 50.9048 182.751 51.098 182.822C51.2912 182.891 51.4688 182.946 51.6307 182.989L52.517 183.227C52.7443 183.287 52.9972 183.369 53.2756 183.474C53.5568 183.58 53.8253 183.723 54.081 183.905C54.3395 184.084 54.5526 184.314 54.7202 184.595C54.8878 184.876 54.9716 185.222 54.9716 185.631C54.9716 186.102 54.848 186.528 54.6009 186.909C54.3565 187.29 53.9986 187.592 53.527 187.817C53.0582 188.041 52.4886 188.153 51.8182 188.153C51.1932 188.153 50.652 188.053 50.1946 187.851C49.7401 187.649 49.3821 187.368 49.1207 187.007C48.8622 186.646 48.7159 186.227 48.6818 185.75H49.7727C49.8011 186.08 49.9119 186.352 50.1051 186.568C50.3011 186.781 50.5483 186.94 50.8466 187.045C51.1477 187.148 51.4716 187.199 51.8182 187.199C52.2216 187.199 52.5838 187.134 52.9048 187.003C53.2259 186.869 53.4801 186.685 53.6676 186.449C53.8551 186.21 53.9489 185.932 53.9489 185.614C53.9489 185.324 53.8679 185.088 53.706 184.906C53.544 184.724 53.331 184.577 53.0668 184.463C52.8026 184.349 52.517 184.25 52.2102 184.165L51.1364 183.858C50.4545 183.662 49.9148 183.382 49.517 183.018C49.1193 182.655 48.9205 182.179 48.9205 181.591C48.9205 181.102 49.0526 180.676 49.3168 180.312C49.5838 179.946 49.9418 179.662 50.3906 179.46C50.8423 179.256 51.3466 179.153 51.9034 179.153C52.4659 179.153 52.9659 179.254 53.4034 179.456C53.8409 179.655 54.1875 179.928 54.4432 180.274C54.7017 180.621 54.8381 181.014 54.8523 181.455H53.8295ZM59.5135 188.119C59.1555 188.114 58.7976 188.045 58.4396 187.915C58.0817 187.784 57.755 187.564 57.4595 187.254C57.164 186.942 56.9268 186.52 56.7479 185.989C56.5689 185.455 56.4794 184.784 56.4794 183.977C56.4794 183.205 56.5518 182.52 56.6967 181.923C56.8416 181.324 57.0518 180.82 57.3274 180.411C57.603 179.999 57.9354 179.686 58.3246 179.473C58.7166 179.26 59.1584 179.153 59.6498 179.153C60.1385 179.153 60.5731 179.251 60.9538 179.447C61.3373 179.641 61.6498 179.911 61.8913 180.257C62.1328 180.604 62.289 181.003 62.3601 181.455H61.3203C61.2237 181.062 61.0362 180.737 60.7578 180.479C60.4794 180.22 60.1101 180.091 59.6498 180.091C58.9737 180.091 58.441 180.385 58.0518 180.973C57.6655 181.561 57.4709 182.386 57.468 183.449H57.5362C57.6953 183.207 57.8842 183.001 58.103 182.831C58.3246 182.658 58.5689 182.524 58.8359 182.43C59.103 182.337 59.3856 182.29 59.6839 182.29C60.1839 182.29 60.6413 182.415 61.0561 182.665C61.4709 182.912 61.8033 183.254 62.0533 183.692C62.3033 184.126 62.4283 184.625 62.4283 185.188C62.4283 185.727 62.3075 186.222 62.066 186.67C61.8246 187.116 61.4851 187.472 61.0476 187.736C60.6129 187.997 60.1015 188.125 59.5135 188.119ZM59.5135 187.182C59.8714 187.182 60.1925 187.092 60.4765 186.913C60.7635 186.734 60.9893 186.494 61.1541 186.193C61.3217 185.892 61.4055 185.557 61.4055 185.188C61.4055 184.827 61.3246 184.499 61.1626 184.203C61.0035 183.905 60.7834 183.668 60.5021 183.491C60.2237 183.315 59.9055 183.227 59.5476 183.227C59.2777 183.227 59.0263 183.281 58.7933 183.389C58.5604 183.494 58.3558 183.639 58.1797 183.824C58.0064 184.009 57.87 184.22 57.7706 184.459C57.6712 184.695 57.6214 184.943 57.6214 185.205C57.6214 185.551 57.7024 185.875 57.8643 186.176C58.0291 186.477 58.2535 186.72 58.5376 186.905C58.8246 187.089 59.1498 187.182 59.5135 187.182ZM65.1186 185.614L65.1015 184.369H65.3061L68.1697 181.455H69.414L66.3629 184.54H66.2777L65.1186 185.614ZM64.1811 188V179.273H65.1868V188H64.1811ZM68.3402 188L65.7834 184.761L66.4993 184.062L69.6186 188H68.3402Z" fill="#717184"/>
<path d="M51.4773 237.091V226.182H52.1761V237.091H51.4773ZM53.8295 229.455C53.7784 229.023 53.571 228.688 53.2074 228.449C52.8438 228.21 52.3977 228.091 51.8693 228.091C51.483 228.091 51.1449 228.153 50.8551 228.278C50.5682 228.403 50.3438 228.575 50.1818 228.794C50.0227 229.013 49.9432 229.261 49.9432 229.54C49.9432 229.773 49.9986 229.973 50.1094 230.141C50.223 230.305 50.3679 230.443 50.544 230.554C50.7202 230.662 50.9048 230.751 51.098 230.822C51.2912 230.891 51.4688 230.946 51.6307 230.989L52.517 231.227C52.7443 231.287 52.9972 231.369 53.2756 231.474C53.5568 231.58 53.8253 231.723 54.081 231.905C54.3395 232.084 54.5526 232.314 54.7202 232.595C54.8878 232.876 54.9716 233.222 54.9716 233.631C54.9716 234.102 54.848 234.528 54.6009 234.909C54.3565 235.29 53.9986 235.592 53.527 235.817C53.0582 236.041 52.4886 236.153 51.8182 236.153C51.1932 236.153 50.652 236.053 50.1946 235.851C49.7401 235.649 49.3821 235.368 49.1207 235.007C48.8622 234.646 48.7159 234.227 48.6818 233.75H49.7727C49.8011 234.08 49.9119 234.352 50.1051 234.568C50.3011 234.781 50.5483 234.94 50.8466 235.045C51.1477 235.148 51.4716 235.199 51.8182 235.199C52.2216 235.199 52.5838 235.134 52.9048 235.003C53.2259 234.869 53.4801 234.685 53.6676 234.449C53.8551 234.21 53.9489 233.932 53.9489 233.614C53.9489 233.324 53.8679 233.088 53.706 232.906C53.544 232.724 53.331 232.577 53.0668 232.463C52.8026 232.349 52.517 232.25 52.2102 232.165L51.1364 231.858C50.4545 231.662 49.9148 231.382 49.517 231.018C49.1193 230.655 48.9205 230.179 48.9205 229.591C48.9205 229.102 49.0526 228.676 49.3168 228.312C49.5838 227.946 49.9418 227.662 50.3906 227.46C50.8423 227.256 51.3466 227.153 51.9034 227.153C52.4659 227.153 52.9659 227.254 53.4034 227.456C53.8409 227.655 54.1875 227.928 54.4432 228.274C54.7017 228.621 54.8381 229.014 54.8523 229.455H53.8295ZM56.4112 234.21V233.341L60.2464 227.273H60.8771V228.619H60.451L57.5533 233.205V233.273H62.718V234.21H56.4112ZM60.5192 236V233.946V233.541V227.273H61.5248V236H60.5192ZM65.3295 233.614L65.3125 232.369H65.517L68.3807 229.455H69.625L66.5738 232.54H66.4886L65.3295 233.614ZM64.392 236V227.273H65.3977V236H64.392ZM68.5511 236L65.9943 232.761L66.7102 232.062L69.8295 236H68.5511Z" fill="#717184"/>
<g filter="url(#filter0_d_37_212)">
<rect x="130" y="48" width="132" height="80" rx="8" fill="#FF6E00"/>
<rect opacity="0.1" x="142" y="84" width="108" height="32" rx="6" fill="white"/>
<circle cx="158" cy="100" r="8" fill="#F7DF27"/>
<g clip-path="url(#clip0_37_212)">
<path d="M160.112 101.146C160.112 99.9535 159.271 99.6115 158.362 99.419L157.88 99.3214C157.167 99.1812 157.112 98.9745 157.112 98.6977C157.112 98.3386 157.436 98.124 157.978 98.124C158.62 98.124 158.784 98.4465 158.852 98.6887L158.859 98.7089C158.94 98.9201 159.127 99.0461 159.361 99.0461C159.422 99.0461 159.477 99.0369 159.517 99.0286C159.769 98.9786 159.944 98.7786 159.944 98.5417C159.944 98.483 159.933 98.4247 159.912 98.3681C159.783 97.9541 159.421 97.3025 158.419 97.1537V96.4437C158.419 95.8524 157.492 95.8524 157.492 96.4437V97.158C156.416 97.3265 156.019 98.059 156.019 98.6975C156.019 99.8592 156.828 100.183 157.618 100.346L158.14 100.457C158.882 100.608 159.013 100.801 159.013 101.152C159.013 101.581 158.651 101.836 158.043 101.836C157.255 101.836 157.094 101.481 156.986 101.083C156.924 100.862 156.724 100.72 156.478 100.72C156.425 100.72 156.382 100.727 156.33 100.736L156.314 100.739C156.06 100.799 155.889 100.999 155.889 101.237C155.889 101.282 155.897 101.32 155.904 101.351L155.912 101.387C156.026 101.773 156.279 102.618 157.538 102.806V103.549C157.538 103.845 157.771 104 158.001 104C158.231 104 158.464 103.845 158.464 103.549V102.819C159.464 102.689 160.113 102.05 160.113 101.146" fill="#FF6E00"/>
</g>
<path d="M178.121 106.273V93.5455H178.937V106.273H178.121ZM180.672 97.4929C180.619 97.0223 180.4 96.6577 180.016 96.3991C179.631 96.1373 179.147 96.0064 178.564 96.0064C178.146 96.0064 177.785 96.0727 177.48 96.2053C177.175 96.3345 176.938 96.5135 176.769 96.7422C176.603 96.9676 176.521 97.2244 176.521 97.5128C176.521 97.7547 176.577 97.9635 176.69 98.1392C176.806 98.3149 176.956 98.4624 177.142 98.5817C177.331 98.6977 177.533 98.7955 177.749 98.875C177.964 98.9512 178.171 99.0142 178.37 99.0639L179.364 99.3224C179.689 99.402 180.022 99.5097 180.364 99.6456C180.705 99.7815 181.022 99.9605 181.313 100.183C181.605 100.405 181.84 100.68 182.019 101.008C182.201 101.336 182.293 101.729 182.293 102.186C182.293 102.763 182.143 103.275 181.845 103.722C181.55 104.17 181.121 104.523 180.558 104.781C179.997 105.04 179.32 105.169 178.524 105.169C177.762 105.169 177.102 105.048 176.545 104.806C175.989 104.564 175.553 104.221 175.238 103.777C174.923 103.33 174.749 102.799 174.716 102.186H176.257C176.287 102.554 176.406 102.861 176.615 103.106C176.827 103.348 177.097 103.528 177.425 103.648C177.757 103.764 178.12 103.822 178.514 103.822C178.948 103.822 179.335 103.754 179.673 103.618C180.014 103.479 180.282 103.286 180.478 103.041C180.674 102.793 180.771 102.503 180.771 102.171C180.771 101.87 180.685 101.623 180.513 101.43C180.344 101.238 180.113 101.079 179.822 100.953C179.533 100.827 179.207 100.716 178.842 100.62L177.639 100.292C176.824 100.07 176.178 99.7434 175.7 99.3125C175.226 98.8816 174.989 98.3116 174.989 97.6023C174.989 97.0156 175.148 96.5036 175.467 96.0661C175.785 95.6286 176.216 95.2888 176.759 95.0469C177.303 94.8016 177.916 94.679 178.599 94.679C179.288 94.679 179.896 94.8 180.423 95.0419C180.954 95.2839 181.371 95.617 181.676 96.0412C181.981 96.4621 182.14 96.946 182.153 97.4929H180.672ZM187.35 105.139C186.727 105.139 186.167 105.02 185.67 104.781C185.176 104.539 184.781 104.208 184.486 103.787C184.191 103.366 184.034 102.885 184.014 102.345H185.506C185.542 102.783 185.736 103.142 186.087 103.424C186.439 103.706 186.859 103.847 187.35 103.847C187.741 103.847 188.087 103.757 188.389 103.578C188.694 103.396 188.933 103.146 189.105 102.827C189.281 102.509 189.368 102.146 189.368 101.739C189.368 101.324 189.279 100.955 189.1 100.63C188.921 100.305 188.674 100.05 188.359 99.8643C188.048 99.6787 187.69 99.5843 187.285 99.581C186.977 99.581 186.667 99.634 186.356 99.7401C186.044 99.8461 185.792 99.9853 185.6 100.158L184.193 99.9489L184.765 94.8182H190.363V96.1357H186.042L185.719 98.9844H185.779C185.978 98.7921 186.241 98.6314 186.569 98.5021C186.901 98.3729 187.256 98.3082 187.633 98.3082C188.253 98.3082 188.805 98.4557 189.289 98.7507C189.776 99.0457 190.159 99.4484 190.437 99.9588C190.719 100.466 190.858 101.049 190.855 101.709C190.858 102.368 190.709 102.957 190.407 103.474C190.109 103.991 189.695 104.398 189.165 104.697C188.638 104.992 188.033 105.139 187.35 105.139ZM194.256 103.608L194.181 104.15C194.131 104.548 194.047 104.962 193.927 105.393C193.811 105.827 193.69 106.23 193.564 106.601C193.442 106.972 193.341 107.267 193.261 107.486H192.207C192.25 107.28 192.31 107.002 192.386 106.651C192.462 106.303 192.537 105.913 192.61 105.482C192.683 105.051 192.738 104.612 192.774 104.165L192.824 103.608H194.256ZM174.979 125V123.886L178.425 120.317C178.793 119.929 179.096 119.589 179.335 119.298C179.576 119.003 179.757 118.723 179.876 118.457C179.996 118.192 180.055 117.911 180.055 117.612C180.055 117.274 179.976 116.982 179.817 116.737C179.658 116.489 179.441 116.298 179.165 116.165C178.89 116.03 178.58 115.962 178.236 115.962C177.871 115.962 177.553 116.036 177.281 116.185C177.009 116.335 176.801 116.545 176.655 116.817C176.509 117.089 176.436 117.407 176.436 117.771H174.969C174.969 117.152 175.112 116.61 175.397 116.146C175.682 115.682 176.073 115.322 176.57 115.067C177.067 114.808 177.633 114.679 178.266 114.679C178.905 114.679 179.469 114.807 179.956 115.062C180.446 115.314 180.829 115.658 181.104 116.096C181.379 116.53 181.517 117.021 181.517 117.567C181.517 117.945 181.446 118.315 181.303 118.676C181.164 119.037 180.92 119.44 180.572 119.884C180.224 120.325 179.741 120.86 179.121 121.49L177.097 123.608V123.683H181.681V125H174.979ZM187.12 125.139C186.666 125.133 186.219 125.05 185.778 124.891C185.34 124.732 184.942 124.466 184.585 124.095C184.227 123.724 183.94 123.225 183.724 122.599C183.512 121.972 183.406 121.19 183.406 120.252C183.406 119.364 183.494 118.575 183.67 117.886C183.849 117.196 184.106 116.615 184.44 116.141C184.775 115.663 185.179 115.3 185.653 115.052C186.127 114.803 186.659 114.679 187.249 114.679C187.856 114.679 188.394 114.798 188.865 115.037C189.336 115.276 189.717 115.605 190.009 116.026C190.304 116.447 190.491 116.926 190.57 117.463H189.054C188.951 117.039 188.747 116.692 188.442 116.424C188.138 116.156 187.74 116.021 187.249 116.021C186.504 116.021 185.922 116.346 185.504 116.996C185.09 117.645 184.881 118.549 184.878 119.705H184.952C185.128 119.417 185.344 119.172 185.599 118.969C185.857 118.764 186.146 118.607 186.464 118.497C186.785 118.384 187.123 118.328 187.478 118.328C188.068 118.328 188.602 118.472 189.079 118.761C189.559 119.046 189.942 119.44 190.227 119.944C190.512 120.448 190.655 121.024 190.655 121.674C190.655 122.324 190.507 122.912 190.212 123.439C189.921 123.966 189.51 124.384 188.979 124.692C188.449 124.997 187.829 125.146 187.12 125.139ZM187.115 123.847C187.506 123.847 187.856 123.75 188.164 123.558C188.472 123.366 188.716 123.107 188.895 122.783C189.074 122.458 189.163 122.095 189.163 121.694C189.163 121.303 189.076 120.946 188.9 120.625C188.728 120.304 188.489 120.048 188.184 119.859C187.882 119.67 187.538 119.576 187.15 119.576C186.855 119.576 186.581 119.632 186.33 119.745C186.081 119.858 185.862 120.013 185.673 120.212C185.484 120.411 185.335 120.64 185.226 120.898C185.12 121.154 185.067 121.424 185.067 121.709C185.067 122.09 185.155 122.443 185.33 122.768C185.509 123.093 185.753 123.354 186.061 123.553C186.373 123.749 186.724 123.847 187.115 123.847ZM196.01 125.169C195.225 125.166 194.554 124.959 193.997 124.548C193.44 124.137 193.014 123.538 192.719 122.753C192.424 121.967 192.277 121.021 192.277 119.914C192.277 118.81 192.424 117.867 192.719 117.085C193.018 116.303 193.445 115.706 194.002 115.295C194.562 114.884 195.232 114.679 196.01 114.679C196.789 114.679 197.457 114.886 198.014 115.3C198.571 115.711 198.997 116.308 199.292 117.09C199.59 117.869 199.739 118.81 199.739 119.914C199.739 121.024 199.592 121.972 199.297 122.758C199.002 123.54 198.576 124.138 198.019 124.553C197.462 124.964 196.793 125.169 196.01 125.169ZM196.01 123.842C196.7 123.842 197.238 123.505 197.626 122.832C198.017 122.16 198.213 121.187 198.213 119.914C198.213 119.069 198.123 118.355 197.944 117.771C197.769 117.185 197.515 116.741 197.184 116.439C196.856 116.134 196.465 115.982 196.01 115.982C195.324 115.982 194.786 116.32 194.395 116.996C194.004 117.672 193.806 118.645 193.803 119.914C193.803 120.763 193.891 121.48 194.067 122.067C194.246 122.65 194.499 123.093 194.827 123.394C195.155 123.692 195.55 123.842 196.01 123.842Z" fill="white"/>
<path d="M143.057 72V63.2727H146.006C146.69 63.2727 147.25 63.3963 147.685 63.6435C148.122 63.8878 148.446 64.2188 148.656 64.6364C148.866 65.054 148.972 65.5199 148.972 66.0341C148.972 66.5483 148.866 67.0156 148.656 67.4361C148.449 67.8565 148.128 68.1918 147.693 68.4418C147.259 68.6889 146.702 68.8125 146.023 68.8125H143.909V67.875H145.989C146.457 67.875 146.834 67.794 147.118 67.6321C147.402 67.4702 147.608 67.2514 147.736 66.9759C147.866 66.6974 147.932 66.3835 147.932 66.0341C147.932 65.6847 147.866 65.3722 147.736 65.0966C147.608 64.821 147.401 64.6051 147.114 64.4489C146.827 64.2898 146.446 64.2102 145.972 64.2102H144.114V72H143.057ZM153.186 72.1364C152.596 72.1364 152.077 71.9957 151.631 71.7145C151.188 71.4332 150.841 71.0398 150.591 70.5341C150.344 70.0284 150.221 69.4375 150.221 68.7614C150.221 68.0795 150.344 67.4844 150.591 66.9759C150.841 66.4673 151.188 66.0724 151.631 65.7912C152.077 65.5099 152.596 65.3693 153.186 65.3693C153.777 65.3693 154.294 65.5099 154.738 65.7912C155.184 66.0724 155.53 66.4673 155.777 66.9759C156.027 67.4844 156.152 68.0795 156.152 68.7614C156.152 69.4375 156.027 70.0284 155.777 70.5341C155.53 71.0398 155.184 71.4332 154.738 71.7145C154.294 71.9957 153.777 72.1364 153.186 72.1364ZM153.186 71.233C153.635 71.233 154.005 71.1179 154.294 70.8878C154.584 70.6577 154.799 70.3551 154.938 69.9801C155.077 69.6051 155.147 69.1989 155.147 68.7614C155.147 68.3239 155.077 67.9162 154.938 67.5384C154.799 67.1605 154.584 66.8551 154.294 66.6222C154.005 66.3892 153.635 66.2727 153.186 66.2727C152.738 66.2727 152.368 66.3892 152.078 66.6222C151.789 66.8551 151.574 67.1605 151.435 67.5384C151.296 67.9162 151.226 68.3239 151.226 68.7614C151.226 69.1989 151.296 69.6051 151.435 69.9801C151.574 70.3551 151.789 70.6577 152.078 70.8878C152.368 71.1179 152.738 71.233 153.186 71.233ZM157.747 72V65.4545H158.719V66.4432H158.787C158.907 66.1193 159.122 65.8565 159.435 65.6548C159.747 65.4531 160.1 65.3523 160.492 65.3523C160.566 65.3523 160.658 65.3537 160.769 65.3565C160.88 65.3594 160.963 65.3636 161.02 65.3693V66.392C160.986 66.3835 160.908 66.3707 160.786 66.3537C160.667 66.3338 160.54 66.3239 160.407 66.3239C160.088 66.3239 159.804 66.3906 159.554 66.5241C159.307 66.6548 159.111 66.8366 158.966 67.0696C158.824 67.2997 158.753 67.5625 158.753 67.858V72H157.747ZM165.529 65.4545V66.3068H162.137V65.4545H165.529ZM163.126 63.8864H164.131V70.125C164.131 70.4091 164.173 70.6222 164.255 70.7642C164.34 70.9034 164.448 70.9972 164.579 71.0455C164.712 71.0909 164.853 71.1136 165.001 71.1136C165.111 71.1136 165.202 71.108 165.273 71.0966C165.344 71.0824 165.401 71.071 165.444 71.0625L165.648 71.9659C165.58 71.9915 165.485 72.017 165.363 72.0426C165.241 72.071 165.086 72.0852 164.898 72.0852C164.614 72.0852 164.336 72.0241 164.063 71.902C163.793 71.7798 163.569 71.5938 163.39 71.3438C163.214 71.0938 163.126 70.7784 163.126 70.3977V63.8864ZM170.017 65.4545V66.3068H166.488V65.4545H170.017ZM167.545 72V64.5511C167.545 64.1761 167.633 63.8636 167.809 63.6136C167.985 63.3636 168.214 63.1761 168.495 63.0511C168.777 62.9261 169.073 62.8636 169.386 62.8636C169.633 62.8636 169.835 62.8835 169.991 62.9233C170.147 62.9631 170.264 63 170.34 63.0341L170.051 63.9034C170 63.8864 169.929 63.8651 169.838 63.8395C169.75 63.8139 169.633 63.8011 169.488 63.8011C169.156 63.8011 168.916 63.8849 168.768 64.0526C168.623 64.2202 168.551 64.4659 168.551 64.7898V72H167.545ZM173.876 72.1364C173.285 72.1364 172.766 71.9957 172.32 71.7145C171.877 71.4332 171.53 71.0398 171.28 70.5341C171.033 70.0284 170.91 69.4375 170.91 68.7614C170.91 68.0795 171.033 67.4844 171.28 66.9759C171.53 66.4673 171.877 66.0724 172.32 65.7912C172.766 65.5099 173.285 65.3693 173.876 65.3693C174.467 65.3693 174.984 65.5099 175.427 65.7912C175.873 66.0724 176.219 66.4673 176.467 66.9759C176.717 67.4844 176.842 68.0795 176.842 68.7614C176.842 69.4375 176.717 70.0284 176.467 70.5341C176.219 71.0398 175.873 71.4332 175.427 71.7145C174.984 71.9957 174.467 72.1364 173.876 72.1364ZM173.876 71.233C174.325 71.233 174.694 71.1179 174.984 70.8878C175.273 70.6577 175.488 70.3551 175.627 69.9801C175.766 69.6051 175.836 69.1989 175.836 68.7614C175.836 68.3239 175.766 67.9162 175.627 67.5384C175.488 67.1605 175.273 66.8551 174.984 66.6222C174.694 66.3892 174.325 66.2727 173.876 66.2727C173.427 66.2727 173.057 66.3892 172.768 66.6222C172.478 66.8551 172.263 67.1605 172.124 67.5384C171.985 67.9162 171.915 68.3239 171.915 68.7614C171.915 69.1989 171.985 69.6051 172.124 69.9801C172.263 70.3551 172.478 70.6577 172.768 70.8878C173.057 71.1179 173.427 71.233 173.876 71.233ZM179.442 63.2727V72H178.437V63.2727H179.442ZM181.344 72V65.4545H182.35V72H181.344ZM181.856 64.3636C181.66 64.3636 181.491 64.2969 181.349 64.1634C181.209 64.0298 181.14 63.8693 181.14 63.6818C181.14 63.4943 181.209 63.3338 181.349 63.2003C181.491 63.0668 181.66 63 181.856 63C182.052 63 182.219 63.0668 182.359 63.2003C182.501 63.3338 182.572 63.4943 182.572 63.6818C182.572 63.8693 182.501 64.0298 182.359 64.1634C182.219 64.2969 182.052 64.3636 181.856 64.3636ZM186.911 72.1364C186.32 72.1364 185.802 71.9957 185.356 71.7145C184.913 71.4332 184.566 71.0398 184.316 70.5341C184.069 70.0284 183.945 69.4375 183.945 68.7614C183.945 68.0795 184.069 67.4844 184.316 66.9759C184.566 66.4673 184.913 66.0724 185.356 65.7912C185.802 65.5099 186.32 65.3693 186.911 65.3693C187.502 65.3693 188.019 65.5099 188.462 65.7912C188.908 66.0724 189.255 66.4673 189.502 66.9759C189.752 67.4844 189.877 68.0795 189.877 68.7614C189.877 69.4375 189.752 70.0284 189.502 70.5341C189.255 71.0398 188.908 71.4332 188.462 71.7145C188.019 71.9957 187.502 72.1364 186.911 72.1364ZM186.911 71.233C187.36 71.233 187.729 71.1179 188.019 70.8878C188.309 70.6577 188.523 70.3551 188.663 69.9801C188.802 69.6051 188.871 69.1989 188.871 68.7614C188.871 68.3239 188.802 67.9162 188.663 67.5384C188.523 67.1605 188.309 66.8551 188.019 66.6222C187.729 66.3892 187.36 66.2727 186.911 66.2727C186.462 66.2727 186.093 66.3892 185.803 66.6222C185.513 66.8551 185.299 67.1605 185.16 67.5384C185.02 67.9162 184.951 68.3239 184.951 68.7614C184.951 69.1989 185.02 69.6051 185.16 69.9801C185.299 70.3551 185.513 70.6577 185.803 70.8878C186.093 71.1179 186.462 71.233 186.911 71.233ZM143.415 79.2727L146.006 86.6193H146.108L148.699 79.2727H149.807L146.602 88H145.511L142.307 79.2727H143.415ZM152.407 88.1534C151.992 88.1534 151.615 88.0753 151.277 87.919C150.939 87.7599 150.671 87.5312 150.472 87.233C150.273 86.9318 150.174 86.5682 150.174 86.142C150.174 85.767 150.247 85.4631 150.395 85.2301C150.543 84.9943 150.74 84.8097 150.988 84.6761C151.235 84.5426 151.507 84.4432 151.806 84.3778C152.107 84.3097 152.409 84.2557 152.713 84.2159C153.111 84.1648 153.434 84.1264 153.681 84.1009C153.931 84.0724 154.113 84.0256 154.226 83.9602C154.343 83.8949 154.401 83.7812 154.401 83.6193V83.5852C154.401 83.1648 154.286 82.8381 154.056 82.6051C153.828 82.3722 153.483 82.2557 153.02 82.2557C152.54 82.2557 152.164 82.3608 151.891 82.571C151.618 82.7812 151.426 83.0057 151.316 83.2443L150.361 82.9034C150.532 82.5057 150.759 82.196 151.043 81.9744C151.33 81.75 151.642 81.5937 151.98 81.5057C152.321 81.4148 152.657 81.3693 152.986 81.3693C153.196 81.3693 153.438 81.3949 153.711 81.446C153.986 81.4943 154.252 81.5952 154.507 81.7486C154.766 81.902 154.98 82.1335 155.151 82.4432C155.321 82.7528 155.407 83.1676 155.407 83.6875V88H154.401V87.1136H154.35C154.282 87.2557 154.168 87.4077 154.009 87.5696C153.85 87.7315 153.638 87.8693 153.374 87.983C153.11 88.0966 152.787 88.1534 152.407 88.1534ZM152.56 87.25C152.958 87.25 153.293 87.1719 153.566 87.0156C153.841 86.8594 154.049 86.6577 154.188 86.4105C154.33 86.1634 154.401 85.9034 154.401 85.6307V84.7102C154.358 84.7614 154.265 84.8082 154.12 84.8509C153.978 84.8906 153.813 84.9261 153.625 84.9574C153.441 84.9858 153.26 85.0114 153.084 85.0341C152.911 85.054 152.77 85.071 152.662 85.0852C152.401 85.1193 152.157 85.1747 151.929 85.2514C151.705 85.3253 151.523 85.4375 151.384 85.5881C151.248 85.7358 151.179 85.9375 151.179 86.1932C151.179 86.5426 151.309 86.8068 151.567 86.9858C151.828 87.1619 152.159 87.25 152.56 87.25ZM158.308 79.2727V88H157.302V79.2727H158.308ZM164.335 85.3239V81.4545H165.341V88H164.335V86.892H164.267C164.113 87.2244 163.875 87.5071 163.551 87.7401C163.227 87.9702 162.818 88.0852 162.323 88.0852C161.914 88.0852 161.551 87.9957 161.233 87.8168C160.914 87.6349 160.664 87.3622 160.483 86.9986C160.301 86.6321 160.21 86.1705 160.21 85.6136V81.4545H161.216V85.5455C161.216 86.0227 161.349 86.4034 161.616 86.6875C161.886 86.9716 162.23 87.1136 162.647 87.1136C162.897 87.1136 163.152 87.0497 163.41 86.9219C163.671 86.794 163.89 86.598 164.066 86.3338C164.245 86.0696 164.335 85.733 164.335 85.3239ZM169.987 88.1364C169.356 88.1364 168.812 87.9972 168.355 87.7188C167.9 87.4375 167.549 87.0455 167.302 86.5426C167.058 86.0369 166.936 85.4489 166.936 84.7784C166.936 84.108 167.058 83.517 167.302 83.0057C167.549 82.4915 167.893 82.0909 168.333 81.804C168.777 81.5142 169.294 81.3693 169.885 81.3693C170.225 81.3693 170.562 81.4261 170.894 81.5398C171.227 81.6534 171.529 81.8381 171.802 82.0938C172.075 82.3466 172.292 82.6818 172.454 83.0994C172.616 83.517 172.697 84.0312 172.697 84.642V85.0682H167.652V84.1989H171.674C171.674 83.8295 171.6 83.5 171.453 83.2102C171.308 82.9205 171.1 82.6918 170.831 82.5241C170.564 82.3565 170.248 82.2727 169.885 82.2727C169.484 82.2727 169.137 82.3722 168.845 82.571C168.555 82.767 168.332 83.0227 168.176 83.3381C168.019 83.6534 167.941 83.9915 167.941 84.3523V84.9318C167.941 85.4261 168.027 85.8452 168.197 86.1889C168.37 86.5298 168.61 86.7898 168.917 86.9688C169.224 87.1449 169.581 87.233 169.987 87.233C170.251 87.233 170.49 87.196 170.703 87.1222C170.919 87.0455 171.105 86.9318 171.261 86.7812C171.417 86.6278 171.538 86.4375 171.623 86.2102L172.595 86.483C172.492 86.8125 172.321 87.1023 172.079 87.3523C171.838 87.5994 171.539 87.7926 171.184 87.9318C170.829 88.0682 170.43 88.1364 169.987 88.1364Z" fill="white"/>
</g>
<mask id="path-13-inside-1_37_212" fill="white">
<path d="M0 0H544V250H0V0Z"/>
</mask>
<path d="M0 0H544V250H0V0Z" fill="url(#paint1_radial_37_212)"/>
<path d="M0 0V-2H-2V0H0ZM544 0H546V-2H544V0ZM0 2H544V-2H0V2ZM542 0V250H546V0H542ZM2 250V0H-2V250H2Z" fill="#E3E3E8" mask="url(#path-13-inside-1_37_212)"/>
<defs>
<filter id="filter0_d_37_212" x="90" y="28" width="212" height="160" filterUnits="userSpaceOnUse" color-interpolation-filters="sRGB">
<feFlood flood-opacity="0" result="BackgroundImageFix"/>
<feColorMatrix in="SourceAlpha" type="matrix" values="0 0 0 0 0 0 0 0 0 0 0 0 0 0 0 0 0 0 127 0" result="hardAlpha"/>
<feOffset dy="20"/>
<feGaussianBlur stdDeviation="20"/>
<feComposite in2="hardAlpha" operator="out"/>
<feColorMatrix type="matrix" values="0 0 0 0 0.815686 0 0 0 0 0.835294 0 0 0 0 0.866667 0 0 0 0.5 0"/>
<feBlend mode="normal" in2="BackgroundImageFix" result="effect1_dropShadow_37_212"/>
<feBlend mode="normal" in="SourceGraphic" in2="effect1_dropShadow_37_212" result="shape"/>
</filter>
<linearGradient id="paint0_linear_37_212" x1="293" y1="131" x2="293" y2="250" gradientUnits="userSpaceOnUse">
<stop stop-color="#5235E8" stop-opacity="0.7"/>
<stop offset="1" stop-color="#5235E8" stop-opacity="0"/>
</linearGradient>
<radialGradient id="paint1_radial_37_212" cx="0" cy="0" r="1" gradientUnits="userSpaceOnUse" gradientTransform="translate(272 125) rotate(90) scale(219.828 255)">
<stop stop-color="white" stop-opacity="0"/>
<stop offset="1" stop-color="white" stop-opacity="0.7"/>
</radialGradient>
<clipPath id="clip0_37_212">
<rect width="8" height="8" fill="white" transform="translate(154 96)"/>
</clipPath>
</defs>
</svg>
