<svg width="82" height="108" viewBox="0 0 82 108" fill="none" xmlns="http://www.w3.org/2000/svg">
<path d="M43.8333 6.34468C64.5593 13.9909 81.361 38.0979 81.361 60.1894C81.361 82.2808 64.5593 93.9909 43.8333 86.3447C23.1073 78.6985 6.30566 54.5914 6.30566 32.5C6.30566 10.4086 23.1073 -1.30154 43.8333 6.34468Z" fill="#F7DF27"/>
<path d="M37.5833 14.8447C57.7912 22.2997 74.1728 45.8041 74.1728 67.3432C74.1728 88.8824 57.7912 100.3 37.5833 92.8447C17.3755 85.3896 0.993855 61.8853 0.993855 40.3461C0.993855 18.807 17.3755 7.38962 37.5833 14.8447Z" fill="#FF6E00" stroke="white" stroke-width="2"/>
<path d="M51.3032 75.3771C48.0544 78.4208 43.4853 78.8564 37.596 76.6837C31.7067 74.511 27.1369 70.7039 23.8866 65.2626C20.6356 59.8187 19.0109 53.7328 19.0123 47.0049C19.0137 40.2771 20.6378 35.3905 23.8845 32.3452C27.1333 29.2992 31.7031 28.8632 37.5938 31.0372C43.4846 33.2111 48.0537 37.0187 51.3011 42.4597C54.5499 47.9006 56.1747 53.9857 56.1754 60.7151C56.1761 67.4445 54.5521 72.3319 51.3032 75.3771Z" fill="white"/>
<path d="M37.5276 67.7876C39.078 68.3596 40.3961 68.3956 41.4819 67.8956C42.5677 67.3956 43.354 66.4643 43.8408 65.1018C44.3269 63.7383 44.67 62.386 44.8701 61.045C45.0703 59.7039 45.1696 58.2404 45.1682 56.6544C45.1682 54.7024 45.0574 52.9144 44.8358 51.2906L31.4781 61.1992C32.7133 64.5578 34.7298 66.7539 37.5276 67.7876Z" fill="#FF6E00"/>
<path d="M37.6605 39.9326C36.1101 39.3606 34.792 39.3246 33.7062 39.8246C32.6204 40.3246 31.8341 41.2558 31.3473 42.6183C30.8584 43.9807 30.5152 45.333 30.318 46.675C30.1178 48.016 30.0185 49.4795 30.0199 51.0655C30.0199 52.11 30.0513 53.1075 30.1142 54.058L42.8543 44.6098C41.617 42.3134 39.8857 40.7543 37.6605 39.9326V39.9326Z" fill="#FF6E00"/>
<path d="M20.0504 61.5319L18.4099 59.249L30.8498 50.0166L32.4903 52.2995L20.0504 61.5319ZM43.4891 55.756L41.8486 53.4731L54.2885 44.2407L55.929 46.5236L43.4891 55.756Z" fill="#FF6E00"/>
</svg>
