<svg width="320" height="336" viewBox="0 0 320 336" fill="none" xmlns="http://www.w3.org/2000/svg">
<g clip-path="url(#clip0_52_455)">
<rect width="320" height="692.907" rx="40" fill="white"/>
<rect x="-459" y="27" width="904" height="382" rx="8" fill="white"/>
<path d="M47.0653 77.1818V55.3636H48.4631V77.1818H47.0653ZM51.4375 62.1307C51.3466 61.3239 50.9716 60.6989 50.3125 60.2557C49.6534 59.8068 48.8239 59.5824 47.8239 59.5824C47.108 59.5824 46.4886 59.696 45.9659 59.9233C45.4432 60.1449 45.0369 60.4517 44.7472 60.8438C44.4631 61.2301 44.321 61.6705 44.321 62.1648C44.321 62.5795 44.4176 62.9375 44.6108 63.2386C44.8097 63.5398 45.0682 63.7926 45.3864 63.9972C45.7102 64.196 46.0568 64.3636 46.4261 64.5C46.7955 64.6307 47.1506 64.7386 47.4915 64.8239L49.196 65.267C49.7528 65.4034 50.3239 65.5881 50.9091 65.821C51.4943 66.054 52.0369 66.3608 52.5369 66.7415C53.0369 67.1222 53.4403 67.5938 53.7472 68.1562C54.0597 68.7188 54.2159 69.392 54.2159 70.1761C54.2159 71.1648 53.9602 72.0426 53.4489 72.8097C52.9432 73.5767 52.2074 74.1818 51.2415 74.625C50.2813 75.0682 49.1193 75.2898 47.7557 75.2898C46.4489 75.2898 45.3182 75.0824 44.3636 74.6676C43.4091 74.2528 42.6619 73.6648 42.1222 72.9034C41.5824 72.1364 41.2841 71.2273 41.2273 70.1761H43.8693C43.9205 70.8068 44.125 71.3324 44.483 71.7528C44.8466 72.1676 45.3097 72.4773 45.8722 72.6818C46.4403 72.8807 47.0625 72.9801 47.7386 72.9801C48.483 72.9801 49.1449 72.8636 49.7244 72.6307C50.3097 72.392 50.7699 72.0625 51.1051 71.642C51.4403 71.2159 51.608 70.7187 51.608 70.1506C51.608 69.6335 51.4602 69.2102 51.1648 68.8807C50.875 68.5511 50.4801 68.2784 49.9801 68.0625C49.4858 67.8466 48.9261 67.6562 48.3011 67.4915L46.2386 66.929C44.8409 66.5483 43.733 65.9886 42.9148 65.25C42.1023 64.5114 41.696 63.5341 41.696 62.3182C41.696 61.3125 41.9688 60.4347 42.5142 59.6847C43.0597 58.9347 43.7983 58.3523 44.7301 57.9375C45.6619 57.517 46.7131 57.3068 47.8835 57.3068C49.0653 57.3068 50.108 57.5142 51.0114 57.929C51.9205 58.3438 52.6364 58.9148 53.1591 59.642C53.6818 60.3636 53.9545 61.1932 53.9773 62.1307H51.4375ZM62.978 75.2386C62.1996 75.2273 61.4326 75.0852 60.6769 74.8125C59.9269 74.5398 59.2451 74.0852 58.6314 73.4489C58.0178 72.8125 57.5263 71.9574 57.157 70.8835C56.7934 69.8097 56.6116 68.4687 56.6116 66.8608C56.6116 65.3381 56.7621 63.9858 57.0633 62.804C57.3701 61.6222 57.8104 60.625 58.3843 59.8125C58.9582 58.9943 59.6513 58.3722 60.4638 57.946C61.2763 57.5199 62.1883 57.3068 63.1996 57.3068C64.2394 57.3068 65.1627 57.5114 65.9695 57.9205C66.7763 58.3295 67.4297 58.8949 67.9297 59.6165C68.4354 60.3381 68.7564 61.1591 68.8928 62.0795H66.2934C66.1172 61.3523 65.7678 60.7585 65.2451 60.2983C64.7224 59.8381 64.0405 59.608 63.1996 59.608C61.9212 59.608 60.9241 60.1648 60.2082 61.2784C59.4979 62.392 59.14 63.9403 59.1343 65.9233H59.2621C59.5633 65.429 59.9326 65.0085 60.3701 64.6619C60.8133 64.3097 61.3076 64.0398 61.853 63.8523C62.4042 63.6591 62.9837 63.5625 63.5917 63.5625C64.603 63.5625 65.5178 63.8097 66.336 64.304C67.1599 64.7926 67.8161 65.4687 68.3047 66.3324C68.7934 67.196 69.0377 68.1847 69.0377 69.2983C69.0377 70.4119 68.7849 71.4205 68.2792 72.3239C67.7792 73.2273 67.0746 73.9432 66.1655 74.4716C65.2564 74.9943 64.1939 75.25 62.978 75.2386ZM62.9695 73.0227C63.64 73.0227 64.2394 72.858 64.7678 72.5284C65.2962 72.1989 65.7138 71.7557 66.0207 71.1989C66.3275 70.642 66.4809 70.0199 66.4809 69.3324C66.4809 68.6619 66.3303 68.0511 66.0292 67.5C65.7337 66.9489 65.3246 66.5114 64.8019 66.1875C64.2849 65.8636 63.6939 65.7017 63.0292 65.7017C62.5235 65.7017 62.0547 65.7983 61.6229 65.9915C61.1968 66.1847 60.8218 66.4517 60.4979 66.7926C60.1741 67.1335 59.9184 67.5256 59.7309 67.9688C59.5491 68.4062 59.4582 68.8693 59.4582 69.358C59.4582 70.0114 59.6087 70.6165 59.9099 71.1733C60.2167 71.7301 60.6343 72.179 61.1627 72.5199C61.6968 72.8551 62.2991 73.0227 62.9695 73.0227ZM71.9021 75V73.0909L77.8084 66.9716C78.439 66.3068 78.9589 65.7244 79.368 65.2244C79.7828 64.7187 80.0924 64.2386 80.297 63.7841C80.5015 63.3295 80.6038 62.8466 80.6038 62.3352C80.6038 61.7557 80.4674 61.2557 80.1947 60.8352C79.922 60.4091 79.5498 60.0824 79.0782 59.8551C78.6066 59.6222 78.0754 59.5057 77.4845 59.5057C76.8595 59.5057 76.314 59.6335 75.8481 59.8892C75.3822 60.1449 75.0243 60.5057 74.7743 60.9716C74.5243 61.4375 74.3993 61.983 74.3993 62.608H71.8851C71.8851 61.5455 72.1294 60.6165 72.618 59.821C73.1066 59.0256 73.7771 58.4091 74.6294 57.9716C75.4816 57.5284 76.4504 57.3068 77.5356 57.3068C78.6322 57.3068 79.5981 57.5256 80.4334 57.9631C81.2743 58.3949 81.9305 58.9858 82.4021 59.7358C82.8737 60.4801 83.1095 61.321 83.1095 62.2585C83.1095 62.9062 82.9873 63.5398 82.743 64.1591C82.5044 64.7784 82.0868 65.4687 81.4902 66.2301C80.8936 66.9858 80.064 67.9034 79.0015 68.983L75.5328 72.6136V72.7415H83.3907V75H71.9021ZM86.9689 75L94.5882 59.9318V59.804H85.7757V57.5455H97.3155V59.8807L89.7218 75H86.9689ZM105.585 75.2386C104.364 75.2386 103.284 75.0284 102.347 74.608C101.415 74.1875 100.685 73.608 100.156 72.8693C99.6281 72.1307 99.3667 71.2898 99.3724 70.3466C99.3667 69.608 99.5173 68.929 99.8241 68.3097C100.137 67.6847 100.56 67.1648 101.094 66.75C101.628 66.3295 102.225 66.0625 102.884 65.9489V65.8466C102.014 65.6364 101.318 65.1705 100.796 64.4489C100.273 63.7273 100.014 62.8977 100.02 61.9602C100.014 61.0682 100.25 60.2727 100.728 59.5739C101.21 58.8693 101.872 58.3153 102.713 57.9119C103.554 57.5085 104.512 57.3068 105.585 57.3068C106.648 57.3068 107.597 57.5114 108.432 57.9205C109.273 58.3239 109.935 58.8778 110.418 59.5824C110.901 60.2812 111.145 61.0739 111.151 61.9602C111.145 62.8977 110.878 63.7273 110.35 64.4489C109.821 65.1705 109.134 65.6364 108.287 65.8466V65.9489C108.941 66.0625 109.529 66.3295 110.051 66.75C110.58 67.1648 111 67.6847 111.313 68.3097C111.631 68.929 111.793 69.608 111.799 70.3466C111.793 71.2898 111.526 72.1307 110.997 72.8693C110.469 73.608 109.736 74.1875 108.799 74.608C107.867 75.0284 106.796 75.2386 105.585 75.2386ZM105.585 73.0824C106.307 73.0824 106.932 72.9631 107.46 72.7244C107.989 72.4801 108.398 72.142 108.688 71.7102C108.978 71.2727 109.125 70.7614 109.131 70.1761C109.125 69.5682 108.966 69.0312 108.654 68.5653C108.347 68.0994 107.929 67.733 107.401 67.4659C106.872 67.1989 106.267 67.0653 105.585 67.0653C104.898 67.0653 104.287 67.1989 103.753 67.4659C103.219 67.733 102.799 68.0994 102.492 68.5653C102.185 69.0312 102.034 69.5682 102.04 70.1761C102.034 70.7614 102.174 71.2727 102.458 71.7102C102.747 72.142 103.159 72.4801 103.693 72.7244C104.228 72.9631 104.858 73.0824 105.585 73.0824ZM105.585 64.9602C106.165 64.9602 106.679 64.8437 107.128 64.6108C107.577 64.3778 107.929 64.054 108.185 63.6392C108.446 63.2244 108.58 62.7386 108.585 62.1818C108.58 61.6364 108.449 61.1591 108.193 60.75C107.943 60.3409 107.594 60.0256 107.145 59.804C106.696 59.5767 106.176 59.4631 105.585 59.4631C104.983 59.4631 104.455 59.5767 104 59.804C103.551 60.0256 103.202 60.3409 102.952 60.75C102.702 61.1591 102.58 61.6364 102.585 62.1818C102.58 62.7386 102.705 63.2244 102.96 63.6392C103.216 64.054 103.568 64.3778 104.017 64.6108C104.472 64.8437 104.995 64.9602 105.585 64.9602ZM115.809 75.1619C115.343 75.1619 114.943 74.9972 114.608 74.6676C114.272 74.3324 114.105 73.929 114.105 73.4574C114.105 72.9915 114.272 72.5937 114.608 72.2642C114.943 71.929 115.343 71.7614 115.809 71.7614C116.275 71.7614 116.676 71.929 117.011 72.2642C117.346 72.5937 117.514 72.9915 117.514 73.4574C117.514 73.7699 117.434 74.0568 117.275 74.3182C117.122 74.5739 116.917 74.7784 116.662 74.9318C116.406 75.0852 116.122 75.1619 115.809 75.1619ZM125.166 57.5455V75H122.524V60.1875H122.422L118.245 62.9148V60.392L122.6 57.5455H125.166ZM135.724 75.2386C134.554 75.2386 133.508 75.0369 132.588 74.6335C131.673 74.2301 130.949 73.6705 130.414 72.9545C129.886 72.233 129.602 71.3977 129.562 70.4489H132.238C132.272 70.9659 132.446 71.4148 132.758 71.7955C133.076 72.1705 133.491 72.4602 134.003 72.6648C134.514 72.8693 135.082 72.9716 135.707 72.9716C136.395 72.9716 137.003 72.8523 137.531 72.6136C138.065 72.375 138.483 72.0426 138.784 71.6165C139.085 71.1847 139.235 70.6875 139.235 70.125C139.235 69.5398 139.085 69.0256 138.784 68.5824C138.488 68.1335 138.054 67.7812 137.48 67.5256C136.912 67.2699 136.224 67.142 135.417 67.142H133.943V64.9943H135.417C136.065 64.9943 136.633 64.8778 137.122 64.6449C137.616 64.4119 138.003 64.0881 138.281 63.6733C138.559 63.2528 138.699 62.7614 138.699 62.1989C138.699 61.6591 138.576 61.1903 138.332 60.7926C138.093 60.3892 137.753 60.0739 137.309 59.8466C136.872 59.6193 136.355 59.5057 135.758 59.5057C135.19 59.5057 134.659 59.6108 134.164 59.821C133.676 60.0256 133.278 60.321 132.971 60.7074C132.664 61.0881 132.5 61.5455 132.477 62.0795H129.929C129.957 61.1364 130.235 60.3068 130.764 59.5909C131.298 58.875 132.003 58.3153 132.878 57.9119C133.753 57.5085 134.724 57.3068 135.792 57.3068C136.912 57.3068 137.878 57.5256 138.69 57.9631C139.508 58.3949 140.139 58.9716 140.582 59.6932C141.031 60.4148 141.253 61.2045 141.247 62.0625C141.253 63.0398 140.98 63.8693 140.429 64.5511C139.883 65.233 139.156 65.6903 138.247 65.9233V66.0597C139.406 66.2358 140.304 66.696 140.94 67.4403C141.582 68.1847 141.9 69.108 141.895 70.2102C141.9 71.1705 141.633 72.0312 141.093 72.7926C140.559 73.554 139.829 74.1534 138.903 74.5909C137.977 75.0227 136.917 75.2386 135.724 75.2386Z" fill="#131316"/>
<path d="M41.4091 103V91.3636H42.8182V101.75H48.2273V103H41.4091ZM52.8755 103.205C52.3224 103.205 51.8205 103.1 51.3698 102.892C50.919 102.68 50.5611 102.375 50.2959 101.977C50.0308 101.576 49.8982 101.091 49.8982 100.523C49.8982 100.023 49.9967 99.6174 50.1936 99.3068C50.3906 98.9924 50.6539 98.7462 50.9834 98.5682C51.313 98.3902 51.6766 98.2576 52.0743 98.1705C52.4758 98.0795 52.8792 98.0076 53.2845 97.9545C53.8148 97.8864 54.2448 97.8352 54.5743 97.8011C54.9077 97.7633 55.1501 97.7008 55.3016 97.6136C55.4569 97.5265 55.5345 97.375 55.5345 97.1591V97.1136C55.5345 96.553 55.3811 96.1174 55.0743 95.8068C54.7713 95.4962 54.3111 95.3409 53.6936 95.3409C53.0535 95.3409 52.5516 95.4811 52.188 95.7614C51.8243 96.0417 51.5686 96.3409 51.4209 96.6591L50.1482 96.2045C50.3755 95.6742 50.6785 95.2614 51.0573 94.9659C51.4398 94.6667 51.8565 94.4583 52.3073 94.3409C52.7618 94.2197 53.2088 94.1591 53.6482 94.1591C53.9285 94.1591 54.2505 94.1932 54.6141 94.2614C54.9815 94.3258 55.3357 94.4602 55.6766 94.6648C56.0213 94.8693 56.3073 95.178 56.5345 95.5909C56.7618 96.0038 56.8755 96.5568 56.8755 97.25V103H55.5345V101.818H55.4664C55.3755 102.008 55.2239 102.21 55.0118 102.426C54.7997 102.642 54.5175 102.826 54.1652 102.977C53.813 103.129 53.383 103.205 52.8755 103.205ZM53.08 102C53.6103 102 54.0573 101.896 54.4209 101.688C54.7883 101.479 55.0648 101.21 55.2505 100.881C55.4398 100.551 55.5345 100.205 55.5345 99.8409V98.6136C55.4777 98.6818 55.3527 98.7443 55.1595 98.8011C54.9702 98.8542 54.7505 98.9015 54.5005 98.9432C54.2542 98.9811 54.0137 99.0152 53.7789 99.0455C53.5478 99.072 53.3603 99.0947 53.2164 99.1136C52.8679 99.1591 52.5421 99.233 52.2391 99.3352C51.9398 99.4337 51.6974 99.5833 51.5118 99.7841C51.33 99.9811 51.2391 100.25 51.2391 100.591C51.2391 101.057 51.4114 101.409 51.7561 101.648C52.1046 101.883 52.5459 102 53.08 102ZM65.5847 96.2273L64.3802 96.5682C64.3044 96.3674 64.1927 96.1723 64.0449 95.983C63.901 95.7898 63.704 95.6307 63.454 95.5057C63.204 95.3807 62.884 95.3182 62.4938 95.3182C61.9597 95.3182 61.5146 95.4413 61.1586 95.6875C60.8063 95.9299 60.6302 96.2386 60.6302 96.6136C60.6302 96.947 60.7514 97.2102 60.9938 97.4034C61.2362 97.5966 61.615 97.7576 62.1302 97.8864L63.4256 98.2045C64.2059 98.3939 64.7874 98.6837 65.1699 99.0739C65.5525 99.4602 65.7438 99.9583 65.7438 100.568C65.7438 101.068 65.5999 101.515 65.312 101.909C65.0279 102.303 64.6302 102.614 64.1188 102.841C63.6074 103.068 63.0127 103.182 62.3347 103.182C61.4446 103.182 60.7078 102.989 60.1245 102.602C59.5412 102.216 59.1718 101.652 59.0165 100.909L60.2893 100.591C60.4105 101.061 60.6396 101.413 60.9768 101.648C61.3177 101.883 61.7627 102 62.312 102C62.937 102 63.4332 101.867 63.8006 101.602C64.1718 101.333 64.3574 101.011 64.3574 100.636C64.3574 100.333 64.2514 100.08 64.0393 99.875C63.8271 99.6667 63.5014 99.5114 63.062 99.4091L61.6074 99.0682C60.8082 98.8788 60.2211 98.5852 59.8461 98.1875C59.4749 97.786 59.2893 97.2841 59.2893 96.6818C59.2893 96.1894 59.4275 95.7538 59.704 95.375C59.9843 94.9962 60.365 94.6989 60.8461 94.483C61.3309 94.267 61.8802 94.1591 62.4938 94.1591C63.3574 94.1591 64.0355 94.3485 64.5279 94.7273C65.0241 95.1061 65.3764 95.6061 65.5847 96.2273ZM71.6377 94.2727V95.4091H67.115V94.2727H71.6377ZM68.4332 92.1818H69.7741V100.5C69.7741 100.879 69.829 101.163 69.9389 101.352C70.0525 101.538 70.1964 101.663 70.3707 101.727C70.5487 101.788 70.7362 101.818 70.9332 101.818C71.0809 101.818 71.2021 101.811 71.2968 101.795C71.3915 101.777 71.4673 101.761 71.5241 101.75L71.7968 102.955C71.7059 102.989 71.579 103.023 71.4161 103.057C71.2533 103.095 71.0468 103.114 70.7968 103.114C70.418 103.114 70.0468 103.032 69.6832 102.869C69.3233 102.706 69.0241 102.458 68.7855 102.125C68.5506 101.792 68.4332 101.371 68.4332 100.864V92.1818ZM78.3148 106.273V94.2727H79.6102V95.6591H79.7693C79.8678 95.5076 80.0042 95.3144 80.1784 95.0795C80.3564 94.8409 80.6102 94.6288 80.9398 94.4432C81.2731 94.2538 81.7239 94.1591 82.292 94.1591C83.0269 94.1591 83.6746 94.3428 84.2352 94.7102C84.7958 95.0777 85.2333 95.5985 85.5477 96.2727C85.8621 96.947 86.0193 97.7424 86.0193 98.6591C86.0193 99.5833 85.8621 100.384 85.5477 101.062C85.2333 101.737 84.7977 102.259 84.2409 102.631C83.6841 102.998 83.042 103.182 82.3148 103.182C81.7542 103.182 81.3053 103.089 80.9682 102.903C80.6311 102.714 80.3716 102.5 80.1898 102.261C80.008 102.019 79.8678 101.818 79.7693 101.659H79.6557V106.273H78.3148ZM79.633 98.6364C79.633 99.2955 79.7295 99.8769 79.9227 100.381C80.1159 100.881 80.3981 101.273 80.7693 101.557C81.1405 101.837 81.5951 101.977 82.133 101.977C82.6936 101.977 83.1614 101.83 83.5364 101.534C83.9152 101.235 84.1992 100.833 84.3886 100.33C84.5818 99.822 84.6784 99.2576 84.6784 98.6364C84.6784 98.0227 84.5837 97.4697 84.3943 96.9773C84.2087 96.4811 83.9265 96.089 83.5477 95.8011C83.1727 95.5095 82.7011 95.3636 82.133 95.3636C81.5875 95.3636 81.1292 95.5019 80.758 95.7784C80.3867 96.0511 80.1064 96.4337 79.917 96.9261C79.7277 97.4148 79.633 97.9848 79.633 98.6364ZM88.1448 103V94.2727H89.4402V95.5909H89.5311C89.6902 95.1591 89.9781 94.8087 90.3948 94.5398C90.8114 94.2708 91.2811 94.1364 91.8039 94.1364C91.9023 94.1364 92.0255 94.1383 92.1732 94.142C92.3209 94.1458 92.4327 94.1515 92.5084 94.1591V95.5227C92.463 95.5114 92.3588 95.4943 92.1959 95.4716C92.0368 95.4451 91.8683 95.4318 91.6902 95.4318C91.266 95.4318 90.8872 95.5208 90.5539 95.6989C90.2243 95.8731 89.963 96.1155 89.7698 96.4261C89.5804 96.733 89.4857 97.0833 89.4857 97.4773V103H88.1448ZM94.1779 103V94.2727H95.5188V103H94.1779ZM94.8597 92.8182C94.5984 92.8182 94.373 92.7292 94.1836 92.5511C93.998 92.3731 93.9052 92.1591 93.9052 91.9091C93.9052 91.6591 93.998 91.4451 94.1836 91.267C94.373 91.089 94.5984 91 94.8597 91C95.1211 91 95.3446 91.089 95.5302 91.267C95.7196 91.4451 95.8143 91.6591 95.8143 91.9091C95.8143 92.1591 95.7196 92.3731 95.5302 92.5511C95.3446 92.7292 95.1211 92.8182 94.8597 92.8182ZM101.6 103.182C100.782 103.182 100.077 102.989 99.4866 102.602C98.8957 102.216 98.4411 101.684 98.123 101.006C97.8048 100.328 97.6457 99.553 97.6457 98.6818C97.6457 97.7955 97.8086 97.0133 98.1343 96.3352C98.4639 95.6534 98.9222 95.1212 99.5093 94.7386C100.1 94.3523 100.79 94.1591 101.577 94.1591C102.191 94.1591 102.744 94.2727 103.237 94.5C103.729 94.7273 104.132 95.0455 104.447 95.4545C104.761 95.8636 104.956 96.3409 105.032 96.8864H103.691C103.589 96.4886 103.362 96.1364 103.009 95.8295C102.661 95.5189 102.191 95.3636 101.6 95.3636C101.077 95.3636 100.619 95.5 100.225 95.7727C99.8351 96.0417 99.5302 96.4223 99.3105 96.9148C99.0945 97.4034 98.9866 97.9773 98.9866 98.6364C98.9866 99.3106 99.0927 99.8977 99.3048 100.398C99.5207 100.898 99.8237 101.286 100.214 101.562C100.608 101.839 101.07 101.977 101.6 101.977C101.949 101.977 102.265 101.917 102.549 101.795C102.833 101.674 103.074 101.5 103.271 101.273C103.468 101.045 103.608 100.773 103.691 100.455H105.032C104.956 100.97 104.769 101.434 104.47 101.847C104.174 102.256 103.782 102.581 103.293 102.824C102.809 103.062 102.244 103.182 101.6 103.182ZM110.731 103.182C109.89 103.182 109.165 102.996 108.555 102.625C107.949 102.25 107.481 101.727 107.152 101.057C106.826 100.383 106.663 99.5985 106.663 98.7045C106.663 97.8106 106.826 97.0227 107.152 96.3409C107.481 95.6553 107.94 95.1212 108.527 94.7386C109.118 94.3523 109.807 94.1591 110.595 94.1591C111.05 94.1591 111.498 94.2348 111.942 94.3864C112.385 94.5379 112.788 94.7841 113.152 95.125C113.515 95.4621 113.805 95.9091 114.021 96.4659C114.237 97.0227 114.345 97.7083 114.345 98.5227V99.0909H107.618V97.9318H112.981C112.981 97.4394 112.883 97 112.686 96.6136C112.493 96.2273 112.216 95.9223 111.856 95.6989C111.5 95.4754 111.08 95.3636 110.595 95.3636C110.061 95.3636 109.599 95.4962 109.209 95.7614C108.822 96.0227 108.525 96.3636 108.317 96.7841C108.108 97.2045 108.004 97.6553 108.004 98.1364V98.9091C108.004 99.5682 108.118 100.127 108.345 100.585C108.576 101.04 108.896 101.386 109.305 101.625C109.714 101.86 110.19 101.977 110.731 101.977C111.084 101.977 111.402 101.928 111.686 101.83C111.974 101.727 112.222 101.576 112.43 101.375C112.639 101.17 112.8 100.917 112.913 100.614L114.209 100.977C114.072 101.417 113.843 101.803 113.521 102.136C113.199 102.466 112.801 102.723 112.328 102.909C111.854 103.091 111.322 103.182 110.731 103.182Z" fill="#717184"/>
<path d="M177.756 75.2386C176.585 75.2386 175.54 75.0369 174.619 74.6335C173.705 74.2301 172.98 73.6705 172.446 72.9545C171.918 72.233 171.634 71.3977 171.594 70.4489H174.27C174.304 70.9659 174.477 71.4148 174.79 71.7955C175.108 72.1705 175.523 72.4602 176.034 72.6648C176.545 72.8693 177.114 72.9716 177.739 72.9716C178.426 72.9716 179.034 72.8523 179.562 72.6136C180.097 72.375 180.514 72.0426 180.815 71.6165C181.116 71.1847 181.267 70.6875 181.267 70.125C181.267 69.5398 181.116 69.0256 180.815 68.5824C180.52 68.1335 180.085 67.7812 179.511 67.5256C178.943 67.2699 178.256 67.142 177.449 67.142H175.974V64.9943H177.449C178.097 64.9943 178.665 64.8778 179.153 64.6449C179.648 64.4119 180.034 64.0881 180.312 63.6733C180.591 63.2528 180.73 62.7614 180.73 62.1989C180.73 61.6591 180.608 61.1903 180.364 60.7926C180.125 60.3892 179.784 60.0739 179.341 59.8466C178.903 59.6193 178.386 59.5057 177.79 59.5057C177.222 59.5057 176.69 59.6108 176.196 59.821C175.707 60.0256 175.31 60.321 175.003 60.7074C174.696 61.0881 174.531 61.5455 174.509 62.0795H171.96C171.989 61.1364 172.267 60.3068 172.795 59.5909C173.33 58.875 174.034 58.3153 174.909 57.9119C175.784 57.5085 176.756 57.3068 177.824 57.3068C178.943 57.3068 179.909 57.5256 180.722 57.9631C181.54 58.3949 182.17 58.9716 182.614 59.6932C183.063 60.4148 183.284 61.2045 183.278 62.0625C183.284 63.0398 183.011 63.8693 182.46 64.5511C181.915 65.233 181.188 65.6903 180.278 65.9233V66.0597C181.438 66.2358 182.335 66.696 182.972 67.4403C183.614 68.1847 183.932 69.108 183.926 70.2102C183.932 71.1705 183.665 72.0312 183.125 72.7926C182.591 73.554 181.861 74.1534 180.935 74.5909C180.009 75.0227 178.949 75.2386 177.756 75.2386ZM192.805 75.2386C191.584 75.2386 190.504 75.0284 189.567 74.608C188.635 74.1875 187.905 73.608 187.376 72.8693C186.848 72.1307 186.587 71.2898 186.592 70.3466C186.587 69.608 186.737 68.929 187.044 68.3097C187.357 67.6847 187.78 67.1648 188.314 66.75C188.848 66.3295 189.445 66.0625 190.104 65.9489V65.8466C189.234 65.6364 188.538 65.1705 188.016 64.4489C187.493 63.7273 187.234 62.8977 187.24 61.9602C187.234 61.0682 187.47 60.2727 187.948 59.5739C188.43 58.8693 189.092 58.3153 189.933 57.9119C190.774 57.5085 191.732 57.3068 192.805 57.3068C193.868 57.3068 194.817 57.5114 195.652 57.9205C196.493 58.3239 197.155 58.8778 197.638 59.5824C198.121 60.2812 198.365 61.0739 198.371 61.9602C198.365 62.8977 198.098 63.7273 197.57 64.4489C197.041 65.1705 196.354 65.6364 195.507 65.8466V65.9489C196.161 66.0625 196.749 66.3295 197.271 66.75C197.8 67.1648 198.22 67.6847 198.533 68.3097C198.851 68.929 199.013 69.608 199.019 70.3466C199.013 71.2898 198.746 72.1307 198.217 72.8693C197.689 73.608 196.956 74.1875 196.019 74.608C195.087 75.0284 194.016 75.2386 192.805 75.2386ZM192.805 73.0824C193.527 73.0824 194.152 72.9631 194.68 72.7244C195.209 72.4801 195.618 72.142 195.908 71.7102C196.198 71.2727 196.345 70.7614 196.351 70.1761C196.345 69.5682 196.186 69.0312 195.874 68.5653C195.567 68.0994 195.149 67.733 194.621 67.4659C194.092 67.1989 193.487 67.0653 192.805 67.0653C192.118 67.0653 191.507 67.1989 190.973 67.4659C190.439 67.733 190.019 68.0994 189.712 68.5653C189.405 69.0312 189.254 69.5682 189.26 70.1761C189.254 70.7614 189.394 71.2727 189.678 71.7102C189.967 72.142 190.379 72.4801 190.913 72.7244C191.448 72.9631 192.078 73.0824 192.805 73.0824ZM192.805 64.9602C193.385 64.9602 193.899 64.8437 194.348 64.6108C194.797 64.3778 195.149 64.054 195.405 63.6392C195.666 63.2244 195.8 62.7386 195.805 62.1818C195.8 61.6364 195.669 61.1591 195.413 60.75C195.163 60.3409 194.814 60.0256 194.365 59.804C193.916 59.5767 193.396 59.4631 192.805 59.4631C192.203 59.4631 191.675 59.5767 191.22 59.804C190.771 60.0256 190.422 60.3409 190.172 60.75C189.922 61.1591 189.8 61.6364 189.805 62.1818C189.8 62.7386 189.925 63.2244 190.18 63.6392C190.436 64.054 190.788 64.3778 191.237 64.6108C191.692 64.8437 192.215 64.9602 192.805 64.9602ZM203.029 75.1619C202.563 75.1619 202.163 74.9972 201.828 74.6676C201.492 74.3324 201.325 73.929 201.325 73.4574C201.325 72.9915 201.492 72.5937 201.828 72.2642C202.163 71.929 202.563 71.7614 203.029 71.7614C203.495 71.7614 203.896 71.929 204.231 72.2642C204.566 72.5937 204.734 72.9915 204.734 73.4574C204.734 73.7699 204.654 74.0568 204.495 74.3182C204.342 74.5739 204.137 74.7784 203.882 74.9318C203.626 75.0852 203.342 75.1619 203.029 75.1619ZM207.873 75V73.0909L213.779 66.9716C214.41 66.3068 214.93 65.7244 215.339 65.2244C215.754 64.7187 216.063 64.2386 216.268 63.7841C216.472 63.3295 216.575 62.8466 216.575 62.3352C216.575 61.7557 216.438 61.2557 216.166 60.8352C215.893 60.4091 215.521 60.0824 215.049 59.8551C214.578 59.6222 214.046 59.5057 213.455 59.5057C212.83 59.5057 212.285 59.6335 211.819 59.8892C211.353 60.1449 210.995 60.5057 210.745 60.9716C210.495 61.4375 210.37 61.983 210.37 62.608H207.856C207.856 61.5455 208.1 60.6165 208.589 59.821C209.078 59.0256 209.748 58.4091 210.6 57.9716C211.453 57.5284 212.421 57.3068 213.507 57.3068C214.603 57.3068 215.569 57.5256 216.404 57.9631C217.245 58.3949 217.901 58.9858 218.373 59.7358C218.845 60.4801 219.08 61.321 219.08 62.2585C219.08 62.9062 218.958 63.5398 218.714 64.1591C218.475 64.7784 218.058 65.4687 217.461 66.2301C216.865 66.9858 216.035 67.9034 214.972 68.983L211.504 72.6136V72.7415H219.362V75H207.873ZM228.113 75.2386C227.045 75.2386 226.085 75.0341 225.232 74.625C224.386 74.2102 223.71 73.642 223.204 72.9205C222.698 72.1989 222.428 71.375 222.394 70.4489H224.951C225.014 71.1989 225.346 71.8153 225.948 72.2983C226.551 72.7812 227.272 73.0227 228.113 73.0227C228.784 73.0227 229.377 72.8693 229.894 72.5625C230.417 72.25 230.826 71.821 231.122 71.2756C231.423 70.7301 231.573 70.108 231.573 69.4091C231.573 68.6989 231.42 68.0653 231.113 67.5085C230.806 66.9517 230.383 66.5142 229.843 66.196C229.309 65.8778 228.696 65.7159 228.002 65.7102C227.474 65.7102 226.943 65.8011 226.409 65.983C225.875 66.1648 225.443 66.4034 225.113 66.6989L222.701 66.3409L223.681 57.5455H233.278V59.804H225.872L225.318 64.6875H225.42C225.761 64.358 226.213 64.0824 226.775 63.8608C227.343 63.6392 227.951 63.5284 228.599 63.5284C229.661 63.5284 230.607 63.7812 231.437 64.2869C232.272 64.7926 232.928 65.483 233.406 66.358C233.889 67.2273 234.127 68.2273 234.122 69.358C234.127 70.4886 233.872 71.4972 233.355 72.3835C232.843 73.2699 232.133 73.9687 231.224 74.4801C230.321 74.9858 229.284 75.2386 228.113 75.2386ZM243.345 75V57.5455H249.737C250.975 57.5455 252.001 57.75 252.814 58.1591C253.626 58.5625 254.234 59.1108 254.637 59.804C255.041 60.4915 255.243 61.267 255.243 62.1307C255.243 62.858 255.109 63.4716 254.842 63.9716C254.575 64.4659 254.217 64.8636 253.768 65.1648C253.325 65.4602 252.836 65.6761 252.302 65.8125V65.983C252.882 66.0114 253.447 66.1989 253.998 66.5455C254.555 66.8864 255.015 67.3722 255.379 68.0028C255.743 68.6335 255.924 69.4006 255.924 70.304C255.924 71.196 255.714 71.9972 255.294 72.7074C254.879 73.4119 254.237 73.9716 253.368 74.3864C252.498 74.7955 251.387 75 250.035 75H243.345ZM245.978 72.7415H249.779C251.041 72.7415 251.944 72.4972 252.49 72.0085C253.035 71.5199 253.308 70.9091 253.308 70.1761C253.308 69.625 253.169 69.1193 252.89 68.6591C252.612 68.1989 252.214 67.8324 251.697 67.5597C251.186 67.2869 250.578 67.1506 249.873 67.1506H245.978V72.7415ZM245.978 65.0966H249.507C250.098 65.0966 250.629 64.983 251.1 64.7557C251.578 64.5284 251.956 64.2102 252.234 63.8011C252.518 63.3864 252.66 62.8977 252.66 62.3352C252.66 61.6136 252.407 61.0085 251.902 60.5199C251.396 60.0312 250.62 59.7869 249.575 59.7869H245.978V65.0966ZM257.947 59.8125V57.5455H271.456V59.8125H266.01V75H263.385V59.8125H257.947ZM287.948 63.2216H285.289C285.187 62.6534 284.996 62.1534 284.718 61.7216C284.439 61.2898 284.098 60.9233 283.695 60.6222C283.292 60.321 282.84 60.0937 282.34 59.9403C281.846 59.7869 281.32 59.7102 280.763 59.7102C279.758 59.7102 278.857 59.9631 278.062 60.4688C277.272 60.9744 276.647 61.7159 276.187 62.6932C275.732 63.6705 275.505 64.8636 275.505 66.2727C275.505 67.6932 275.732 68.892 276.187 69.8693C276.647 70.8466 277.275 71.5852 278.07 72.0852C278.866 72.5852 279.76 72.8352 280.755 72.8352C281.306 72.8352 281.829 72.7614 282.323 72.6136C282.823 72.4602 283.275 72.2358 283.678 71.9403C284.081 71.6449 284.422 71.2841 284.701 70.858C284.985 70.4261 285.181 69.9318 285.289 69.375L287.948 69.3835C287.806 70.2415 287.53 71.0312 287.121 71.7528C286.718 72.4688 286.198 73.0881 285.562 73.6108C284.931 74.1278 284.209 74.5284 283.397 74.8125C282.584 75.0966 281.698 75.2386 280.738 75.2386C279.226 75.2386 277.88 74.8807 276.698 74.1648C275.516 73.4432 274.584 72.4119 273.902 71.071C273.226 69.7301 272.888 68.1307 272.888 66.2727C272.888 64.4091 273.229 62.8097 273.911 61.4744C274.593 60.1335 275.525 59.1051 276.706 58.3892C277.888 57.6676 279.232 57.3068 280.738 57.3068C281.664 57.3068 282.527 57.4403 283.329 57.7074C284.135 57.9687 284.86 58.3551 285.502 58.8665C286.144 59.3722 286.675 59.9915 287.096 60.7244C287.516 61.4517 287.8 62.2841 287.948 63.2216Z" fill="#131316"/>
<path d="M171.886 91.3636L175.341 101.159H175.477L178.932 91.3636H180.409L176.136 103H174.682L170.409 91.3636H171.886ZM184.853 103.182C184.065 103.182 183.374 102.994 182.779 102.619C182.188 102.244 181.726 101.72 181.392 101.045C181.063 100.371 180.898 99.5833 180.898 98.6818C180.898 97.7727 181.063 96.9792 181.392 96.3011C181.726 95.6231 182.188 95.0966 182.779 94.7216C183.374 94.3466 184.065 94.1591 184.853 94.1591C185.641 94.1591 186.33 94.3466 186.921 94.7216C187.516 95.0966 187.978 95.6231 188.307 96.3011C188.641 96.9792 188.807 97.7727 188.807 98.6818C188.807 99.5833 188.641 100.371 188.307 101.045C187.978 101.72 187.516 102.244 186.921 102.619C186.33 102.994 185.641 103.182 184.853 103.182ZM184.853 101.977C185.451 101.977 185.944 101.824 186.33 101.517C186.716 101.21 187.002 100.807 187.188 100.307C187.374 99.8068 187.466 99.2652 187.466 98.6818C187.466 98.0985 187.374 97.5549 187.188 97.0511C187.002 96.5473 186.716 96.1402 186.33 95.8295C185.944 95.5189 185.451 95.3636 184.853 95.3636C184.254 95.3636 183.762 95.5189 183.375 95.8295C182.989 96.1402 182.703 96.5473 182.517 97.0511C182.332 97.5549 182.239 98.0985 182.239 98.6818C182.239 99.2652 182.332 99.8068 182.517 100.307C182.703 100.807 182.989 101.21 183.375 101.517C183.762 101.824 184.254 101.977 184.853 101.977ZM192.275 91.3636V103H190.934V91.3636H192.275ZM200.311 99.4318V94.2727H201.652V103H200.311V101.523H200.22C200.016 101.966 199.697 102.343 199.266 102.653C198.834 102.96 198.288 103.114 197.629 103.114C197.084 103.114 196.599 102.994 196.175 102.756C195.75 102.513 195.417 102.15 195.175 101.665C194.932 101.176 194.811 100.561 194.811 99.8182V94.2727H196.152V99.7273C196.152 100.364 196.33 100.871 196.686 101.25C197.046 101.629 197.504 101.818 198.061 101.818C198.394 101.818 198.733 101.733 199.078 101.562C199.427 101.392 199.718 101.131 199.953 100.778C200.192 100.426 200.311 99.9773 200.311 99.4318ZM204.188 103V94.2727H205.483V95.6364H205.597C205.779 95.1705 206.072 94.8087 206.478 94.5511C206.883 94.2898 207.37 94.1591 207.938 94.1591C208.514 94.1591 208.993 94.2898 209.375 94.5511C209.762 94.8087 210.063 95.1705 210.279 95.6364H210.37C210.593 95.1856 210.928 94.8277 211.375 94.5625C211.822 94.2936 212.358 94.1591 212.983 94.1591C213.764 94.1591 214.402 94.4034 214.898 94.892C215.394 95.3769 215.642 96.1326 215.642 97.1591V103H214.302V97.1591C214.302 96.5152 214.125 96.0549 213.773 95.7784C213.421 95.5019 213.006 95.3636 212.529 95.3636C211.915 95.3636 211.44 95.5492 211.103 95.9205C210.766 96.2879 210.597 96.7538 210.597 97.3182V103H209.233V97.0227C209.233 96.5265 209.072 96.1269 208.75 95.8239C208.428 95.517 208.014 95.3636 207.506 95.3636C207.158 95.3636 206.832 95.4564 206.529 95.642C206.23 95.8277 205.987 96.0852 205.802 96.4148C205.62 96.7405 205.529 97.1174 205.529 97.5455V103H204.188ZM221.833 103.182C220.992 103.182 220.267 102.996 219.657 102.625C219.051 102.25 218.583 101.727 218.254 101.057C217.928 100.383 217.765 99.5985 217.765 98.7045C217.765 97.8106 217.928 97.0227 218.254 96.3409C218.583 95.6553 219.042 95.1212 219.629 94.7386C220.22 94.3523 220.909 94.1591 221.697 94.1591C222.151 94.1591 222.6 94.2348 223.043 94.3864C223.487 94.5379 223.89 94.7841 224.254 95.125C224.617 95.4621 224.907 95.9091 225.123 96.4659C225.339 97.0227 225.447 97.7083 225.447 98.5227V99.0909H218.72V97.9318H224.083C224.083 97.4394 223.985 97 223.788 96.6136C223.595 96.2273 223.318 95.9223 222.958 95.6989C222.602 95.4754 222.182 95.3636 221.697 95.3636C221.163 95.3636 220.701 95.4962 220.311 95.7614C219.924 96.0227 219.627 96.3636 219.418 96.7841C219.21 97.2045 219.106 97.6553 219.106 98.1364V98.9091C219.106 99.5682 219.22 100.127 219.447 100.585C219.678 101.04 219.998 101.386 220.407 101.625C220.816 101.86 221.292 101.977 221.833 101.977C222.186 101.977 222.504 101.928 222.788 101.83C223.076 101.727 223.324 101.576 223.532 101.375C223.74 101.17 223.901 100.917 224.015 100.614L225.311 100.977C225.174 101.417 224.945 101.803 224.623 102.136C224.301 102.466 223.903 102.723 223.43 102.909C222.956 103.091 222.424 103.182 221.833 103.182ZM232.624 98.0909C232.624 96.6591 232.81 95.3428 233.181 94.142C233.556 92.9375 234.09 91.8295 234.783 90.8182H235.965C235.692 91.1932 235.436 91.6553 235.198 92.2045C234.963 92.75 234.756 93.3504 234.578 94.0057C234.4 94.6572 234.26 95.3314 234.158 96.0284C234.06 96.7254 234.01 97.4129 234.01 98.0909C234.01 98.9924 234.097 99.9072 234.272 100.835C234.446 101.763 234.681 102.625 234.976 103.42C235.272 104.216 235.601 104.864 235.965 105.364H234.783C234.09 104.352 233.556 103.246 233.181 102.045C232.81 100.841 232.624 99.5227 232.624 98.0909ZM238.001 103V101.977L241.842 97.7727C242.292 97.2803 242.664 96.8523 242.955 96.4886C243.247 96.1212 243.463 95.7765 243.603 95.4545C243.747 95.1288 243.819 94.7879 243.819 94.4318C243.819 94.0227 243.72 93.6686 243.524 93.3693C243.33 93.0701 243.065 92.839 242.728 92.6761C242.391 92.5133 242.012 92.4318 241.592 92.4318C241.145 92.4318 240.755 92.5246 240.421 92.7102C240.092 92.892 239.836 93.1477 239.654 93.4773C239.476 93.8068 239.387 94.1932 239.387 94.6364H238.046C238.046 93.9545 238.203 93.3561 238.518 92.8409C238.832 92.3258 239.26 91.9242 239.802 91.6364C240.347 91.3485 240.959 91.2045 241.637 91.2045C242.319 91.2045 242.923 91.3485 243.45 91.6364C243.976 91.9242 244.389 92.3125 244.688 92.8011C244.988 93.2898 245.137 93.8333 245.137 94.4318C245.137 94.8598 245.06 95.2784 244.904 95.6875C244.753 96.0928 244.488 96.5455 244.109 97.0455C243.734 97.5417 243.213 98.1477 242.546 98.8636L239.933 101.659V101.75H245.342V103H238.001ZM247.246 100.614V99.4545L252.359 91.3636H253.2V93.1591H252.632L248.768 99.2727V99.3636H255.655V100.614H247.246ZM252.723 103V100.261V99.7216V91.3636H254.064V103H252.723ZM259.228 97.75V103H257.887V91.3636H259.228V95.6364H259.341C259.546 95.1856 259.853 94.8277 260.262 94.5625C260.675 94.2936 261.224 94.1591 261.909 94.1591C262.504 94.1591 263.025 94.2784 263.472 94.517C263.919 94.7519 264.265 95.1136 264.512 95.6023C264.762 96.0871 264.887 96.7045 264.887 97.4545V103H263.546V97.5455C263.546 96.8523 263.366 96.3163 263.006 95.9375C262.65 95.5549 262.156 95.3636 261.523 95.3636C261.084 95.3636 260.69 95.4564 260.341 95.642C259.996 95.8277 259.724 96.0985 259.523 96.4545C259.326 96.8106 259.228 97.2424 259.228 97.75ZM270.283 98.0909C270.283 99.5227 270.096 100.841 269.721 102.045C269.35 103.246 268.817 104.352 268.124 105.364H266.942C267.215 104.989 267.469 104.527 267.704 103.977C267.942 103.432 268.151 102.833 268.329 102.182C268.507 101.527 268.645 100.85 268.744 100.153C268.846 99.4527 268.897 98.7652 268.897 98.0909C268.897 97.1894 268.81 96.2746 268.636 95.3466C268.461 94.4186 268.227 93.5568 267.931 92.7614C267.636 91.9659 267.306 91.3182 266.942 90.8182H268.124C268.817 91.8295 269.35 92.9375 269.721 94.142C270.096 95.3428 270.283 96.6591 270.283 98.0909Z" fill="#717184"/>
<rect x="80.5" y="115" width="1.5" height="240" fill="#F9F9FA"/>
<rect x="182" y="115" width="1.5" height="240" fill="#F9F9FA"/>
<rect x="283.5" y="115" width="1.5" height="240" fill="#F9F9FA"/>
<rect x="417.962" y="115" width="1.5" height="843" transform="rotate(90 417.962 115)" fill="#F9F9FA"/>
<rect x="417.962" y="162.5" width="1.5" height="843" transform="rotate(90 417.962 162.5)" fill="#F9F9FA"/>
<rect x="417.962" y="210" width="1.5" height="843" transform="rotate(90 417.962 210)" fill="#F9F9FA"/>
<rect x="417.962" y="257.5" width="1.5" height="843" transform="rotate(90 417.962 257.5)" fill="#F9F9FA"/>
<rect x="417.962" y="305" width="1.5" height="843" transform="rotate(90 417.962 305)" fill="#F9F9FA"/>
<rect x="167" y="200" width="8" height="54" rx="4" fill="#FB3766"/>
<rect x="170" y="192" width="2" height="80" rx="1" fill="#FB3766"/>
<rect x="119" y="181" width="8" height="54" rx="4" fill="#11CF8B"/>
<rect x="122" y="173" width="2" height="80" rx="1" fill="#11CF8B"/>
<rect x="143" y="166" width="8" height="54" rx="4" fill="#11CF8B"/>
<rect x="146" y="158" width="2" height="124" rx="1" fill="#11CF8B"/>
<rect x="47" y="202" width="8" height="54" rx="4" fill="#FB3766"/>
<rect x="50" y="194" width="2" height="103" rx="1" fill="#FB3766"/>
<rect x="311" y="221" width="8" height="54" rx="4" fill="#11CF8B"/>
<rect x="314" y="213" width="2" height="80" rx="1" fill="#11CF8B"/>
<rect x="287" y="229" width="8" height="27" rx="4" fill="#11CF8B"/>
<rect x="290" y="225" width="2" height="55" rx="1" fill="#11CF8B"/>
<rect x="95" y="229" width="8" height="27" rx="4" fill="#FB3766"/>
<rect x="98" y="208" width="2" height="55" rx="1" fill="#FB3766"/>
<rect x="191" y="213" width="8" height="20" rx="4" fill="#11CF8B"/>
<rect x="194" y="206" width="2" height="46" rx="1" fill="#11CF8B"/>
<rect x="263" y="241" width="8" height="16" rx="4" fill="#FB3766"/>
<rect x="266" y="235" width="2" height="55" rx="1" fill="#FB3766"/>
<rect x="239" y="252" width="8" height="16" rx="4" fill="#FB3766"/>
<rect x="242" y="243" width="2" height="70" rx="1" fill="#FB3766"/>
<rect x="23" y="241" width="8" height="16" rx="4" fill="#11CF8B"/>
<rect x="26" y="219" width="2" height="98" rx="1" fill="#11CF8B"/>
<rect x="71" y="207" width="8" height="16" rx="4" fill="#11CF8B"/>
<rect x="74" y="201" width="2" height="40" rx="1" fill="#11CF8B"/>
<rect x="215" y="258" width="8" height="16" rx="4" fill="#11CF8B"/>
<rect x="218" y="252" width="2" height="40" rx="1" fill="#11CF8B"/>
</g>
<rect x="4" y="4" width="312" height="684.907" rx="36" stroke="#0E0637" stroke-width="8"/>
<defs>
<clipPath id="clip0_52_455">
<rect width="320" height="692.907" rx="40" fill="white"/>
</clipPath>
</defs>
</svg>
