<svg width="140" height="140" viewBox="0 0 140 140" fill="none" xmlns="http://www.w3.org/2000/svg">
<rect width="140" height="140" rx="24" fill="url(#paint0_linear_52_610)"/>
<rect x="8.51712" y="8.51709" width="122.966" height="122.966" rx="16" fill="white"/>
<g clip-path="url(#clip0_52_610)">
<path d="M27.681 27.6809L27.681 55.9604H55.9605L55.9605 27.6809H27.681ZM49.3065 49.3064H34.335L34.335 34.3349H49.3065L49.3065 49.3064Z" fill="#131316"/>
<path d="M45.1477 38.4937H38.4937L38.4937 45.1476H45.1477L45.1477 38.4937Z" fill="#131316"/>
<path d="M84.5727 27.6809L84.5727 55.9604H112.852L112.852 27.6809H84.5727ZM106.198 49.3064H91.2267L91.2267 34.3349H106.198L106.198 49.3064Z" fill="#131316"/>
<path d="M102.039 38.4937H95.3854L95.3854 45.1476H102.039L102.039 38.4937Z" fill="#131316"/>
<path d="M27.681 84.5725L27.681 112.852H55.9605L55.9605 84.5725H27.681ZM49.3065 106.198H34.335L34.335 91.2265H49.3065L49.3065 106.198Z" fill="#131316"/>
<path d="M45.1477 95.3853H38.4937L38.4937 102.039H45.1477L45.1477 95.3853Z" fill="#131316"/>
<path d="M40.989 60.4517H34.335L34.335 67.1057H40.989L40.989 60.4517Z" fill="#131316"/>
<path d="M47.6429 73.7597L47.6429 67.1057H40.9889L40.9889 73.7597H47.4766L47.4766 80.4137H54.1306L54.1306 73.7597H47.6429Z" fill="#131316"/>
<path d="M80.913 40.4897H74.259L74.259 47.1437H80.913L80.913 40.4897Z" fill="#131316"/>
<path d="M67.6049 34.335H60.9509L60.9509 47.1439H67.6049L67.6049 34.335Z" fill="#131316"/>
<path d="M74.2589 27.6809H67.6049L67.6049 34.3349H74.2589L74.2589 27.6809Z" fill="#131316"/>
<path d="M67.6049 47.1438L67.6049 53.7978H60.9509L60.9509 60.4518H74.2589L74.2589 47.1438H67.6049Z" fill="#131316"/>
<path d="M74.2589 86.735L74.2589 80.2473H67.6049L67.6049 67.1057H60.9509L60.9509 80.4137H67.6049L67.6049 86.9013H74.2589L74.2589 93.389H87.5669L87.5669 86.735H74.2589Z" fill="#131316"/>
<path d="M80.913 60.4517H74.259L74.259 73.7596H80.913L80.913 60.4517Z" fill="#131316"/>
<path d="M106.198 66.9393L106.198 60.4517H94.0546L94.0546 67.1057H87.567L87.567 73.7596H94.2209L94.2209 80.2473H112.852L112.852 66.9393H106.198ZM106.198 73.5933H94.2209L94.2209 67.1057H106.198L106.198 73.5933Z" fill="#131316"/>
<path d="M112.852 86.7351H106.198L106.198 100.043H112.852L112.852 86.7351Z" fill="#131316"/>
<path d="M87.5669 73.7598H80.9129L80.9129 80.4138H87.5669L87.5669 73.7598Z" fill="#131316"/>
<path d="M94.2209 93.3892H87.567L87.567 100.043H94.2209L94.2209 93.3892Z" fill="#131316"/>
<path d="M100.875 86.7351H94.2209L94.2209 93.3891H100.875L100.875 86.7351Z" fill="#131316"/>
<path d="M94.2209 100.043L94.2209 112.852H100.875L100.875 106.697H106.198L106.198 100.043H94.2209Z" fill="#131316"/>
<path d="M67.6049 86.9014H60.9509L60.9509 99.5439H67.6049L67.6049 86.9014Z" fill="#131316"/>
<path d="M80.9129 106.198L80.9129 99.5439H67.6049L67.6049 112.852H74.2589L74.2589 106.198H80.7466L80.7466 112.852H87.4006L87.4006 106.198H80.9129Z" fill="#131316"/>
<path d="M60.951 60.4517H47.643L47.643 67.1057H60.951L60.951 60.4517Z" fill="#131316"/>
<path d="M34.335 67.1057H27.681L27.681 80.4137H34.335L34.335 67.1057Z" fill="#131316"/>
</g>
<defs>
<linearGradient id="paint0_linear_52_610" x1="34.6008" y1="34.6008" x2="140" y2="140" gradientUnits="userSpaceOnUse">
<stop stop-color="#DAF727"/>
<stop offset="1" stop-color="#725AEC"/>
</linearGradient>
<clipPath id="clip0_52_610">
<rect width="85.1711" height="85.1711" fill="white" transform="translate(27.681 27.6809)"/>
</clipPath>
</defs>
</svg>
