<svg width="20" height="20" viewBox="0 0 20 20" fill="none" xmlns="http://www.w3.org/2000/svg">
<g clip-path="url(#clip0_52_707)">
<path fill-rule="evenodd" clip-rule="evenodd" d="M6.22084 0.888252C7.19834 0.843252 7.51001 0.833252 10 0.833252C12.49 0.833252 12.8017 0.844085 13.7783 0.888252C14.755 0.932419 15.4217 1.08825 16.005 1.31409C16.6158 1.54492 17.17 1.90575 17.6283 2.37242C18.095 2.82992 18.455 3.38325 18.685 3.99492C18.9117 4.57825 19.0667 5.24492 19.1117 6.21992C19.1567 7.19909 19.1667 7.51075 19.1667 9.99992C19.1667 12.4899 19.1558 12.8016 19.1117 13.7791C19.0675 14.7541 18.9117 15.4208 18.685 16.0041C18.455 16.6158 18.0944 17.1701 17.6283 17.6283C17.17 18.0949 16.6158 18.4549 16.005 18.6849C15.4217 18.9116 14.755 19.0666 13.78 19.1116C12.8017 19.1566 12.49 19.1666 10 19.1666C7.51001 19.1666 7.19834 19.1558 6.22084 19.1116C5.24584 19.0674 4.57918 18.9116 3.99584 18.6849C3.38411 18.4549 2.82986 18.0943 2.37168 17.6283C1.90533 17.1705 1.54444 16.6165 1.31418 16.0049C1.08834 15.4216 0.933343 14.7549 0.888343 13.7799C0.843343 12.8008 0.833344 12.4891 0.833344 9.99992C0.833344 7.50992 0.844177 7.19825 0.888343 6.22159C0.93251 5.24492 1.08834 4.57825 1.31418 3.99492C1.54478 3.38332 1.90594 2.82935 2.37251 2.37159C2.83004 1.90534 3.38374 1.54445 3.99501 1.31409C4.57834 1.08825 5.24501 0.933252 6.22001 0.888252H6.22084ZM13.7042 2.53825C12.7375 2.49409 12.4475 2.48492 10 2.48492C7.55251 2.48492 7.26251 2.49409 6.29584 2.53825C5.40168 2.57909 4.91668 2.72825 4.59334 2.85409C4.16584 3.02075 3.86001 3.21825 3.53918 3.53909C3.23505 3.83496 3.00099 4.19515 2.85418 4.59325C2.72834 4.91659 2.57918 5.40159 2.53834 6.29575C2.49418 7.26242 2.48501 7.55242 2.48501 9.99992C2.48501 12.4474 2.49418 12.7374 2.53834 13.7041C2.57918 14.5983 2.72834 15.0833 2.85418 15.4066C3.00084 15.8041 3.23501 16.1649 3.53918 16.4608C3.83501 16.7649 4.19584 16.9991 4.59334 17.1458C4.91668 17.2716 5.40168 17.4208 6.29584 17.4616C7.26251 17.5058 7.55168 17.5149 10 17.5149C12.4483 17.5149 12.7375 17.5058 13.7042 17.4616C14.5983 17.4208 15.0833 17.2716 15.4067 17.1458C15.8342 16.9791 16.14 16.7816 16.4608 16.4608C16.765 16.1649 16.9992 15.8041 17.1458 15.4066C17.2717 15.0833 17.4208 14.5983 17.4617 13.7041C17.5058 12.7374 17.515 12.4474 17.515 9.99992C17.515 7.55242 17.5058 7.26242 17.4617 6.29575C17.4208 5.40159 17.2717 4.91659 17.1458 4.59325C16.9792 4.16575 16.7817 3.85992 16.4608 3.53909C16.165 3.23498 15.8048 3.00093 15.4067 2.85409C15.0833 2.72825 14.5983 2.57909 13.7042 2.53825ZM8.82918 12.8258C9.48306 13.0979 10.2112 13.1347 10.8891 12.9297C11.5671 12.7247 12.1528 12.2907 12.5464 11.7018C12.9399 11.1129 13.1167 10.4056 13.0467 9.70084C12.9767 8.99603 12.6642 8.3374 12.1625 7.83742C11.8427 7.51782 11.456 7.2731 11.0303 7.12087C10.6046 6.96865 10.1504 6.91272 9.70042 6.9571C9.25048 7.00148 8.81597 7.14507 8.42818 7.37753C8.04039 7.60999 7.70896 7.92554 7.45776 8.30146C7.20656 8.67738 7.04183 9.10433 6.97544 9.55155C6.90905 9.99878 6.94264 10.4552 7.07379 10.8878C7.20495 11.3205 7.43041 11.7188 7.73394 12.0539C8.03748 12.3889 8.41153 12.6526 8.82918 12.8258ZM6.66834 6.66825C7.10586 6.23073 7.62528 5.88367 8.19693 5.64689C8.76857 5.4101 9.38126 5.28823 10 5.28823C10.6188 5.28823 11.2314 5.4101 11.8031 5.64689C12.3747 5.88367 12.8942 6.23073 13.3317 6.66825C13.7692 7.10577 14.1163 7.62519 14.353 8.19683C14.5898 8.76848 14.7117 9.38117 14.7117 9.99992C14.7117 10.6187 14.5898 11.2314 14.353 11.803C14.1163 12.3747 13.7692 12.8941 13.3317 13.3316C12.4481 14.2152 11.2496 14.7116 10 14.7116C8.75039 14.7116 7.55196 14.2152 6.66834 13.3316C5.78473 12.448 5.28832 11.2495 5.28832 9.99992C5.28832 8.7503 5.78473 7.55187 6.66834 6.66825ZM15.7567 5.98992C15.8651 5.88764 15.9519 5.76465 16.0119 5.62823C16.072 5.49181 16.104 5.34473 16.1062 5.19569C16.1084 5.04666 16.0806 4.89871 16.0246 4.76059C15.9685 4.62248 15.8854 4.49701 15.78 4.39162C15.6746 4.28623 15.5491 4.20305 15.411 4.14702C15.2729 4.09098 15.1249 4.06323 14.9759 4.0654C14.8269 4.06758 14.6798 4.09963 14.5434 4.15967C14.4069 4.2197 14.284 4.3065 14.1817 4.41492C13.9828 4.62578 13.8739 4.90585 13.8781 5.19569C13.8823 5.48553 13.9993 5.76232 14.2043 5.96729C14.4093 6.17226 14.6861 6.28928 14.9759 6.2935C15.2657 6.29773 15.5458 6.18883 15.7567 5.98992Z" fill="#C8C8D0"/>
</g>
<defs>
<clipPath id="clip0_52_707">
<rect width="20" height="20" fill="white"/>
</clipPath>
</defs>
</svg>
