<svg width="20" height="20" viewBox="0 0 20 20" fill="none" xmlns="http://www.w3.org/2000/svg">
<g clip-path="url(#clip0_52_710)">
<path d="M20.0008 10.0618C20.0008 4.50427 15.5233 -0.000732422 10.0008 -0.000732422C4.47582 0.000517578 -0.00167847 4.50427 -0.00167847 10.063C-0.00167847 15.0843 3.65582 19.2468 8.43582 20.0018V12.9705H5.89832V10.063H8.43832V7.84427C8.43832 5.32302 9.93207 3.93052 12.2158 3.93052C13.3108 3.93052 14.4546 4.12677 14.4546 4.12677V6.60177H13.1933C11.9521 6.60177 11.5646 7.37802 11.5646 8.17427V10.0618H14.3371L13.8946 12.9693H11.5633V20.0005C16.3433 19.2455 20.0008 15.083 20.0008 10.0618Z" fill="#C8C8D0"/>
</g>
<defs>
<clipPath id="clip0_52_710">
<rect width="20" height="20" fill="white"/>
</clipPath>
</defs>
</svg>
