<svg width="20" height="20" viewBox="0 0 20 20" fill="none" xmlns="http://www.w3.org/2000/svg">
<g clip-path="url(#clip0_52_719)">
<path d="M16.9308 3.74339C15.6558 3.16839 14.2892 2.74339 12.86 2.50173C12.8473 2.49928 12.8341 2.50086 12.8223 2.50623C12.8105 2.51161 12.8007 2.52052 12.7942 2.53173C12.6192 2.83923 12.4242 3.24006 12.2875 3.55673C10.7717 3.33026 9.23076 3.33026 7.715 3.55673C7.56278 3.20578 7.39113 2.86358 7.20084 2.53173C7.19439 2.52038 7.18463 2.51127 7.17287 2.50561C7.1611 2.49995 7.1479 2.49802 7.135 2.50006C5.70667 2.74173 4.34 3.16673 3.06417 3.74256C3.05319 3.74716 3.04389 3.75501 3.0375 3.76506C0.44417 7.57756 -0.266663 11.2959 0.0825038 14.9676C0.0834754 14.9766 0.0862667 14.9853 0.0907079 14.9931C0.0951491 15.001 0.101147 15.0079 0.108337 15.0134C1.622 16.1154 3.31028 16.9549 5.1025 17.4967C5.115 17.5006 5.12836 17.5006 5.14085 17.4967C5.15334 17.4928 5.16437 17.4853 5.1725 17.4751C5.55817 16.9593 5.89992 16.4121 6.19417 15.8392C6.19825 15.8314 6.20061 15.8228 6.20107 15.814C6.20154 15.8051 6.2001 15.7963 6.19686 15.7881C6.19362 15.7799 6.18865 15.7725 6.18229 15.7663C6.17594 15.7602 6.16833 15.7555 6.16 15.7526C5.62167 15.5498 5.10007 15.3052 4.6 15.0209C4.59102 15.0158 4.58345 15.0085 4.57797 14.9997C4.57249 14.9909 4.56928 14.9809 4.56861 14.9706C4.56795 14.9603 4.56987 14.95 4.57418 14.9405C4.5785 14.9311 4.58508 14.923 4.59334 14.9167C4.69834 14.8392 4.80334 14.7584 4.90334 14.6776C4.91234 14.6703 4.92318 14.6657 4.93466 14.6642C4.94613 14.6627 4.95779 14.6645 4.96834 14.6692C8.24084 16.1392 11.785 16.1392 15.0192 14.6692C15.0297 14.6642 15.0415 14.6622 15.0532 14.6635C15.0648 14.6649 15.0758 14.6694 15.085 14.6767C15.185 14.7584 15.2892 14.8392 15.395 14.9167C15.4033 14.9228 15.41 14.9309 15.4145 14.9402C15.4189 14.9496 15.421 14.9598 15.4205 14.9702C15.42 14.9805 15.417 14.9905 15.4116 14.9994C15.4063 15.0082 15.3989 15.0156 15.39 15.0209C14.8917 15.3076 14.3733 15.5501 13.8292 15.7517C13.8208 15.7548 13.8132 15.7595 13.8068 15.7658C13.8005 15.772 13.7955 15.7795 13.7923 15.7877C13.789 15.796 13.7876 15.8049 13.7881 15.8138C13.7886 15.8227 13.7909 15.8313 13.795 15.8392C14.095 16.4117 14.4383 16.9567 14.8158 17.4742C14.8237 17.4848 14.8346 17.4928 14.8471 17.497C14.8597 17.5011 14.8732 17.5013 14.8858 17.4976C16.6811 16.9573 18.3722 16.1174 19.8875 15.0134C19.8949 15.0082 19.9011 15.0015 19.9057 14.9938C19.9103 14.986 19.9132 14.9774 19.9142 14.9684C20.3308 10.7234 19.2158 7.03506 16.9567 3.76673C16.9511 3.7561 16.942 3.74783 16.9308 3.74339ZM6.68334 12.7317C5.69834 12.7317 4.88584 11.8409 4.88584 10.7484C4.88584 9.65506 5.6825 8.76506 6.68334 8.76506C7.69167 8.76506 8.49667 9.66256 8.48084 10.7484C8.48084 11.8417 7.68417 12.7317 6.68334 12.7317ZM13.3292 12.7317C12.3433 12.7317 11.5317 11.8409 11.5317 10.7484C11.5317 9.65506 12.3275 8.76506 13.3292 8.76506C14.3375 8.76506 15.1425 9.66256 15.1267 10.7484C15.1267 11.8417 14.3383 12.7317 13.3292 12.7317Z" fill="#C8C8D0"/>
</g>
<defs>
<clipPath id="clip0_52_719">
<rect width="20" height="20" fill="white"/>
</clipPath>
</defs>
</svg>
