<svg width="285" height="335" viewBox="0 0 285 335" fill="none" xmlns="http://www.w3.org/2000/svg">
<rect y="0.0371094" width="285" height="334.844" rx="8" fill="white"/>
<rect x="23.6287" y="23.6663" width="63.2525" height="28.0867" rx="5.45281" fill="#F7F6FE"/>
<rect x="23.6287" y="23.6663" width="63.2525" height="28.0867" rx="5.45281" stroke="#E7E3FC" stroke-width="0.727041"/>
<path d="M46.8291 40.8457V33.4431H49.54C50.0654 33.4431 50.5003 33.5299 50.8449 33.7034C51.1895 33.8744 51.4473 34.107 51.6184 34.401C51.7895 34.6925 51.875 35.0215 51.875 35.3877C51.875 35.6962 51.8184 35.9564 51.7052 36.1685C51.5919 36.3781 51.4401 36.5468 51.2497 36.6745C51.0618 36.7998 50.8545 36.8914 50.628 36.9492V37.0215C50.8738 37.0336 51.1136 37.1131 51.3473 37.2601C51.5835 37.4047 51.7786 37.6107 51.9329 37.8782C52.0871 38.1456 52.1642 38.4709 52.1642 38.8541C52.1642 39.2324 52.075 39.5722 51.8967 39.8734C51.7208 40.1722 51.4485 40.4095 51.0798 40.5855C50.7112 40.759 50.2401 40.8457 49.6665 40.8457H46.8291ZM47.946 39.8878H49.5581C50.0931 39.8878 50.4762 39.7842 50.7075 39.577C50.9389 39.3698 51.0545 39.1107 51.0545 38.7999C51.0545 38.5661 50.9955 38.3517 50.8774 38.1565C50.7593 37.9613 50.5907 37.8059 50.3714 37.6902C50.1545 37.5745 49.8967 37.5167 49.5979 37.5167H47.946V39.8878ZM47.946 36.6456H49.4424C49.6931 36.6456 49.9184 36.5974 50.1184 36.501C50.3208 36.4046 50.481 36.2697 50.5991 36.0962C50.7196 35.9203 50.7798 35.713 50.7798 35.4745C50.7798 35.1685 50.6726 34.9118 50.4581 34.7046C50.2437 34.4973 49.9147 34.3937 49.4714 34.3937H47.946V36.6456ZM56.9191 38.5432V35.2938H58.0035V40.8457H56.9408V39.8842H56.883C56.7553 40.1806 56.5505 40.4276 56.2685 40.6252C55.989 40.8204 55.6408 40.918 55.2239 40.918C54.8673 40.918 54.5516 40.8397 54.2769 40.683C54.0046 40.524 53.7901 40.2891 53.6335 39.9782C53.4793 39.6674 53.4022 39.283 53.4022 38.8252V35.2938H54.4829V38.695C54.4829 39.0734 54.5878 39.3746 54.7974 39.5987C55.007 39.8228 55.2793 39.9348 55.6143 39.9348C55.8167 39.9348 56.0179 39.8842 56.2179 39.783C56.4203 39.6818 56.5878 39.5288 56.7203 39.324C56.8553 39.1192 56.9215 38.8589 56.9191 38.5432ZM60.1388 42.9277C59.9774 42.9277 59.8304 42.9144 59.6978 42.8879C59.5653 42.8638 59.4665 42.8373 59.4014 42.8084L59.6617 41.9228C59.8593 41.9759 60.0352 41.9987 60.1894 41.9915C60.3436 41.9843 60.4798 41.9265 60.5978 41.818C60.7183 41.7096 60.8244 41.5325 60.9159 41.2867L61.0497 40.918L59.0183 35.2938H60.1749L61.581 39.6023H61.6388L63.0449 35.2938H64.2052L61.9172 41.5867C61.8111 41.8758 61.6762 42.1204 61.5123 42.3204C61.3485 42.5229 61.1533 42.6747 60.9268 42.7759C60.7003 42.8771 60.4376 42.9277 60.1388 42.9277Z" fill="#FF6E00"/>
<path d="M138.554 35.3877C138.515 35.0456 138.356 34.7805 138.077 34.5925C137.797 34.4022 137.446 34.307 137.021 34.307C136.718 34.307 136.455 34.3552 136.233 34.4516C136.012 34.5455 135.839 34.6757 135.717 34.8419C135.596 35.0058 135.536 35.1925 135.536 35.4022C135.536 35.5781 135.577 35.7299 135.659 35.8576C135.743 35.9853 135.853 36.0926 135.988 36.1793C136.125 36.2637 136.272 36.3347 136.429 36.3926C136.585 36.448 136.736 36.4938 136.88 36.5299L137.603 36.7179C137.84 36.7757 138.082 36.854 138.33 36.9528C138.578 37.0516 138.808 37.1818 139.02 37.3432C139.232 37.5047 139.403 37.7047 139.534 37.9432C139.666 38.1818 139.732 38.4673 139.732 38.7999C139.732 39.2192 139.624 39.5915 139.407 39.9168C139.193 40.2421 138.881 40.4987 138.471 40.6867C138.064 40.8746 137.571 40.9686 136.993 40.9686C136.438 40.9686 135.959 40.8806 135.554 40.7047C135.149 40.5288 134.832 40.2794 134.603 39.9565C134.374 39.6312 134.248 39.2457 134.224 38.7999H135.344C135.366 39.0673 135.453 39.2902 135.605 39.4686C135.759 39.6445 135.955 39.7758 136.194 39.8625C136.435 39.9469 136.699 39.9891 136.985 39.9891C137.301 39.9891 137.582 39.9397 137.827 39.8409C138.076 39.7397 138.271 39.5999 138.413 39.4216C138.555 39.2408 138.626 39.03 138.626 38.789C138.626 38.5697 138.564 38.3902 138.438 38.2505C138.315 38.1107 138.148 37.995 137.936 37.9035C137.726 37.8119 137.489 37.7312 137.224 37.6613L136.349 37.4227C135.756 37.2613 135.286 37.0239 134.939 36.7107C134.595 36.3974 134.423 35.9829 134.423 35.4673C134.423 35.0407 134.538 34.6684 134.77 34.3504C135.001 34.0323 135.314 33.7853 135.709 33.6094C136.105 33.4311 136.55 33.3419 137.047 33.3419C137.548 33.3419 137.99 33.4299 138.373 33.6058C138.759 33.7817 139.062 34.0238 139.284 34.3323C139.506 34.6383 139.622 34.9901 139.631 35.3877H138.554ZM143.373 40.9578C142.826 40.9578 142.355 40.8409 141.96 40.6071C141.567 40.371 141.263 40.0397 141.049 39.6131C140.837 39.1842 140.731 38.6818 140.731 38.1059C140.731 37.5372 140.837 37.036 141.049 36.6022C141.263 36.1685 141.562 35.8299 141.945 35.5865C142.331 35.3432 142.782 35.2215 143.297 35.2215C143.61 35.2215 143.914 35.2733 144.208 35.3769C144.502 35.4805 144.766 35.6432 145 35.8649C145.233 36.0865 145.418 36.3745 145.553 36.7287C145.688 37.0805 145.755 37.5083 145.755 38.0119V38.395H141.342V37.5854H144.696C144.696 37.301 144.638 37.0492 144.523 36.8299C144.407 36.6082 144.244 36.4335 144.035 36.3058C143.827 36.1781 143.584 36.1143 143.304 36.1143C143.001 36.1143 142.736 36.189 142.509 36.3384C142.285 36.4854 142.112 36.6781 141.989 36.9167C141.868 37.1528 141.808 37.4095 141.808 37.6866V38.3191C141.808 38.6902 141.873 39.0059 142.003 39.2661C142.136 39.5264 142.32 39.7252 142.556 39.8625C142.792 39.9975 143.068 40.065 143.384 40.065C143.589 40.065 143.776 40.036 143.944 39.9782C144.113 39.918 144.259 39.8288 144.382 39.7107C144.504 39.5927 144.598 39.4469 144.664 39.2734L145.686 39.4577C145.605 39.7589 145.458 40.0228 145.245 40.2493C145.036 40.4734 144.772 40.6481 144.454 40.7734C144.138 40.8963 143.778 40.9578 143.373 40.9578ZM148.035 33.4431V40.8457H146.954V33.4431H148.035ZM150.57 33.4431V40.8457H149.489V33.4431H150.57Z" fill="#9C9CAB"/>
<path d="M217.169 35.8504H216.042C215.998 35.6094 215.918 35.3974 215.799 35.2142C215.681 35.0311 215.537 34.8757 215.366 34.748C215.195 34.6202 215.003 34.5239 214.791 34.4588C214.581 34.3937 214.358 34.3612 214.122 34.3612C213.696 34.3612 213.314 34.4684 212.976 34.6829C212.642 34.8974 212.376 35.2118 212.181 35.6263C211.989 36.0408 211.892 36.5468 211.892 37.1444C211.892 37.7468 211.989 38.2553 212.181 38.6697C212.376 39.0842 212.643 39.3975 212.98 39.6095C213.317 39.8216 213.697 39.9276 214.119 39.9276C214.352 39.9276 214.574 39.8963 214.784 39.8336C214.996 39.7686 215.187 39.6734 215.358 39.5481C215.53 39.4228 215.674 39.2698 215.792 39.089C215.913 38.9059 215.996 38.6963 216.042 38.4601L217.169 38.4637C217.109 38.8276 216.992 39.1625 216.819 39.4686C216.648 39.7722 216.427 40.0348 216.157 40.2565C215.89 40.4758 215.584 40.6457 215.239 40.7662C214.895 40.8867 214.519 40.9469 214.111 40.9469C213.47 40.9469 212.899 40.7951 212.398 40.4915C211.897 40.1854 211.502 39.7481 211.213 39.1794C210.926 38.6107 210.782 37.9324 210.782 37.1444C210.782 36.354 210.927 35.6757 211.216 35.1094C211.505 34.5407 211.901 34.1046 212.402 33.8009C212.903 33.4949 213.473 33.3419 214.111 33.3419C214.504 33.3419 214.871 33.3985 215.21 33.5118C215.552 33.6226 215.86 33.7865 216.132 34.0034C216.404 34.2178 216.63 34.4805 216.808 34.7913C216.986 35.0998 217.107 35.4528 217.169 35.8504ZM220.758 40.9578C220.237 40.9578 219.783 40.8385 219.395 40.5999C219.007 40.3614 218.706 40.0276 218.491 39.5987C218.277 39.1698 218.17 38.6685 218.17 38.095C218.17 37.5191 218.277 37.0155 218.491 36.5841C218.706 36.1528 219.007 35.8179 219.395 35.5793C219.783 35.3407 220.237 35.2215 220.758 35.2215C221.278 35.2215 221.732 35.3407 222.12 35.5793C222.508 35.8179 222.81 36.1528 223.024 36.5841C223.238 37.0155 223.346 37.5191 223.346 38.095C223.346 38.6685 223.238 39.1698 223.024 39.5987C222.81 40.0276 222.508 40.3614 222.12 40.5999C221.732 40.8385 221.278 40.9578 220.758 40.9578ZM220.761 40.0505C221.099 40.0505 221.378 39.9613 221.6 39.783C221.822 39.6047 221.985 39.3674 222.091 39.071C222.2 38.7746 222.254 38.4481 222.254 38.0914C222.254 37.7372 222.2 37.4119 222.091 37.1155C221.985 36.8167 221.822 36.5769 221.6 36.3962C221.378 36.2155 221.099 36.1251 220.761 36.1251C220.422 36.1251 220.14 36.2155 219.916 36.3962C219.694 36.5769 219.529 36.8167 219.42 37.1155C219.314 37.4119 219.261 37.7372 219.261 38.0914C219.261 38.4481 219.314 38.7746 219.42 39.071C219.529 39.3674 219.694 39.6047 219.916 39.783C220.14 39.9613 220.422 40.0505 220.761 40.0505ZM225.633 37.5492V40.8457H224.552V35.2938H225.589V36.1974H225.658C225.786 35.9034 225.986 35.6673 226.258 35.4889C226.533 35.3106 226.879 35.2215 227.296 35.2215C227.674 35.2215 228.005 35.301 228.29 35.46C228.574 35.6167 228.794 35.8504 228.951 36.1612C229.108 36.4721 229.186 36.8564 229.186 37.3143V40.8457H228.105V37.4444C228.105 37.042 228 36.7275 227.791 36.501C227.581 36.2721 227.293 36.1576 226.927 36.1576C226.676 36.1576 226.453 36.2119 226.258 36.3203C226.065 36.4287 225.912 36.5878 225.799 36.7974C225.688 37.0046 225.633 37.2553 225.633 37.5492ZM235.186 35.2938L233.173 40.8457H232.016L229.999 35.2938H231.159L232.566 39.5662H232.623L234.026 35.2938H235.186ZM238.406 40.9578C237.859 40.9578 237.388 40.8409 236.992 40.6071C236.6 40.371 236.296 40.0397 236.082 39.6131C235.87 39.1842 235.764 38.6818 235.764 38.1059C235.764 37.5372 235.87 37.036 236.082 36.6022C236.296 36.1685 236.595 35.8299 236.978 35.5865C237.364 35.3432 237.814 35.2215 238.33 35.2215C238.643 35.2215 238.947 35.2733 239.241 35.3769C239.535 35.4805 239.799 35.6432 240.032 35.8649C240.266 36.0865 240.45 36.3745 240.585 36.7287C240.72 37.0805 240.788 37.5083 240.788 38.0119V38.395H236.374V37.5854H239.729C239.729 37.301 239.671 37.0492 239.555 36.8299C239.44 36.6082 239.277 36.4335 239.067 36.3058C238.86 36.1781 238.617 36.1143 238.337 36.1143C238.033 36.1143 237.768 36.189 237.542 36.3384C237.318 36.4854 237.144 36.6781 237.021 36.9167C236.901 37.1528 236.841 37.4095 236.841 37.6866V38.3191C236.841 38.6902 236.906 39.0059 237.036 39.2661C237.168 39.5264 237.353 39.7252 237.589 39.8625C237.825 39.9975 238.101 40.065 238.417 40.065C238.621 40.065 238.808 40.036 238.977 39.9782C239.146 39.918 239.291 39.8288 239.414 39.7107C239.537 39.5927 239.631 39.4469 239.696 39.2734L240.719 39.4577C240.637 39.7589 240.49 40.0228 240.278 40.2493C240.068 40.4734 239.805 40.6481 239.487 40.7734C239.171 40.8963 238.811 40.9578 238.406 40.9578ZM241.987 40.8457V35.2938H243.031V36.1757H243.089C243.191 35.8769 243.369 35.642 243.624 35.4709C243.882 35.2974 244.174 35.2106 244.499 35.2106C244.566 35.2106 244.646 35.213 244.738 35.2178C244.832 35.2227 244.905 35.2287 244.958 35.2359V36.2697C244.915 36.2576 244.838 36.2444 244.727 36.2299C244.616 36.2131 244.505 36.2046 244.394 36.2046C244.139 36.2046 243.911 36.2588 243.711 36.3673C243.513 36.4733 243.357 36.6215 243.241 36.8119C243.125 36.9998 243.068 37.2143 243.068 37.4553V40.8457H241.987ZM248.813 35.2938V36.1612H245.78V35.2938H248.813ZM246.594 33.9636H247.674V39.2155C247.674 39.4252 247.706 39.583 247.768 39.689C247.831 39.7927 247.912 39.8638 248.011 39.9023C248.112 39.9385 248.221 39.9565 248.339 39.9565C248.426 39.9565 248.502 39.9505 248.567 39.9385C248.632 39.9264 248.683 39.9168 248.719 39.9095L248.914 40.8023C248.851 40.8264 248.762 40.8505 248.647 40.8746C248.531 40.9011 248.386 40.9156 248.213 40.918C247.929 40.9228 247.664 40.8722 247.418 40.7662C247.172 40.6602 246.973 40.4963 246.821 40.2746C246.67 40.0529 246.594 39.7746 246.594 39.4396V33.9636Z" fill="#9C9CAB"/>
<path d="M122.137 109.026V82.5878H123.831V109.026H122.137ZM127.435 90.7876C127.325 89.81 126.87 89.0527 126.072 88.5156C125.273 87.9717 124.268 87.6998 123.056 87.6998C122.189 87.6998 121.438 87.8375 120.805 88.1129C120.171 88.3814 119.679 88.7532 119.328 89.2282C118.984 89.6964 118.812 90.23 118.812 90.8289C118.812 91.3315 118.929 91.7653 119.163 92.1302C119.404 92.4951 119.717 92.8015 120.103 93.0493C120.495 93.2903 120.915 93.4934 121.362 93.6586C121.81 93.817 122.24 93.9478 122.653 94.0511L124.719 94.5881C125.394 94.7533 126.085 94.9771 126.795 95.2594C127.504 95.5416 128.161 95.9134 128.767 96.3747C129.373 96.836 129.862 97.4074 130.234 98.089C130.612 98.7706 130.802 99.5865 130.802 100.537C130.802 101.735 130.492 102.798 129.872 103.728C129.259 104.657 128.368 105.39 127.197 105.927C126.034 106.464 124.626 106.733 122.974 106.733C121.39 106.733 120.02 106.482 118.863 105.979C117.707 105.476 116.801 104.764 116.147 103.841C115.493 102.912 115.132 101.81 115.063 100.537H118.264C118.326 101.301 118.574 101.938 119.008 102.447C119.448 102.95 120.01 103.325 120.691 103.573C121.38 103.814 122.134 103.934 122.953 103.934C123.855 103.934 124.657 103.793 125.359 103.511C126.068 103.222 126.626 102.822 127.032 102.313C127.438 101.797 127.641 101.194 127.641 100.506C127.641 99.8791 127.462 99.3662 127.104 98.9668C126.753 98.5675 126.275 98.2371 125.669 97.9754C125.07 97.7138 124.392 97.4832 123.634 97.2835L121.135 96.6019C119.442 96.1406 118.099 95.4625 117.108 94.5674C116.123 93.6724 115.631 92.4882 115.631 91.0148C115.631 89.7962 115.961 88.7325 116.622 87.8237C117.283 86.9149 118.178 86.2092 119.307 85.7066C120.436 85.1971 121.71 84.9424 123.128 84.9424C124.56 84.9424 125.824 85.1937 126.919 85.6963C128.02 86.1989 128.888 86.8908 129.521 87.7721C130.154 88.6464 130.485 89.6516 130.512 90.7876H127.435Z" fill="#C8C8D0"/>
<path d="M141.016 106.671C139.722 106.671 138.558 106.423 137.526 105.927C136.5 105.425 135.68 104.736 135.068 103.862C134.455 102.988 134.128 101.989 134.087 100.867H137.185C137.261 101.776 137.663 102.523 138.393 103.108C139.123 103.693 139.997 103.986 141.016 103.986C141.829 103.986 142.548 103.8 143.175 103.428C143.808 103.05 144.304 102.53 144.662 101.869C145.027 101.208 145.209 100.454 145.209 99.6071C145.209 98.7465 145.023 97.9789 144.651 97.3042C144.28 96.6294 143.767 96.0993 143.113 95.7138C142.465 95.3282 141.722 95.132 140.882 95.1251C140.242 95.1251 139.598 95.2353 138.951 95.4556C138.304 95.6759 137.78 95.965 137.381 96.3231L134.458 95.8893L135.646 85.2316H147.275V87.9683H138.3L137.629 93.8858H137.753C138.166 93.4865 138.713 93.1526 139.395 92.8841C140.083 92.6156 140.82 92.4813 141.605 92.4813C142.892 92.4813 144.039 92.7877 145.044 93.4004C146.056 94.0132 146.851 94.8497 147.429 95.91C148.015 96.9634 148.304 98.1751 148.297 99.5452C148.304 100.915 147.994 102.137 147.367 103.211C146.748 104.285 145.887 105.132 144.786 105.752C143.691 106.365 142.434 106.671 141.016 106.671ZM159.142 106.733C157.51 106.726 156.116 106.296 154.959 105.442C153.802 104.588 152.918 103.346 152.305 101.714C151.692 100.082 151.386 98.1166 151.386 95.817C151.386 93.5244 151.692 91.5656 152.305 89.9408C152.924 88.316 153.813 87.0767 154.969 86.223C156.133 85.3693 157.524 84.9424 159.142 84.9424C160.759 84.9424 162.147 85.3727 163.303 86.2333C164.46 87.087 165.345 88.3263 165.958 89.9511C166.577 91.5691 166.887 93.5244 166.887 95.817C166.887 98.1235 166.581 100.093 165.968 101.724C165.355 103.349 164.47 104.592 163.314 105.452C162.157 106.306 160.766 106.733 159.142 106.733ZM159.142 103.976C160.574 103.976 161.692 103.277 162.498 101.879C163.31 100.482 163.717 98.4608 163.717 95.817C163.717 94.0614 163.531 92.5777 163.159 91.366C162.794 90.1473 162.267 89.2248 161.579 88.5983C160.897 87.9648 160.085 87.6481 159.142 87.6481C157.716 87.6481 156.598 88.3504 155.785 89.7549C154.973 91.1594 154.563 93.1801 154.556 95.817C154.556 97.5795 154.739 99.0701 155.104 100.289C155.475 101.5 156.002 102.42 156.684 103.046C157.365 103.666 158.185 103.976 159.142 103.976Z" fill="#0E0637"/>
<line x1="172.181" y1="81.3408" x2="172.181" y2="110.422" stroke="#FF6E00" stroke-width="1.45408"/>
<path d="M81.0282 138.696L83.7153 143.195V145.831H84.6008V143.195L87.288 138.696H86.2905L84.1632 142.238L82.0664 138.696H81.0282ZM88.2704 145.556C88.6572 145.78 89.1051 145.892 89.614 145.892C90.1128 145.892 90.5606 145.78 90.9474 145.556C91.3342 145.332 91.6396 145.027 91.8635 144.62C92.0772 144.223 92.1892 143.765 92.1892 143.236C92.1892 142.716 92.0772 142.258 91.8635 141.851C91.6396 141.454 91.3342 141.139 90.9474 140.915C90.5606 140.691 90.1128 140.579 89.614 140.579C89.1051 140.579 88.6572 140.691 88.2704 140.915C87.8837 141.139 87.5783 141.454 87.3646 141.851C87.1406 142.258 87.0388 142.716 87.0388 143.236C87.0388 143.765 87.1406 144.223 87.3646 144.62C87.5783 145.027 87.8837 145.332 88.2704 145.556ZM90.5097 144.905C90.2451 145.068 89.9499 145.149 89.614 145.149C89.2679 145.149 88.9728 145.068 88.7081 144.905C88.4435 144.742 88.2501 144.518 88.1076 144.223C87.9651 143.938 87.8938 143.602 87.8938 143.236C87.8938 142.869 87.9651 142.543 88.1076 142.248C88.2501 141.963 88.4435 141.729 88.7081 141.566C88.9728 141.403 89.2679 141.322 89.614 141.322C89.9499 141.322 90.2451 141.403 90.5097 141.566C90.7744 141.729 90.9779 141.963 91.1204 142.248C91.2629 142.543 91.3342 142.869 91.3342 143.236C91.3342 143.602 91.2629 143.938 91.1204 144.223C90.9779 144.518 90.7744 144.742 90.5097 144.905ZM97.6147 140.64H96.78V143.236C96.78 143.826 96.6375 144.284 96.3729 144.62C96.1083 144.966 95.7317 145.129 95.2634 145.129C94.8258 145.129 94.4899 144.996 94.2558 144.711C94.0217 144.426 93.9097 144.019 93.9097 143.48V140.64H93.075V143.531C93.075 144.345 93.2583 144.946 93.6349 145.322C94.0013 145.709 94.5 145.892 95.1209 145.892C95.8334 145.892 96.3831 145.648 96.78 145.139L96.892 145.831H97.6147V140.64ZM105.284 145.404C105.681 145.078 105.936 144.62 106.048 144.04H105.213C105.132 144.386 104.969 144.661 104.714 144.854C104.45 145.057 104.134 145.149 103.757 145.149C103.259 145.149 102.852 144.976 102.546 144.62C102.241 144.264 102.088 143.795 102.088 143.225C102.088 142.666 102.241 142.207 102.546 141.851C102.852 141.505 103.259 141.322 103.757 141.322C104.124 141.322 104.429 141.424 104.694 141.617C104.948 141.821 105.121 142.085 105.203 142.411H106.048C105.946 141.841 105.691 141.393 105.294 141.067C104.897 140.742 104.399 140.579 103.788 140.579C103.279 140.579 102.841 140.691 102.455 140.915C102.068 141.139 101.762 141.444 101.549 141.841C101.335 142.248 101.233 142.706 101.233 143.225C101.233 143.755 101.335 144.213 101.549 144.62C101.752 145.027 102.047 145.332 102.434 145.556C102.811 145.78 103.249 145.892 103.757 145.892C104.368 145.892 104.877 145.729 105.284 145.404ZM111.868 145.068H111.613C111.379 145.068 111.267 144.946 111.267 144.691V142.452C111.267 141.851 111.084 141.393 110.718 141.067C110.351 140.742 109.842 140.579 109.181 140.579C108.55 140.579 108.041 140.721 107.654 141.006C107.267 141.291 107.043 141.688 106.982 142.197H107.817C107.868 141.933 108.01 141.729 108.244 141.566C108.478 141.403 108.774 141.322 109.14 141.322C109.547 141.322 109.863 141.424 110.087 141.607C110.31 141.8 110.433 142.065 110.433 142.401V142.757H108.906C108.224 142.757 107.705 142.9 107.349 143.174C106.992 143.459 106.819 143.856 106.819 144.376C106.819 144.844 106.992 145.22 107.338 145.485C107.684 145.76 108.153 145.892 108.733 145.892C109.486 145.892 110.066 145.607 110.473 145.027C110.473 145.292 110.555 145.495 110.697 145.627C110.84 145.77 111.074 145.831 111.41 145.831H111.868V145.068ZM110.433 143.459V143.714C110.433 144.162 110.28 144.518 109.995 144.783C109.7 145.047 109.303 145.18 108.794 145.18C108.448 145.18 108.173 145.108 107.969 144.946C107.766 144.793 107.664 144.589 107.664 144.325C107.664 143.755 108.051 143.459 108.824 143.459H110.433ZM116.571 141.149C116.184 140.772 115.685 140.579 115.054 140.579C114.301 140.579 113.731 140.833 113.344 141.342L113.232 140.64H112.509V145.831H113.344V143.236C113.344 142.655 113.476 142.197 113.761 141.851C114.036 141.515 114.423 141.342 114.912 141.342C115.359 141.342 115.706 141.485 115.95 141.77C116.194 142.055 116.316 142.462 116.316 142.991V145.831H117.151V142.94C117.151 142.126 116.957 141.536 116.571 141.149ZM124.777 140.894C124.401 140.691 123.973 140.579 123.495 140.579C122.742 140.579 122.141 140.884 121.714 141.475V138.706H120.879V145.831H121.602L121.714 145.037C121.876 145.302 122.111 145.516 122.416 145.668C122.711 145.821 123.067 145.892 123.495 145.892C123.963 145.892 124.391 145.78 124.777 145.556C125.154 145.332 125.449 145.027 125.663 144.62C125.877 144.223 125.989 143.765 125.989 143.236C125.989 142.686 125.877 142.218 125.663 141.811C125.449 141.414 125.154 141.108 124.777 140.894ZM124.655 144.62C124.34 144.976 123.922 145.149 123.413 145.149C123.078 145.149 122.782 145.068 122.518 144.905C122.253 144.742 122.06 144.518 121.917 144.223C121.775 143.928 121.703 143.592 121.703 143.215C121.703 142.849 121.775 142.523 121.917 142.238C122.06 141.953 122.253 141.729 122.518 141.566C122.782 141.403 123.078 141.322 123.413 141.322C123.922 141.322 124.34 141.505 124.655 141.861C124.971 142.218 125.134 142.676 125.134 143.236C125.134 143.806 124.971 144.264 124.655 144.62ZM131.411 140.64H130.576V143.236C130.576 143.826 130.434 144.284 130.169 144.62C129.904 144.966 129.528 145.129 129.059 145.129C128.622 145.129 128.286 144.996 128.052 144.711C127.818 144.426 127.706 144.019 127.706 143.48V140.64H126.871V143.531C126.871 144.345 127.054 144.946 127.431 145.322C127.797 145.709 128.296 145.892 128.917 145.892C129.629 145.892 130.179 145.648 130.576 145.139L130.688 145.831H131.411V140.64ZM132.915 140.64H132.029L134.065 145.872L133.8 146.493C133.719 146.676 133.658 146.808 133.607 146.89C133.556 146.971 133.495 147.022 133.414 147.052C133.332 147.093 133.21 147.103 133.047 147.103H132.304V147.867H133.302C133.536 147.867 133.729 147.836 133.872 147.755C134.014 147.684 134.126 147.572 134.228 147.409C134.32 147.256 134.432 147.022 134.554 146.706L136.946 140.64H136.06L134.513 144.874L132.915 140.64ZM144.701 140.64H143.866V143.236C143.866 143.826 143.723 144.284 143.459 144.62C143.194 144.966 142.817 145.129 142.349 145.129C141.912 145.129 141.576 144.996 141.342 144.711C141.107 144.426 140.996 144.019 140.996 143.48V140.64H140.161V143.531C140.161 144.345 140.344 144.946 140.721 145.322C141.087 145.709 141.586 145.892 142.207 145.892C142.919 145.892 143.469 145.648 143.866 145.139L143.978 145.831H144.701V140.64ZM149.737 140.894C149.36 140.691 148.933 140.579 148.454 140.579C147.701 140.579 147.1 140.884 146.673 141.475L146.561 140.64H145.838V147.867H146.673V145.037C146.836 145.302 147.07 145.516 147.375 145.668C147.67 145.821 148.027 145.892 148.454 145.892C148.922 145.892 149.35 145.78 149.737 145.556C150.113 145.332 150.408 145.027 150.622 144.62C150.836 144.223 150.948 143.765 150.948 143.236C150.948 142.686 150.836 142.218 150.622 141.811C150.408 141.414 150.113 141.108 149.737 140.894ZM149.615 144.62C149.299 144.976 148.882 145.149 148.373 145.149C148.037 145.149 147.742 145.068 147.477 144.905C147.212 144.742 147.019 144.518 146.877 144.223C146.734 143.928 146.663 143.592 146.663 143.215C146.663 142.849 146.734 142.523 146.877 142.238C147.019 141.953 147.212 141.729 147.477 141.566C147.742 141.403 148.037 141.322 148.373 141.322C148.882 141.322 149.299 141.505 149.615 141.861C149.93 142.218 150.093 142.676 150.093 143.236C150.093 143.806 149.93 144.264 149.615 144.62ZM154.912 141.403V144.477C154.912 144.946 155.013 145.292 155.217 145.505C155.421 145.729 155.777 145.831 156.265 145.831H157.222V145.068H156.316C156.103 145.068 155.95 145.027 155.868 144.935C155.787 144.844 155.746 144.691 155.746 144.467V141.403H157.059V140.64H155.746V139.184H154.912V140.64H153.975V141.403H154.912ZM158.735 145.556C159.122 145.78 159.57 145.892 160.079 145.892C160.577 145.892 161.025 145.78 161.412 145.556C161.799 145.332 162.104 145.027 162.328 144.62C162.542 144.223 162.654 143.765 162.654 143.236C162.654 142.716 162.542 142.258 162.328 141.851C162.104 141.454 161.799 141.139 161.412 140.915C161.025 140.691 160.577 140.579 160.079 140.579C159.57 140.579 159.122 140.691 158.735 140.915C158.348 141.139 158.043 141.454 157.829 141.851C157.605 142.258 157.504 142.716 157.504 143.236C157.504 143.765 157.605 144.223 157.829 144.62C158.043 145.027 158.348 145.332 158.735 145.556ZM160.974 144.905C160.71 145.068 160.415 145.149 160.079 145.149C159.733 145.149 159.437 145.068 159.173 144.905C158.908 144.742 158.715 144.518 158.572 144.223C158.43 143.938 158.359 143.602 158.359 143.236C158.359 142.869 158.43 142.543 158.572 142.248C158.715 141.963 158.908 141.729 159.173 141.566C159.437 141.403 159.733 141.322 160.079 141.322C160.415 141.322 160.71 141.403 160.974 141.566C161.239 141.729 161.443 141.963 161.585 142.248C161.728 142.543 161.799 142.869 161.799 143.236C161.799 143.602 161.728 143.938 161.585 144.223C161.443 144.518 161.239 144.742 160.974 144.905ZM171.171 144.813C171.354 144.508 171.456 144.172 171.456 143.795C171.456 143.174 171.242 142.727 170.815 142.442C170.387 142.157 169.817 141.953 169.105 141.831C168.657 141.76 168.3 141.688 168.046 141.607C167.781 141.526 167.578 141.414 167.415 141.261C167.252 141.108 167.171 140.894 167.171 140.62C167.171 140.253 167.303 139.958 167.588 139.754C167.863 139.551 168.239 139.439 168.718 139.439C169.186 139.439 169.583 139.571 169.909 139.816C170.224 140.07 170.407 140.406 170.469 140.813H171.344C171.303 140.243 171.1 139.775 170.723 139.388C170.336 139.001 169.848 138.767 169.237 138.676V137.607H168.463V138.645C167.812 138.696 167.283 138.899 166.886 139.266C166.479 139.632 166.285 140.101 166.285 140.671C166.285 141.302 166.489 141.749 166.916 142.024C167.334 142.309 167.904 142.503 168.616 142.625C169.064 142.706 169.41 142.777 169.675 142.859C169.939 142.94 170.153 143.052 170.316 143.215C170.479 143.378 170.57 143.602 170.57 143.877C170.57 144.264 170.418 144.559 170.112 144.772C169.807 144.986 169.42 145.088 168.932 145.088C168.382 145.088 167.934 144.946 167.588 144.661C167.232 144.376 167.038 143.989 167.008 143.5H166.132C166.153 144.152 166.377 144.681 166.784 145.108C167.191 145.536 167.751 145.79 168.463 145.872V146.92H169.237V145.882C169.664 145.851 170.051 145.739 170.387 145.556C170.723 145.373 170.988 145.119 171.171 144.813ZM175.053 142.706L172.285 145.108V145.831H177.191V145.047H173.465L175.603 143.236C175.939 142.951 176.214 142.686 176.427 142.462C176.631 142.238 176.804 141.984 176.936 141.699C177.069 141.424 177.14 141.118 177.14 140.772C177.14 140.121 176.916 139.602 176.488 139.215C176.061 138.828 175.46 138.635 174.707 138.635C174.239 138.635 173.822 138.737 173.455 138.93C173.089 139.134 172.814 139.398 172.62 139.744C172.417 140.09 172.325 140.487 172.325 140.935V141.118H173.18V140.986C173.18 140.497 173.313 140.111 173.598 139.826C173.872 139.541 174.239 139.398 174.707 139.398C175.175 139.398 175.552 139.531 175.837 139.775C176.122 140.029 176.264 140.375 176.264 140.813C176.264 141.169 176.163 141.485 175.959 141.77C175.755 142.055 175.45 142.36 175.053 142.706ZM182.101 141.363C181.745 141.159 181.348 141.057 180.9 141.057C180.574 141.057 180.249 141.118 179.933 141.241C179.618 141.363 179.353 141.566 179.149 141.831L179.312 139.49H182.763V138.706H178.528L178.294 142.757L179.119 142.777C179.251 142.411 179.475 142.157 179.791 142.014C180.096 141.882 180.411 141.811 180.737 141.811C181.226 141.811 181.613 141.963 181.908 142.269C182.193 142.574 182.345 142.971 182.345 143.459C182.345 143.816 182.264 144.121 182.121 144.365C181.969 144.62 181.765 144.813 181.521 144.935C181.277 145.057 181.012 145.119 180.727 145.119C180.238 145.119 179.831 144.976 179.526 144.691C179.221 144.406 179.048 144.04 179.007 143.612H178.152C178.172 144.04 178.294 144.416 178.498 144.762C178.701 145.108 178.997 145.383 179.383 145.587C179.76 145.79 180.208 145.882 180.727 145.882C181.175 145.882 181.592 145.79 181.979 145.597C182.356 145.414 182.661 145.129 182.885 144.762C183.109 144.396 183.221 143.958 183.221 143.449C183.221 142.981 183.119 142.574 182.926 142.207C182.722 141.851 182.447 141.566 182.101 141.363ZM184.915 145.068C184.773 144.864 184.579 144.762 184.335 144.762C184.121 144.762 183.958 144.823 183.836 144.935C183.714 145.047 183.663 145.19 183.663 145.353C183.663 145.536 183.714 145.668 183.816 145.76C183.918 145.862 184.04 145.902 184.203 145.902C184.345 145.902 184.467 145.862 184.549 145.78C184.549 145.811 184.559 145.851 184.559 145.912C184.559 146.126 184.488 146.309 184.355 146.472C184.213 146.635 183.999 146.727 183.704 146.727V147.205C184.152 147.195 184.498 147.063 184.752 146.818C185.007 146.574 185.139 146.238 185.139 145.801C185.139 145.516 185.058 145.271 184.915 145.068ZM185.457 142.106V142.431C185.457 143.134 185.569 143.744 185.793 144.264C186.017 144.793 186.343 145.19 186.75 145.475C187.157 145.76 187.625 145.892 188.165 145.892C188.694 145.892 189.162 145.76 189.569 145.475C189.976 145.19 190.292 144.793 190.516 144.264C190.74 143.744 190.862 143.134 190.862 142.431V142.106C190.862 141.434 190.74 140.844 190.516 140.314C190.292 139.795 189.966 139.388 189.559 139.093C189.152 138.798 188.684 138.645 188.165 138.645C187.635 138.645 187.157 138.798 186.75 139.093C186.343 139.388 186.017 139.795 185.793 140.314C185.569 140.844 185.457 141.434 185.457 142.106ZM189.763 140.691C189.915 141.098 189.997 141.587 189.997 142.136V142.401C189.997 142.961 189.915 143.439 189.763 143.846C189.61 144.253 189.396 144.569 189.121 144.783C188.846 145.007 188.531 145.108 188.165 145.108C187.798 145.108 187.472 145.007 187.198 144.783C186.913 144.569 186.699 144.253 186.546 143.846C186.393 143.439 186.322 142.961 186.322 142.401V142.136C186.322 141.587 186.393 141.098 186.546 140.691C186.699 140.284 186.913 139.978 187.198 139.754C187.472 139.541 187.798 139.429 188.165 139.429C188.531 139.429 188.846 139.541 189.121 139.754C189.396 139.978 189.61 140.284 189.763 140.691ZM191.819 142.106V142.431C191.819 143.134 191.931 143.744 192.155 144.264C192.378 144.793 192.704 145.19 193.111 145.475C193.518 145.76 193.987 145.892 194.526 145.892C195.055 145.892 195.524 145.76 195.931 145.475C196.338 145.19 196.653 144.793 196.877 144.264C197.101 143.744 197.223 143.134 197.223 142.431V142.106C197.223 141.434 197.101 140.844 196.877 140.314C196.653 139.795 196.328 139.388 195.921 139.093C195.513 138.798 195.045 138.645 194.526 138.645C193.997 138.645 193.518 138.798 193.111 139.093C192.704 139.388 192.378 139.795 192.155 140.314C191.931 140.844 191.819 141.434 191.819 142.106ZM196.124 140.691C196.277 141.098 196.358 141.587 196.358 142.136V142.401C196.358 142.961 196.277 143.439 196.124 143.846C195.971 144.253 195.758 144.569 195.483 144.783C195.208 145.007 194.893 145.108 194.526 145.108C194.16 145.108 193.834 145.007 193.559 144.783C193.274 144.569 193.06 144.253 192.908 143.846C192.755 143.439 192.684 142.961 192.684 142.401V142.136C192.684 141.587 192.755 141.098 192.908 140.691C193.06 140.284 193.274 139.978 193.559 139.754C193.834 139.541 194.16 139.429 194.526 139.429C194.893 139.429 195.208 139.541 195.483 139.754C195.758 139.978 195.971 140.284 196.124 140.691ZM198.18 142.106V142.431C198.18 143.134 198.292 143.744 198.516 144.264C198.74 144.793 199.066 145.19 199.473 145.475C199.88 145.76 200.348 145.892 200.888 145.892C201.417 145.892 201.885 145.76 202.292 145.475C202.7 145.19 203.015 144.793 203.239 144.264C203.463 143.744 203.585 143.134 203.585 142.431V142.106C203.585 141.434 203.463 140.844 203.239 140.314C203.015 139.795 202.689 139.388 202.282 139.093C201.875 138.798 201.407 138.645 200.888 138.645C200.358 138.645 199.88 138.798 199.473 139.093C199.066 139.388 198.74 139.795 198.516 140.314C198.292 140.844 198.18 141.434 198.18 142.106ZM202.486 140.691C202.638 141.098 202.72 141.587 202.72 142.136V142.401C202.72 142.961 202.638 143.439 202.486 143.846C202.333 144.253 202.119 144.569 201.845 144.783C201.57 145.007 201.254 145.108 200.888 145.108C200.521 145.108 200.196 145.007 199.921 144.783C199.636 144.569 199.422 144.253 199.269 143.846C199.117 143.439 199.045 142.961 199.045 142.401V142.136C199.045 141.587 199.117 141.098 199.269 140.691C199.422 140.284 199.636 139.978 199.921 139.754C200.196 139.541 200.521 139.429 200.888 139.429C201.254 139.429 201.57 139.541 201.845 139.754C202.119 139.978 202.333 140.284 202.486 140.691Z" fill="#717184"/>
<rect x="23.6287" y="166.643" width="237.742" height="92.1658" rx="5.45281" fill="white"/>
<rect x="23.6287" y="166.643" width="237.742" height="92.1658" rx="5.45281" stroke="#F4F4F6" stroke-width="0.727041"/>
<mask id="path-12-inside-1_927_438729" fill="white">
<path d="M23.2651 166.279H261.735V220.907H23.2651V166.279Z"/>
</mask>
<path d="M261.735 220.18H23.2651V221.634H261.735V220.18Z" fill="#E3E3E8" mask="url(#path-12-inside-1_927_438729)"/>
<path d="M38.1144 182.787H35.5901V189.912H38.1856C39.0203 189.912 39.6513 189.739 40.0992 189.393C40.5471 189.047 40.771 188.558 40.771 187.948C40.771 187.011 40.2417 186.451 39.2035 186.248C39.6106 186.146 39.9262 185.953 40.1501 185.678C40.3638 185.403 40.4758 185.057 40.4758 184.629C40.4758 184.059 40.2621 183.601 39.8549 183.276C39.4478 182.95 38.8676 182.787 38.1144 182.787ZM36.4756 185.881V183.591H38.1551C38.6131 183.591 38.9694 183.693 39.2137 183.897C39.4579 184.1 39.5903 184.375 39.5903 184.731C39.5903 185.098 39.4579 185.372 39.2137 185.576C38.9592 185.78 38.6029 185.881 38.1551 185.881H36.4756ZM36.4756 189.108V186.675H38.1856C38.7149 186.675 39.1322 186.787 39.4274 187.001C39.7124 187.215 39.8651 187.52 39.8651 187.917C39.8651 188.294 39.7124 188.589 39.4274 188.792C39.1424 189.006 38.7251 189.108 38.1856 189.108H36.4756ZM46.2781 184.721H45.4434V187.317C45.4434 187.907 45.3009 188.365 45.0363 188.701C44.7716 189.047 44.395 189.21 43.9268 189.21C43.4891 189.21 43.1532 189.077 42.9191 188.792C42.685 188.507 42.5731 188.1 42.5731 187.561V184.721H41.7384V187.612C41.7384 188.426 41.9216 189.027 42.2982 189.403C42.6647 189.79 43.1634 189.973 43.7843 189.973C44.4968 189.973 45.0465 189.729 45.4434 189.22L45.5554 189.912H46.2781V184.721ZM47.7823 184.721H46.8967L48.9324 189.953L48.6678 190.574C48.5864 190.757 48.5253 190.889 48.4744 190.971C48.4235 191.052 48.3624 191.103 48.281 191.134C48.1996 191.174 48.0774 191.184 47.9146 191.184H47.1716V191.948H48.1691C48.4032 191.948 48.5966 191.917 48.7391 191.836C48.8816 191.765 48.9935 191.653 49.0953 191.49C49.1869 191.337 49.2989 191.103 49.421 190.787L51.813 184.721H50.9274L49.3803 188.955L47.7823 184.721Z" fill="#717184"/>
<mask id="path-15-inside-2_927_438729" fill="white">
<path d="M90.1528 177.912H250.102V209.274H90.1528V177.912Z"/>
</mask>
<path d="M90.8799 209.274V177.912H89.4258V209.274H90.8799Z" fill="#E3E3E8" mask="url(#path-15-inside-2_927_438729)"/>
<g clip-path="url(#clip0_927_438729)">
<circle cx="109.056" cy="185.412" r="7.27041" fill="#FF6E00"/>
<path d="M109.218 179.974V179.98C109.223 180.005 109.223 180.036 109.223 180.067V183.789C109.218 183.81 109.202 183.815 109.187 183.825C109.078 183.877 108.975 183.923 108.867 183.97C108.717 184.037 108.562 184.109 108.412 184.176L107.87 184.424C107.721 184.491 107.571 184.558 107.426 184.625C107.251 184.708 107.07 184.785 106.895 184.868C106.745 184.935 106.595 185.007 106.441 185.074C106.317 185.131 106.193 185.183 106.074 185.24C106.064 185.245 106.053 185.25 106.043 185.25C106.038 185.25 106.038 185.25 106.033 185.245L106.172 185.012C106.441 184.569 106.704 184.13 106.972 183.686C107.256 183.211 107.545 182.736 107.829 182.261C108.092 181.822 108.361 181.384 108.624 180.945C108.815 180.625 109.011 180.305 109.202 179.985C109.207 179.974 109.212 179.969 109.212 179.959H109.218C109.212 179.964 109.218 179.969 109.218 179.974Z" fill="#F3F3F3"/>
<path d="M112.386 185.246L112.391 185.251L111.633 185.7L109.248 187.109C109.238 187.114 109.227 187.119 109.222 187.124C109.207 187.124 109.207 187.109 109.207 187.104V187.057V183.867C109.207 183.852 109.207 183.831 109.212 183.816C109.217 183.795 109.232 183.8 109.248 183.805C109.315 183.836 109.387 183.867 109.454 183.898C109.656 183.991 109.857 184.084 110.058 184.172C110.234 184.249 110.404 184.332 110.58 184.409C110.755 184.487 110.931 184.569 111.106 184.647C111.256 184.714 111.411 184.786 111.56 184.853C111.71 184.92 111.865 184.993 112.015 185.06C112.133 185.111 112.252 185.168 112.371 185.22C112.371 185.235 112.376 185.24 112.386 185.246Z" fill="#8A8DA7"/>
<path d="M109.217 190.329C109.217 190.334 109.212 190.34 109.212 190.345H109.207C109.207 190.334 109.196 190.329 109.191 190.319C108.871 189.87 108.551 189.416 108.231 188.967C107.906 188.507 107.576 188.043 107.25 187.583C106.936 187.139 106.616 186.69 106.301 186.246C106.218 186.128 106.135 186.014 106.053 185.895C106.048 185.885 106.043 185.88 106.032 185.864C106.048 185.864 106.058 185.875 106.063 185.88C106.512 186.143 106.956 186.406 107.405 186.67C107.921 186.974 108.433 187.279 108.949 187.583L109.212 187.738C109.222 187.748 109.222 187.759 109.222 187.769V190.257C109.222 190.283 109.222 190.309 109.217 190.329Z" fill="#F3F3F3"/>
<path d="M106.027 185.255V185.25C106.192 185.178 106.352 185.101 106.517 185.028C106.729 184.93 106.941 184.837 107.152 184.739C107.312 184.667 107.477 184.59 107.637 184.517C107.875 184.409 108.107 184.306 108.345 184.197C108.505 184.125 108.665 184.053 108.83 183.975C108.943 183.924 109.062 183.872 109.176 183.82C109.186 183.815 109.201 183.81 109.207 183.8C109.212 183.8 109.212 183.805 109.207 183.81V187.088C109.207 187.103 109.201 187.119 109.212 187.129C109.201 187.145 109.191 187.129 109.186 187.124C109.139 187.098 109.093 187.072 109.047 187.041C108.05 186.453 107.049 185.859 106.053 185.271C106.048 185.266 106.037 185.261 106.027 185.255Z" fill="#C5C8D9"/>
<path d="M112.376 185.864H112.381C112.381 185.875 112.371 185.885 112.366 185.895C111.416 187.232 110.466 188.574 109.516 189.911C109.418 190.051 109.315 190.19 109.217 190.329C109.212 190.324 109.212 190.319 109.212 190.314V190.283V187.779V187.733C109.429 187.604 109.64 187.48 109.857 187.351C110.693 186.855 111.53 186.365 112.361 185.869C112.366 185.875 112.371 185.869 112.376 185.864Z" fill="#C5C8D9"/>
<path d="M109.212 183.81V183.799V183.768V180.021C109.212 180.005 109.207 179.995 109.217 179.979C110.265 181.719 111.313 183.453 112.356 185.193C112.366 185.208 112.381 185.229 112.387 185.25C112.314 185.224 112.247 185.188 112.18 185.157C112.097 185.121 112.01 185.079 111.927 185.043C111.876 185.017 111.819 184.997 111.767 184.971C111.679 184.93 111.592 184.894 111.504 184.852C111.452 184.832 111.401 184.806 111.349 184.78L111.008 184.625C110.952 184.599 110.895 184.574 110.833 184.548L110.585 184.439C110.533 184.419 110.482 184.393 110.43 184.367L110.09 184.212C110.033 184.186 109.976 184.161 109.914 184.135L109.666 184.026C109.609 184.001 109.558 183.975 109.501 183.949C109.403 183.903 109.305 183.856 109.202 183.815C109.217 183.81 109.212 183.81 109.212 183.81Z" fill="#C5C8D9"/>
</g>
<path d="M122.956 188.912V181.51H127.597V182.471H124.073V184.726H127.355V185.684H124.073V187.951H127.641V188.912H122.956ZM131.594 183.36V184.228H128.562V183.36H131.594ZM129.375 182.03H130.456V187.282C130.456 187.492 130.487 187.649 130.55 187.755C130.612 187.859 130.693 187.93 130.792 187.969C130.893 188.005 131.003 188.023 131.121 188.023C131.207 188.023 131.283 188.017 131.348 188.005C131.413 187.993 131.464 187.983 131.5 187.976L131.695 188.869C131.633 188.893 131.544 188.917 131.428 188.941C131.312 188.968 131.168 188.982 130.994 188.984C130.71 188.989 130.445 188.939 130.199 188.833C129.953 188.727 129.754 188.563 129.603 188.341C129.451 188.119 129.375 187.841 129.375 187.506V182.03ZM133.99 185.616V188.912H132.909V181.51H133.975V184.264H134.044C134.174 183.965 134.373 183.728 134.64 183.552C134.908 183.376 135.257 183.288 135.689 183.288C136.069 183.288 136.402 183.366 136.686 183.523C136.973 183.679 137.195 183.913 137.351 184.224C137.51 184.532 137.59 184.918 137.59 185.381V188.912H136.509V185.511C136.509 185.104 136.404 184.788 136.195 184.564C135.985 184.337 135.693 184.224 135.32 184.224C135.064 184.224 134.836 184.278 134.633 184.387C134.433 184.495 134.275 184.654 134.16 184.864C134.046 185.071 133.99 185.322 133.99 185.616ZM141.425 189.024C140.878 189.024 140.407 188.907 140.012 188.674C139.619 188.437 139.315 188.106 139.101 187.68C138.889 187.251 138.783 186.748 138.783 186.172C138.783 185.604 138.889 185.102 139.101 184.669C139.315 184.235 139.614 183.896 139.997 183.653C140.383 183.41 140.833 183.288 141.349 183.288C141.662 183.288 141.966 183.34 142.26 183.443C142.554 183.547 142.818 183.71 143.051 183.931C143.285 184.153 143.47 184.441 143.604 184.795C143.739 185.147 143.807 185.575 143.807 186.078V186.461H139.394V185.652H142.748C142.748 185.367 142.69 185.116 142.574 184.896C142.459 184.675 142.296 184.5 142.086 184.372C141.879 184.245 141.636 184.181 141.356 184.181C141.053 184.181 140.788 184.255 140.561 184.405C140.337 184.552 140.163 184.745 140.041 184.983C139.92 185.219 139.86 185.476 139.86 185.753V186.386C139.86 186.757 139.925 187.072 140.055 187.333C140.187 187.593 140.372 187.792 140.608 187.929C140.844 188.064 141.12 188.131 141.436 188.131C141.641 188.131 141.827 188.102 141.996 188.045C142.165 187.984 142.31 187.895 142.433 187.777C142.556 187.659 142.65 187.513 142.715 187.34L143.738 187.524C143.656 187.825 143.509 188.089 143.297 188.316C143.088 188.54 142.824 188.715 142.506 188.84C142.19 188.963 141.83 189.024 141.425 189.024ZM145.006 188.912V183.36H146.051V184.242H146.108C146.21 183.943 146.388 183.708 146.643 183.537C146.901 183.364 147.193 183.277 147.518 183.277C147.586 183.277 147.665 183.279 147.757 183.284C147.851 183.289 147.924 183.295 147.977 183.302V184.336C147.934 184.324 147.857 184.311 147.746 184.296C147.635 184.279 147.524 184.271 147.413 184.271C147.158 184.271 146.93 184.325 146.73 184.434C146.533 184.54 146.376 184.688 146.26 184.878C146.145 185.066 146.087 185.281 146.087 185.522V188.912H145.006ZM151.106 189.024C150.559 189.024 150.088 188.907 149.693 188.674C149.3 188.437 148.997 188.106 148.782 187.68C148.57 187.251 148.464 186.748 148.464 186.172C148.464 185.604 148.57 185.102 148.782 184.669C148.997 184.235 149.296 183.896 149.679 183.653C150.064 183.41 150.515 183.288 151.031 183.288C151.344 183.288 151.647 183.34 151.941 183.443C152.235 183.547 152.499 183.71 152.733 183.931C152.967 184.153 153.151 184.441 153.286 184.795C153.421 185.147 153.488 185.575 153.488 186.078V186.461H149.075V185.652H152.429C152.429 185.367 152.372 185.116 152.256 184.896C152.14 184.675 151.978 184.5 151.768 184.372C151.561 184.245 151.317 184.181 151.038 184.181C150.734 184.181 150.469 184.255 150.243 184.405C150.018 184.552 149.845 184.745 149.722 184.983C149.602 185.219 149.541 185.476 149.541 185.753V186.386C149.541 186.757 149.606 187.072 149.737 187.333C149.869 187.593 150.053 187.792 150.29 187.929C150.526 188.064 150.802 188.131 151.117 188.131C151.322 188.131 151.509 188.102 151.678 188.045C151.846 187.984 151.992 187.895 152.115 187.777C152.238 187.659 152.332 187.513 152.397 187.34L153.42 187.524C153.338 187.825 153.191 188.089 152.979 188.316C152.769 188.54 152.505 188.715 152.187 188.84C151.872 188.963 151.511 189.024 151.106 189.024ZM158.205 186.61V183.36H159.289V188.912H158.226V187.951H158.168C158.041 188.247 157.836 188.494 157.554 188.692C157.274 188.887 156.926 188.984 156.509 188.984C156.153 188.984 155.837 188.906 155.562 188.749C155.29 188.59 155.076 188.355 154.919 188.045C154.765 187.734 154.688 187.349 154.688 186.892V183.36H155.768V186.761C155.768 187.14 155.873 187.441 156.083 187.665C156.292 187.889 156.565 188.001 156.9 188.001C157.102 188.001 157.303 187.951 157.503 187.849C157.706 187.748 157.873 187.595 158.006 187.39C158.141 187.186 158.207 186.925 158.205 186.61ZM160.741 188.912V183.36H161.778V184.264H161.847C161.963 183.958 162.152 183.719 162.415 183.548C162.677 183.375 162.992 183.288 163.358 183.288C163.729 183.288 164.04 183.375 164.291 183.548C164.544 183.722 164.73 183.96 164.851 184.264H164.909C165.041 183.967 165.252 183.731 165.541 183.555C165.83 183.377 166.175 183.288 166.575 183.288C167.079 183.288 167.489 183.446 167.807 183.761C168.128 184.077 168.288 184.553 168.288 185.189V188.912H167.207V185.29C167.207 184.914 167.105 184.642 166.9 184.473C166.695 184.305 166.451 184.22 166.166 184.22C165.815 184.22 165.541 184.329 165.346 184.546C165.151 184.76 165.053 185.036 165.053 185.373V188.912H163.976V185.222C163.976 184.92 163.882 184.678 163.694 184.495C163.506 184.312 163.262 184.22 162.96 184.22C162.756 184.22 162.566 184.275 162.393 184.383C162.222 184.489 162.083 184.637 161.977 184.828C161.874 185.018 161.822 185.239 161.822 185.489V188.912H160.741Z" fill="#131316"/>
<path d="M242.589 188.804L245.982 185.411L242.589 182.019" stroke="#9C9CAB" stroke-width="1.09056" stroke-linecap="round" stroke-linejoin="round"/>
<path d="M102.379 200.167V206.274H106.383V205.576H103.138V203.517H105.747V202.82H103.138V200.865H106.27V200.167H102.379ZM106.767 200.167V200.865H108.748V206.274H109.507V200.865H111.487V200.167H106.767ZM112.341 200.159V206.274H113.1V203.517H116.258V206.274H117.017V200.159H116.258V202.82H113.1V200.159H112.341ZM122.737 200.167H120.573V206.274H122.798C123.513 206.274 124.054 206.126 124.438 205.829C124.822 205.533 125.014 205.114 125.014 204.591C125.014 203.788 124.56 203.308 123.67 203.134C124.019 203.046 124.29 202.881 124.482 202.645C124.665 202.409 124.761 202.113 124.761 201.746C124.761 201.258 124.578 200.865 124.229 200.586C123.88 200.307 123.383 200.167 122.737 200.167ZM121.332 202.82V200.857H122.772C123.164 200.857 123.47 200.944 123.679 201.118C123.889 201.293 124.002 201.528 124.002 201.834C124.002 202.148 123.889 202.383 123.679 202.558C123.461 202.732 123.156 202.82 122.772 202.82H121.332ZM121.332 205.585V203.5H122.798C123.252 203.5 123.609 203.596 123.862 203.779C124.107 203.962 124.238 204.224 124.238 204.564C124.238 204.887 124.107 205.14 123.862 205.315C123.618 205.498 123.26 205.585 122.798 205.585H121.332ZM130.109 205.62H129.891C129.691 205.62 129.595 205.515 129.595 205.297V203.378C129.595 202.863 129.438 202.471 129.124 202.191C128.81 201.912 128.373 201.773 127.806 201.773C127.265 201.773 126.829 201.895 126.498 202.139C126.166 202.383 125.974 202.724 125.922 203.16H126.637C126.681 202.933 126.803 202.758 127.004 202.619C127.204 202.479 127.457 202.409 127.771 202.409C128.12 202.409 128.391 202.497 128.583 202.654C128.775 202.82 128.879 203.046 128.879 203.334V203.64H127.571C126.986 203.64 126.541 203.762 126.236 203.997C125.93 204.242 125.782 204.582 125.782 205.027C125.782 205.428 125.93 205.751 126.227 205.978C126.524 206.213 126.925 206.327 127.422 206.327C128.068 206.327 128.565 206.082 128.914 205.585C128.914 205.812 128.984 205.987 129.106 206.1C129.228 206.222 129.429 206.274 129.717 206.274H130.109V205.62ZM128.879 204.242V204.46C128.879 204.844 128.748 205.149 128.504 205.376C128.251 205.603 127.911 205.716 127.475 205.716C127.178 205.716 126.943 205.655 126.768 205.515C126.594 205.385 126.506 205.21 126.506 204.983C126.506 204.495 126.838 204.242 127.501 204.242H128.879ZM130.703 200.167V206.274H131.419V200.167H130.703ZM136.604 205.62H136.386C136.185 205.62 136.089 205.515 136.089 205.297V203.378C136.089 202.863 135.932 202.471 135.618 202.191C135.304 201.912 134.868 201.773 134.301 201.773C133.76 201.773 133.323 201.895 132.992 202.139C132.66 202.383 132.468 202.724 132.416 203.16H133.131C133.175 202.933 133.297 202.758 133.498 202.619C133.699 202.479 133.952 202.409 134.266 202.409C134.615 202.409 134.885 202.497 135.077 202.654C135.269 202.82 135.374 203.046 135.374 203.334V203.64H134.065C133.48 203.64 133.035 203.762 132.73 203.997C132.425 204.242 132.276 204.582 132.276 205.027C132.276 205.428 132.425 205.751 132.721 205.978C133.018 206.213 133.419 206.327 133.917 206.327C134.562 206.327 135.06 206.082 135.409 205.585C135.409 205.812 135.478 205.987 135.6 206.1C135.723 206.222 135.923 206.274 136.211 206.274H136.604V205.62ZM135.374 204.242V204.46C135.374 204.844 135.243 205.149 134.998 205.376C134.745 205.603 134.405 205.716 133.969 205.716C133.672 205.716 133.437 205.655 133.262 205.515C133.088 205.385 133.001 205.21 133.001 204.983C133.001 204.495 133.332 204.242 133.995 204.242H135.374ZM140.678 202.261C140.347 201.938 139.919 201.773 139.379 201.773C138.733 201.773 138.244 201.991 137.913 202.427L137.817 201.825H137.197V206.274H137.913V204.05C137.913 203.552 138.026 203.16 138.271 202.863C138.506 202.575 138.838 202.427 139.256 202.427C139.64 202.427 139.937 202.549 140.146 202.793C140.356 203.038 140.46 203.387 140.46 203.84V206.274H141.176V203.797C141.176 203.099 141.01 202.593 140.678 202.261ZM145.447 205.908C145.787 205.629 146.005 205.236 146.101 204.739H145.386C145.316 205.036 145.176 205.271 144.958 205.437C144.731 205.611 144.461 205.69 144.138 205.69C143.711 205.69 143.362 205.542 143.1 205.236C142.838 204.931 142.707 204.53 142.707 204.041C142.707 203.561 142.838 203.168 143.1 202.863C143.362 202.567 143.711 202.409 144.138 202.409C144.452 202.409 144.714 202.497 144.941 202.662C145.159 202.837 145.307 203.064 145.377 203.343H146.101C146.014 202.854 145.796 202.471 145.456 202.191C145.115 201.912 144.688 201.773 144.164 201.773C143.728 201.773 143.353 201.869 143.021 202.06C142.69 202.252 142.428 202.514 142.245 202.854C142.062 203.203 141.974 203.596 141.974 204.041C141.974 204.495 142.062 204.887 142.245 205.236C142.419 205.585 142.672 205.847 143.004 206.039C143.327 206.231 143.702 206.327 144.138 206.327C144.662 206.327 145.098 206.187 145.447 205.908ZM146.983 202.854C146.808 203.203 146.721 203.596 146.721 204.05C146.721 204.503 146.808 204.896 146.992 205.245C147.175 205.594 147.437 205.856 147.768 206.048C148.1 206.24 148.483 206.327 148.928 206.327C149.434 206.327 149.862 206.187 150.211 205.899C150.56 205.611 150.778 205.236 150.865 204.783H150.141C150.063 205.07 149.914 205.297 149.687 205.454C149.461 205.611 149.19 205.69 148.876 205.69C148.457 205.69 148.126 205.559 147.873 205.297C147.611 205.036 147.48 204.687 147.471 204.25V204.189H150.926C150.935 204.05 150.944 203.954 150.944 203.884C150.926 203.456 150.83 203.081 150.656 202.758C150.473 202.444 150.228 202.2 149.914 202.026C149.6 201.86 149.234 201.773 148.832 201.773C148.414 201.773 148.047 201.869 147.733 202.06C147.41 202.252 147.157 202.514 146.983 202.854ZM150.202 203.596H147.515C147.55 203.247 147.69 202.959 147.951 202.732C148.204 202.514 148.501 202.401 148.841 202.401C149.216 202.401 149.53 202.505 149.775 202.715C150.019 202.924 150.167 203.221 150.202 203.596Z" fill="#9C9CAB"/>
<path d="M200.6 203.081V203.36C200.6 203.962 200.696 204.486 200.888 204.931C201.08 205.385 201.359 205.725 201.708 205.969C202.057 206.213 202.458 206.327 202.921 206.327C203.375 206.327 203.776 206.213 204.125 205.969C204.474 205.725 204.744 205.385 204.936 204.931C205.128 204.486 205.233 203.962 205.233 203.36V203.081C205.233 202.505 205.128 201.999 204.936 201.546C204.744 201.101 204.465 200.752 204.116 200.499C203.767 200.246 203.366 200.115 202.921 200.115C202.467 200.115 202.057 200.246 201.708 200.499C201.359 200.752 201.08 201.101 200.888 201.546C200.696 201.999 200.6 202.505 200.6 203.081ZM204.291 201.869C204.422 202.218 204.491 202.636 204.491 203.107V203.334C204.491 203.814 204.422 204.224 204.291 204.573C204.16 204.922 203.977 205.193 203.741 205.376C203.505 205.568 203.235 205.655 202.921 205.655C202.607 205.655 202.328 205.568 202.092 205.376C201.848 205.193 201.665 204.922 201.534 204.573C201.403 204.224 201.342 203.814 201.342 203.334V203.107C201.342 202.636 201.403 202.218 201.534 201.869C201.665 201.52 201.848 201.258 202.092 201.066C202.328 200.883 202.607 200.787 202.921 200.787C203.235 200.787 203.505 200.883 203.741 201.066C203.977 201.258 204.16 201.52 204.291 201.869ZM205.793 205.489C205.697 205.576 205.653 205.699 205.653 205.838C205.653 205.987 205.697 206.109 205.793 206.196C205.88 206.283 206.002 206.327 206.151 206.327C206.29 206.327 206.412 206.283 206.508 206.196C206.596 206.109 206.648 205.987 206.648 205.838C206.648 205.699 206.596 205.576 206.508 205.489C206.412 205.402 206.29 205.35 206.151 205.35C206.002 205.35 205.88 205.402 205.793 205.489ZM211.304 203.613C211.051 203.36 210.746 203.195 210.388 203.125C210.737 203.055 211.008 202.898 211.217 202.654C211.418 202.409 211.522 202.104 211.522 201.729C211.522 201.415 211.435 201.127 211.269 200.883C211.104 200.638 210.868 200.455 210.554 200.316C210.24 200.185 209.873 200.115 209.455 200.115C208.835 200.115 208.338 200.272 207.972 200.586C207.596 200.9 207.404 201.336 207.404 201.886H208.137C208.137 201.546 208.268 201.275 208.512 201.075C208.757 200.874 209.08 200.769 209.481 200.769C209.856 200.769 210.161 200.865 210.406 201.04C210.65 201.223 210.772 201.467 210.772 201.773C210.772 202.095 210.65 202.357 210.414 202.549C210.17 202.75 209.83 202.846 209.385 202.846H208.905V203.483H209.429C209.9 203.483 210.275 203.579 210.537 203.762C210.798 203.954 210.929 204.207 210.929 204.53C210.929 204.878 210.79 205.149 210.519 205.358C210.249 205.568 209.908 205.672 209.498 205.672C209.045 205.672 208.687 205.559 208.408 205.332C208.129 205.105 207.989 204.791 207.989 204.39H207.239C207.239 204.992 207.439 205.463 207.841 205.812C208.242 206.161 208.774 206.327 209.455 206.327C209.891 206.327 210.284 206.257 210.624 206.109C210.955 205.969 211.217 205.76 211.4 205.498C211.583 205.236 211.679 204.931 211.679 204.582C211.679 204.189 211.549 203.866 211.304 203.613ZM212.662 204.381C212.749 204.739 212.863 205.053 213.02 205.315C213.212 205.638 213.465 205.891 213.779 206.065C214.093 206.24 214.45 206.327 214.869 206.327C215.279 206.327 215.646 206.24 215.969 206.065C216.283 205.891 216.536 205.646 216.719 205.332C216.893 205.018 216.989 204.669 216.989 204.277C216.989 203.875 216.902 203.517 216.728 203.203C216.553 202.898 216.309 202.662 216.003 202.488C215.689 202.322 215.34 202.235 214.939 202.235C214.538 202.235 214.189 202.331 213.892 202.505C213.595 202.689 213.377 202.933 213.238 203.238C213.22 203.273 213.203 203.334 213.185 203.404L213.177 203.107C213.177 202.409 213.316 201.842 213.604 201.406C213.892 200.979 214.302 200.761 214.826 200.761C215.183 200.761 215.471 200.857 215.698 201.04C215.925 201.232 216.073 201.485 216.143 201.799H216.876C216.797 201.293 216.579 200.883 216.222 200.577C215.864 200.272 215.41 200.115 214.86 200.115C214.372 200.115 213.962 200.246 213.613 200.499C213.264 200.752 212.993 201.11 212.81 201.581C212.627 202.052 212.54 202.61 212.54 203.247C212.54 203.648 212.575 204.032 212.662 204.381ZM215.881 203.273C216.126 203.535 216.256 203.866 216.256 204.277C216.256 204.695 216.126 205.027 215.873 205.289C215.611 205.55 215.279 205.681 214.86 205.681C214.442 205.681 214.101 205.559 213.848 205.297C213.587 205.044 213.465 204.713 213.465 204.294C213.465 203.875 213.595 203.535 213.857 203.273C214.119 203.011 214.459 202.881 214.887 202.881C215.305 202.881 215.637 203.011 215.881 203.273ZM217.639 204.128V204.783H220.841V206.274H221.574V204.783H222.56V204.111H221.574V200.167H220.702L217.639 204.128ZM218.425 204.111L220.841 200.987V204.111H218.425ZM222.571 200.167V200.839H226.079L223.086 206.274H223.88L226.881 200.682V200.167H222.571ZM227.369 200.167V200.839H230.876L227.884 206.274H228.678L231.679 200.682V200.167H227.369ZM234.872 200.167V206.274H238.876V205.576H235.631V203.517H238.239V202.82H235.631V200.865H238.763V200.167H234.872ZM239.26 200.167V200.865H241.241V206.274H242V200.865H243.98V200.167H239.26ZM244.834 200.159V206.274H245.593V203.517H248.751V206.274H249.51V200.159H248.751V202.82H245.593V200.159H244.834Z" fill="#9C9CAB"/>
<path d="M38.3281 237.415H35.5901V244.54H36.4756V241.802H38.3281C38.7963 241.802 39.2035 241.721 39.5597 241.537C39.916 241.354 40.1908 241.1 40.3944 240.764C40.5878 240.438 40.6896 240.051 40.6896 239.603C40.6896 239.166 40.5878 238.779 40.3944 238.453C40.201 238.128 39.9262 237.873 39.5699 237.69C39.2035 237.507 38.7963 237.415 38.3281 237.415ZM36.4756 240.988V238.229H38.2569C38.7251 238.229 39.0915 238.362 39.3663 238.606C39.6412 238.85 39.7837 239.186 39.7837 239.603C39.7837 240.031 39.6412 240.367 39.3663 240.611C39.0813 240.866 38.7149 240.988 38.2467 240.988H36.4756ZM46.0585 243.777H45.804C45.5699 243.777 45.458 243.655 45.458 243.4V241.161C45.458 240.56 45.2748 240.102 44.9083 239.776C44.5419 239.451 44.033 239.288 43.3714 239.288C42.7403 239.288 42.2314 239.43 41.8446 239.715C41.4578 240 41.2339 240.397 41.1728 240.906H42.0074C42.0583 240.642 42.2008 240.438 42.4349 240.275C42.669 240.112 42.9642 240.031 43.3307 240.031C43.7378 240.031 44.0533 240.133 44.2773 240.316C44.5012 240.509 44.6233 240.774 44.6233 241.11V241.466H43.0965C42.4146 241.466 41.8955 241.609 41.5392 241.883C41.183 242.168 41.0099 242.565 41.0099 243.085C41.0099 243.553 41.183 243.929 41.529 244.194C41.8751 244.469 42.3433 244.601 42.9235 244.601C43.6767 244.601 44.2569 244.316 44.664 243.736C44.664 244.001 44.7455 244.204 44.888 244.336C45.0305 244.479 45.2646 244.54 45.6005 244.54H46.0585V243.777ZM44.6233 242.168V242.423C44.6233 242.871 44.4707 243.227 44.1857 243.492C43.8905 243.756 43.4935 243.889 42.9846 243.889C42.6385 243.889 42.3637 243.817 42.1601 243.655C41.9565 243.502 41.8548 243.298 41.8548 243.034C41.8548 242.464 42.2415 242.168 43.0151 242.168H44.6233ZM46.9175 239.349H46.032L48.0677 244.581L47.803 245.202C47.7216 245.385 47.6605 245.517 47.6096 245.599C47.5587 245.68 47.4977 245.731 47.4162 245.761C47.3348 245.802 47.2127 245.812 47.0498 245.812H46.3068V246.576H47.3043C47.5384 246.576 47.7318 246.545 47.8743 246.464C48.0168 246.393 48.1287 246.281 48.2305 246.118C48.3221 245.965 48.4341 245.731 48.5562 245.415L50.9482 239.349H50.0627L48.5155 243.583L46.9175 239.349ZM53.7461 239.349L55.4256 244.55L56.3417 244.54L57.6445 240.682L58.8965 244.54H59.8125L61.5429 239.349H60.6981L59.3443 243.573L58.0517 239.349H57.2781L55.9142 243.573L54.6215 239.349H53.7461ZM63.0007 237.496C62.899 237.395 62.7666 237.344 62.614 237.344C62.4511 237.344 62.329 237.395 62.2272 237.496C62.1254 237.598 62.0745 237.731 62.0745 237.883C62.0745 238.046 62.1254 238.168 62.2272 238.27C62.329 238.372 62.4511 238.423 62.614 238.423C62.7666 238.423 62.899 238.372 63.0007 238.27C63.1025 238.168 63.1534 238.046 63.1534 237.883C63.1534 237.731 63.1025 237.598 63.0007 237.496ZM62.1966 239.349V244.54H63.0313V239.349H62.1966ZM64.5208 240.112V243.186C64.5208 243.655 64.6226 244.001 64.8261 244.214C65.0297 244.438 65.386 244.54 65.8745 244.54H66.8313V243.777H65.9254C65.7117 243.777 65.559 243.736 65.4776 243.644C65.3961 243.553 65.3554 243.4 65.3554 243.176V240.112H66.6685V239.349H65.3554V237.893H64.5208V239.349H63.5843V240.112H64.5208ZM71.4965 239.858C71.1097 239.481 70.6008 239.288 69.9697 239.288C69.5626 239.288 69.2165 239.38 68.9315 239.542C68.6465 239.715 68.4226 239.939 68.2597 240.204V237.415H67.4251V244.54H68.2597V241.945C68.2597 241.364 68.392 240.906 68.677 240.56C68.962 240.224 69.3387 240.051 69.8272 240.051C70.2751 240.051 70.6313 240.194 70.8756 240.479C71.1199 240.764 71.242 241.171 71.242 241.7V244.54H72.0767V241.649C72.0767 240.835 71.8833 240.245 71.4965 239.858Z" fill="#717184"/>
<mask id="path-29-inside-3_927_438729" fill="white">
<path d="M90.1528 232.54H250.102V247.54H90.1528V232.54Z"/>
</mask>
<path d="M90.8799 247.54V232.54H89.4258V247.54H90.8799Z" fill="#E3E3E8" mask="url(#path-29-inside-3_927_438729)"/>
<path d="M113.696 233.901C113.025 233.136 111.813 232.809 110.261 232.809H105.758C105.605 232.809 105.456 232.863 105.34 232.963C105.223 233.063 105.146 233.201 105.121 233.352L103.247 245.243C103.209 245.478 103.391 245.69 103.629 245.69H106.408L107.107 241.262L107.085 241.401C107.135 241.088 107.402 240.857 107.719 240.857H109.04C111.635 240.857 113.667 239.803 114.261 236.754C114.279 236.663 114.294 236.576 114.307 236.49C114.232 236.45 114.232 236.45 114.307 236.49C114.484 235.363 114.306 234.596 113.696 233.901Z" fill="#27346A"/>
<path d="M108.17 236.084C108.246 236.048 108.329 236.029 108.414 236.029H111.944C112.362 236.029 112.752 236.056 113.108 236.113C113.208 236.129 113.307 236.148 113.405 236.17C113.545 236.201 113.683 236.239 113.819 236.283C113.994 236.342 114.157 236.41 114.307 236.49C114.484 235.362 114.306 234.596 113.696 233.901C113.025 233.136 111.813 232.809 110.261 232.809H105.758C105.441 232.809 105.171 233.039 105.121 233.352L103.247 245.243C103.209 245.478 103.391 245.69 103.628 245.69H106.408L107.857 236.505C107.871 236.414 107.907 236.329 107.962 236.256C108.016 236.182 108.088 236.123 108.17 236.084Z" fill="#27346A"/>
<path d="M114.261 236.754C113.667 239.803 111.635 240.857 109.04 240.857H107.719C107.402 240.857 107.134 241.088 107.085 241.401L106.216 246.907C106.184 247.112 106.342 247.298 106.55 247.298H108.893C109.028 247.298 109.157 247.25 109.259 247.163C109.362 247.076 109.429 246.955 109.45 246.823L109.473 246.703L109.915 243.904L109.943 243.749C109.964 243.617 110.032 243.496 110.134 243.409C110.236 243.322 110.366 243.274 110.5 243.274H110.85C113.121 243.274 114.898 242.351 115.417 239.684C115.634 238.569 115.522 237.639 114.949 236.985C114.775 236.787 114.559 236.624 114.307 236.49C114.293 236.576 114.278 236.664 114.261 236.754Z" fill="#2790C3"/>
<path d="M113.686 236.243C113.593 236.216 113.5 236.192 113.405 236.171C113.307 236.149 113.208 236.13 113.108 236.114C112.751 236.057 112.362 236.029 111.943 236.029H108.414C108.329 236.029 108.246 236.048 108.17 236.085C108.088 236.124 108.016 236.183 107.962 236.256C107.907 236.33 107.871 236.415 107.857 236.505L107.107 241.262L107.085 241.401C107.134 241.088 107.402 240.857 107.719 240.857H109.04C111.636 240.857 113.668 239.803 114.261 236.754C114.279 236.664 114.294 236.576 114.307 236.49C114.157 236.411 113.994 236.342 113.819 236.284C113.775 236.27 113.73 236.256 113.686 236.243" fill="#1F264F"/>
<path d="M122.956 243.54V236.137H125.595C126.171 236.137 126.648 236.242 127.026 236.452C127.405 236.662 127.688 236.948 127.876 237.312C128.064 237.674 128.158 238.081 128.158 238.534C128.158 238.989 128.062 239.399 127.872 239.763C127.684 240.124 127.4 240.411 127.019 240.623C126.641 240.833 126.165 240.938 125.591 240.938H123.777V239.991H125.49C125.854 239.991 126.149 239.928 126.376 239.803C126.602 239.675 126.768 239.501 126.875 239.282C126.981 239.063 127.034 238.813 127.034 238.534C127.034 238.254 126.981 238.006 126.875 237.789C126.768 237.572 126.601 237.403 126.372 237.28C126.146 237.157 125.847 237.095 125.476 237.095H124.073V243.54H122.956ZM130.946 243.663C130.594 243.663 130.276 243.598 129.992 243.468C129.708 243.335 129.482 243.144 129.316 242.893C129.152 242.642 129.07 242.335 129.07 241.971C129.07 241.658 129.131 241.4 129.251 241.198C129.372 240.995 129.534 240.835 129.739 240.717C129.944 240.599 130.173 240.51 130.426 240.45C130.679 240.389 130.937 240.344 131.199 240.312C131.532 240.274 131.802 240.242 132.009 240.218C132.216 240.192 132.367 240.15 132.461 240.092C132.555 240.034 132.602 239.94 132.602 239.81V239.785C132.602 239.469 132.513 239.224 132.334 239.051C132.158 238.877 131.896 238.791 131.546 238.791C131.182 238.791 130.896 238.871 130.686 239.033C130.479 239.192 130.335 239.369 130.256 239.564L129.24 239.333C129.361 238.995 129.537 238.723 129.768 238.516C130.002 238.306 130.27 238.154 130.574 238.06C130.878 237.964 131.197 237.916 131.532 237.916C131.754 237.916 131.988 237.942 132.237 237.995C132.487 238.046 132.721 238.14 132.938 238.277C133.157 238.415 133.337 238.611 133.476 238.866C133.616 239.119 133.686 239.448 133.686 239.853V243.54H132.631V242.781H132.587C132.517 242.921 132.413 243.058 132.273 243.193C132.133 243.328 131.954 243.44 131.734 243.529C131.515 243.618 131.252 243.663 130.946 243.663ZM131.181 242.795C131.48 242.795 131.735 242.736 131.948 242.618C132.162 242.5 132.325 242.346 132.435 242.156C132.549 241.963 132.605 241.757 132.605 241.538V240.822C132.567 240.86 132.492 240.897 132.381 240.93C132.273 240.962 132.149 240.989 132.009 241.013C131.869 241.035 131.733 241.056 131.601 241.075C131.468 241.092 131.357 241.106 131.268 241.118C131.058 241.145 130.867 241.189 130.693 241.252C130.522 241.315 130.385 241.405 130.281 241.523C130.18 241.639 130.129 241.793 130.129 241.986C130.129 242.253 130.228 242.456 130.426 242.593C130.623 242.728 130.875 242.795 131.181 242.795ZM135.61 245.622C135.449 245.622 135.302 245.609 135.169 245.582C135.036 245.558 134.938 245.532 134.873 245.503L135.133 244.617C135.33 244.67 135.506 244.693 135.661 244.686C135.815 244.679 135.951 244.621 136.069 244.512C136.19 244.404 136.296 244.227 136.387 243.981L136.521 243.612L134.489 237.988H135.646L137.052 242.297H137.11L138.516 237.988H139.676L137.388 244.281C137.282 244.57 137.147 244.815 136.984 245.015C136.82 245.217 136.624 245.369 136.398 245.47C136.171 245.571 135.909 245.622 135.61 245.622ZM140.692 245.622V237.988H141.747V238.888H141.838C141.9 238.772 141.991 238.639 142.109 238.487C142.227 238.335 142.391 238.203 142.601 238.089C142.81 237.974 143.087 237.916 143.432 237.916C143.88 237.916 144.28 238.029 144.632 238.256C144.984 238.482 145.26 238.809 145.46 239.235C145.662 239.662 145.763 240.175 145.763 240.775C145.763 241.375 145.663 241.889 145.463 242.318C145.263 242.745 144.989 243.074 144.639 243.305C144.29 243.534 143.891 243.648 143.443 243.648C143.105 243.648 142.829 243.592 142.615 243.479C142.403 243.365 142.237 243.233 142.116 243.081C141.996 242.929 141.903 242.794 141.838 242.676H141.773V245.622H140.692ZM141.751 240.764C141.751 241.154 141.808 241.497 141.921 241.791C142.034 242.085 142.198 242.315 142.413 242.481C142.627 242.645 142.89 242.727 143.201 242.727C143.523 242.727 143.793 242.641 144.01 242.47C144.227 242.297 144.391 242.062 144.502 241.765C144.615 241.469 144.672 241.135 144.672 240.764C144.672 240.398 144.616 240.069 144.505 239.777C144.397 239.486 144.233 239.256 144.014 239.087C143.797 238.918 143.526 238.834 143.201 238.834C142.887 238.834 142.622 238.915 142.405 239.076C142.191 239.238 142.028 239.463 141.917 239.752C141.807 240.041 141.751 240.379 141.751 240.764ZM148.59 243.663C148.238 243.663 147.92 243.598 147.636 243.468C147.351 243.335 147.126 243.144 146.96 242.893C146.796 242.642 146.714 242.335 146.714 241.971C146.714 241.658 146.774 241.4 146.895 241.198C147.015 240.995 147.178 240.835 147.383 240.717C147.587 240.599 147.816 240.51 148.069 240.45C148.322 240.389 148.58 240.344 148.843 240.312C149.175 240.274 149.445 240.242 149.652 240.218C149.86 240.192 150.01 240.15 150.104 240.092C150.198 240.034 150.245 239.94 150.245 239.81V239.785C150.245 239.469 150.156 239.224 149.978 239.051C149.802 238.877 149.539 238.791 149.19 238.791C148.826 238.791 148.539 238.871 148.33 239.033C148.122 239.192 147.979 239.369 147.899 239.564L146.884 239.333C147.004 238.995 147.18 238.723 147.411 238.516C147.645 238.306 147.914 238.154 148.218 238.06C148.521 237.964 148.84 237.916 149.175 237.916C149.397 237.916 149.632 237.942 149.88 237.995C150.131 238.046 150.365 238.14 150.581 238.277C150.801 238.415 150.98 238.611 151.12 238.866C151.26 239.119 151.33 239.448 151.33 239.853V243.54H150.274V242.781H150.231C150.161 242.921 150.056 243.058 149.916 243.193C149.777 243.328 149.597 243.44 149.378 243.529C149.159 243.618 148.896 243.663 148.59 243.663ZM148.825 242.795C149.124 242.795 149.379 242.736 149.591 242.618C149.806 242.5 149.968 242.346 150.079 242.156C150.192 241.963 150.249 241.757 150.249 241.538V240.822C150.21 240.86 150.136 240.897 150.025 240.93C149.916 240.962 149.792 240.989 149.652 241.013C149.513 241.035 149.377 241.056 149.244 241.075C149.112 241.092 149.001 241.106 148.912 241.118C148.702 241.145 148.51 241.189 148.337 241.252C148.166 241.315 148.028 241.405 147.925 241.523C147.824 241.639 147.773 241.793 147.773 241.986C147.773 242.253 147.872 242.456 148.069 242.593C148.267 242.728 148.519 242.795 148.825 242.795ZM153.85 236.137V243.54H152.769V236.137H153.85Z" fill="#131316"/>
<path d="M242.589 243.433L245.982 240.04L242.589 236.647" stroke="#9C9CAB" stroke-width="1.09056" stroke-linecap="round" stroke-linejoin="round"/>
<rect x="23.2651" y="276.622" width="238.469" height="34.9949" rx="5.81633" fill="#FF6E00"/>
<path d="M132.429 298.619V290.159H135.528C136.128 290.159 136.625 290.258 137.019 290.456C137.413 290.652 137.707 290.918 137.903 291.254C138.098 291.587 138.196 291.963 138.196 292.381C138.196 292.734 138.131 293.031 138.002 293.274C137.873 293.513 137.699 293.706 137.482 293.852C137.267 293.995 137.03 294.1 136.771 294.166V294.249C137.052 294.262 137.326 294.353 137.593 294.521C137.863 294.687 138.086 294.922 138.262 295.228C138.439 295.533 138.527 295.905 138.527 296.343C138.527 296.775 138.425 297.164 138.221 297.508C138.02 297.849 137.709 298.121 137.287 298.322C136.866 298.52 136.328 298.619 135.672 298.619H132.429ZM133.706 297.524H135.548C136.16 297.524 136.598 297.406 136.862 297.169C137.126 296.932 137.258 296.636 137.258 296.281C137.258 296.014 137.191 295.769 137.056 295.546C136.921 295.323 136.728 295.145 136.478 295.013C136.23 294.881 135.935 294.815 135.594 294.815H133.706V297.524ZM133.706 293.819H135.416C135.703 293.819 135.96 293.764 136.189 293.654C136.42 293.544 136.603 293.389 136.738 293.191C136.876 292.99 136.945 292.753 136.945 292.481C136.945 292.131 136.822 291.838 136.577 291.601C136.332 291.364 135.956 291.245 135.449 291.245H133.706V293.819ZM144.019 295.988V292.274H145.258V298.619H144.044V297.52H143.978C143.832 297.859 143.598 298.141 143.275 298.367C142.956 298.59 142.558 298.702 142.082 298.702C141.674 298.702 141.313 298.612 140.999 298.433C140.688 298.251 140.443 297.983 140.264 297.628C140.088 297.272 140 296.833 140 296.31V292.274H141.235V296.161C141.235 296.594 141.355 296.938 141.594 297.194C141.834 297.45 142.145 297.578 142.528 297.578C142.759 297.578 142.989 297.52 143.218 297.405C143.449 297.289 143.64 297.114 143.792 296.88C143.946 296.646 144.022 296.349 144.019 295.988ZM147.757 300.999C147.572 300.999 147.404 300.983 147.253 300.953C147.101 300.926 146.988 300.895 146.914 300.862L147.212 299.85C147.437 299.911 147.638 299.937 147.815 299.929C147.991 299.92 148.147 299.854 148.281 299.73C148.419 299.606 148.54 299.404 148.645 299.123L148.798 298.702L146.476 292.274H147.798L149.405 297.198H149.471L151.078 292.274H152.404L149.789 299.466C149.668 299.796 149.514 300.076 149.327 300.305C149.139 300.536 148.916 300.709 148.657 300.825C148.399 300.941 148.098 300.999 147.757 300.999Z" fill="white"/>
<g filter="url(#filter0_d_927_438729)">
<circle cx="244.286" cy="92.8308" r="17.449" fill="white"/>
<circle cx="244.286" cy="92.8308" r="17.0855" stroke="#F4F4F6" stroke-width="0.727041"/>
</g>
<path d="M247.316 87.9844V97.6783M247.316 97.6783L244.892 95.2548M247.316 97.6783L249.739 95.2548M241.257 97.6783V87.9844M241.257 87.9844L238.833 90.4078M241.257 87.9844L243.68 90.4078" stroke="#131316" stroke-width="1.09056" stroke-linecap="round" stroke-linejoin="round"/>
<path d="M236.232 122.188V115.842H240.21V116.667H237.189V118.6H240.003V119.421H237.189V121.363H240.247V122.188H236.232ZM241.22 116.667V115.842H246.13V116.667H244.151V122.188H243.196V116.667H241.22ZM247.259 122.188V115.842H248.216V118.6H251.38V115.842H252.34V122.188H251.38V119.421H248.216V122.188H247.259Z" fill="#9C9CAB"/>
<defs>
<filter id="filter0_d_927_438729" x="205.026" y="53.5706" width="78.5204" height="78.5209" filterUnits="userSpaceOnUse" color-interpolation-filters="sRGB">
<feFlood flood-opacity="0" result="BackgroundImageFix"/>
<feColorMatrix in="SourceAlpha" type="matrix" values="0 0 0 0 0 0 0 0 0 0 0 0 0 0 0 0 0 0 127 0" result="hardAlpha"/>
<feOffset/>
<feGaussianBlur stdDeviation="10.9056"/>
<feComposite in2="hardAlpha" operator="out"/>
<feColorMatrix type="matrix" values="0 0 0 0 0.630092 0 0 0 0 0.56844 0 0 0 0 0.95156 0 0 0 0.2 0"/>
<feBlend mode="normal" in2="BackgroundImageFix" result="effect1_dropShadow_927_438729"/>
<feBlend mode="normal" in="SourceGraphic" in2="effect1_dropShadow_927_438729" result="shape"/>
</filter>
<clipPath id="clip0_927_438729">
<rect width="14.5408" height="14.5408" fill="white" transform="translate(101.786 178.142)"/>
</clipPath>
</defs>
</svg>
