<svg width="49" height="48" viewBox="0 0 49 48" fill="none" xmlns="http://www.w3.org/2000/svg">
<g clip-path="url(#clip0_1_1914)">
<path d="M18.9388 46.3109L18.9385 46.3109C6.61019 43.2379 -0.883647 30.7481 2.18938 18.4386L2.18947 18.4382C5.26249 6.11017 17.7341 -1.38365 30.0627 1.68959L30.0637 1.68984C42.3721 4.74441 49.8852 17.2336 46.8119 29.5622L47.7398 29.7936L46.8118 29.5622C43.7389 41.8901 31.2486 49.384 18.9388 46.3109Z" fill="url(#paint0_linear_1_1914)" stroke="#0E0637" stroke-width="2"/>
<path d="M35.9273 21.0095C36.396 17.822 33.9773 16.097 30.6398 14.9532L31.7273 10.622L29.1023 9.96572L28.0523 14.1845C27.3585 14.0157 26.646 13.847 25.9335 13.697L26.9835 9.45947L24.3585 8.80322L23.2898 13.1157C22.7085 12.9845 22.146 12.8532 21.6023 12.722V12.7032L17.9648 11.8032L17.271 14.6157C17.271 14.6157 19.221 15.0657 19.1835 15.0845C20.2523 15.347 20.4398 16.0595 20.4023 16.622L19.1648 21.5532C19.2398 21.572 19.3335 21.5907 19.446 21.647C19.3523 21.6282 19.2585 21.6095 19.1648 21.572L17.4398 28.472C17.3085 28.7907 16.971 29.2782 16.2398 29.0907C16.2585 29.1282 14.3273 28.622 14.3273 28.622L13.0148 31.6407L16.446 32.5032C17.0835 32.672 17.7023 32.822 18.321 32.9907L17.2335 37.3595L19.8585 38.0157L20.946 33.6845C21.6585 33.872 22.371 34.0595 23.046 34.2282L21.9773 38.5407L24.6023 39.197L25.6898 34.8282C30.1898 35.672 33.5648 35.3345 34.971 31.2657C36.1148 28.0032 34.9148 26.1095 32.5523 24.872C34.296 24.4782 35.5898 23.3345 35.9273 21.0095ZM29.9085 29.447C29.1023 32.7095 23.5898 30.947 21.8085 30.497L23.2523 24.7032C25.0335 25.1532 30.771 26.0345 29.9085 29.447ZM30.7335 20.9532C29.9835 23.9345 25.4085 22.4157 23.9273 22.0407L25.2398 16.7907C26.721 17.1657 31.5023 17.8595 30.7335 20.9532Z" fill="white"/>
</g>
<defs>
<linearGradient id="paint0_linear_1_1914" x1="24.4871" y1="-0.0112759" x2="24.4871" y2="47.9954" gradientUnits="userSpaceOnUse">
<stop stop-color="#F9AA4B"/>
<stop offset="1" stop-color="#F7931A"/>
</linearGradient>
<clipPath id="clip0_1_1914">
<rect width="48" height="48" fill="white" transform="translate(0.5)"/>
</clipPath>
</defs>
</svg>
