<svg width="49" height="48" viewBox="0 0 49 48" fill="none" xmlns="http://www.w3.org/2000/svg">
<g clip-path="url(#clip0_1_1916)">
<path d="M24.5 1C37.2026 1 47.5 11.2974 47.5 24C47.5 36.7026 37.2026 47 24.5 47C11.7974 47 1.5 36.7026 1.5 24C1.5 11.2974 11.7974 1 24.5 1Z" fill="#1A82FF" stroke="#0E0637" stroke-width="2"/>
<path d="M33.2743 33.8826C31.1966 36.428 28.2745 37.7007 24.5081 37.7007C20.7417 37.7007 17.8192 36.428 15.7406 33.8826C13.6615 31.3359 12.6224 28.044 12.6233 24.0069C12.6242 19.9699 13.6628 16.6785 15.7392 14.1327C17.8169 11.5859 20.7394 10.3128 24.5067 10.3132C28.274 10.3137 31.1961 11.5868 33.2729 14.1327C35.3506 16.678 36.3897 19.9695 36.3902 24.0069C36.3906 28.0444 35.352 31.3363 33.2743 33.8826Z" fill="white"/>
<path d="M24.4644 32.3779C25.4559 32.3779 26.2989 32.1078 26.9933 31.5674C27.6877 31.0271 28.1905 30.2943 28.5018 29.369C28.8127 28.4433 29.0321 27.556 29.1601 26.7071C29.2881 25.8582 29.3517 24.9581 29.3508 24.0067C29.3508 22.8355 29.2799 21.7873 29.1382 20.8621L20.5956 29.764C21.3855 31.5057 22.6751 32.377 24.4644 32.3779Z" fill="#1A82FF"/>
<path d="M24.5494 15.6357C23.5578 15.6357 22.7149 15.9059 22.0205 16.4462C21.3261 16.9866 20.8232 17.7194 20.5119 18.6446C20.1992 19.5703 19.9798 20.4576 19.8536 21.3065C19.7256 22.1554 19.6621 23.0555 19.663 24.0067C19.663 24.6335 19.6831 25.225 19.7233 25.7813L27.871 17.2924C27.0797 16.1884 25.9725 15.6362 24.5494 15.6357V15.6357Z" fill="#1A82FF"/>
<path d="M13.2872 32.4932L12.2381 31.4865L20.1937 23.1935L21.2429 24.2001L13.2872 32.4932ZM28.2769 23.8395L27.2278 22.8328L35.1834 14.5398L36.2326 15.5464L28.2769 23.8395Z" fill="#1A82FF"/>
</g>
<defs>
<clipPath id="clip0_1_1916">
<rect width="48" height="48" fill="white" transform="translate(0.5)"/>
</clipPath>
</defs>
</svg>
