<svg width="49" height="48" viewBox="0 0 49 48" fill="none" xmlns="http://www.w3.org/2000/svg">
<g clip-path="url(#clip0_1_1917)">
<path d="M47.5 24C47.5 36.7025 37.2025 47 24.5 47C11.7975 47 1.5 36.7025 1.5 24C1.5 11.2975 11.7975 1 24.5 1C37.2025 1 47.5 11.2975 47.5 24Z" fill="#767DFF" stroke="#0E0637" stroke-width="2"/>
<path fill-rule="evenodd" clip-rule="evenodd" d="M21.155 9.75H27.845C28.0768 9.74988 28.3045 9.81152 28.5046 9.92858C28.7047 10.0456 28.87 10.2139 28.9835 10.416L39.3425 28.8945C39.4516 29.0893 39.5088 29.3088 39.5088 29.532C39.5088 29.7552 39.4516 29.9747 39.3425 30.1695L36.0275 36.0825C35.9143 36.2847 35.7493 36.4531 35.5495 36.5704C35.3497 36.6877 35.1222 36.7497 34.8905 36.75H14.1095C13.8775 36.75 13.6498 36.6881 13.4497 36.5708C13.2495 36.4535 13.0843 36.2849 12.971 36.0825L9.6575 30.1695C9.54846 29.9747 9.4912 29.7552 9.4912 29.532C9.4912 29.3088 9.54846 29.0893 9.6575 28.8945L20.0165 10.416C20.13 10.2139 20.2953 10.0456 20.4954 9.92858C20.6955 9.81152 20.9232 9.74988 21.155 9.75V9.75ZM24.5 17.1015L17.5205 29.532H31.4795L24.5 17.1015Z" fill="white"/>
</g>
<defs>
<clipPath id="clip0_1_1917">
<rect width="48" height="48" fill="white" transform="translate(0.5)"/>
</clipPath>
</defs>
</svg>
