<svg width="51" height="50" viewBox="0 0 51 50" fill="none" xmlns="http://www.w3.org/2000/svg">
<circle cx="25.5" cy="25" r="24" fill="#00DCFA" stroke="#0E0637" stroke-width="2"/>
<path fill-rule="evenodd" clip-rule="evenodd" d="M19.3739 18.8725C19.9972 13.0912 24.9575 8.6001 30.7977 8.6001C37.1491 8.60426 42.2967 13.7525 42.3 20.1039C42.3 25.9426 37.809 30.903 32.0261 31.5277C31.4225 37.309 26.4425 41.8001 20.6023 41.8001C14.2509 41.7959 9.10334 36.6477 9.10001 30.2963C9.10001 24.4576 13.5896 19.4972 19.3739 18.8725ZM32.1046 28.8913C35.9765 28.3019 39.0153 25.2631 39.6048 21.3912H32.1046V28.8913ZM11.7952 29.009L11.7982 28.9894H19.2954V21.4892C15.4239 22.08 12.3871 25.1192 11.7982 28.9894H11.7952V29.009ZM29.4106 31.6062L29.4109 31.6047V31.6062H29.4106ZM29.4106 31.6062C28.7659 35.973 25.0166 39.2067 20.6023 39.203C16.1883 39.2068 12.4393 35.9729 11.7952 31.6062H29.4106ZM29.509 21.3912V28.9894H21.8911V21.3912H29.509ZM21.9891 18.7955H39.6048V18.794C38.9607 14.4273 35.2117 11.1934 30.7977 11.1972C26.3829 11.1934 22.6332 14.4279 21.9891 18.7955Z" fill="white"/>
</svg>
