<svg width="352" height="200" viewBox="0 0 352 200" fill="none" xmlns="http://www.w3.org/2000/svg">
<g clip-path="url(#clip0_15_72)">
<path d="M0 0H352V200H0V0Z" fill="#FF6E00"/>
<g filter="url(#filter0_d_15_72)">
<rect x="-36" y="100" width="300" height="300" transform="rotate(-45 -36 100)" fill="url(#paint0_radial_15_72)" shape-rendering="crispEdges"/>
</g>
<g filter="url(#filter1_d_15_72)">
<rect x="35" y="100" width="200" height="200" transform="rotate(-45 35 100)" fill="url(#paint1_radial_15_72)" shape-rendering="crispEdges"/>
</g>
<path opacity="0.5" d="M165.607 126.466C165.482 127.25 165.082 127.964 164.479 128.479C163.875 128.994 163.107 129.277 162.314 129.276H149.54C148.797 129.278 148.063 129.117 147.389 128.806C146.714 128.494 146.116 128.039 145.635 127.473C145.154 126.907 144.803 126.242 144.605 125.526C144.407 124.81 144.368 124.059 144.49 123.326L153.124 68.6397C153.361 67.1622 154.116 65.8172 155.254 64.8451C156.391 63.873 157.837 63.337 159.334 63.333H180.047C188.58 63.333 194.74 65.3997 198.354 69.4763C200.073 71.4576 201.296 73.8194 201.922 76.3668C202.548 78.9142 202.559 81.5739 201.954 84.1263C201.884 84.5763 201.81 85.0263 201.704 85.5197C198.96 99.5797 189.52 107.043 174.417 107.043H168.69L165.607 126.466ZM151.074 124.373L151.07 124.393L151.074 124.373ZM159.71 69.6563V69.663V69.6563Z" fill="url(#paint2_linear_15_72)"/>
<path d="M204.124 83.6797C203.571 83.0612 202.963 82.4944 202.307 81.9863C202.236 82.7066 202.118 83.4215 201.954 84.1263C201.884 84.5763 201.81 85.0263 201.704 85.5197C198.96 99.5797 189.52 107.043 174.417 107.043H168.69L165.607 126.466C165.482 127.25 165.082 127.964 164.479 128.479C163.875 128.994 163.107 129.277 162.314 129.276H158.424L158.15 131.01C158.04 131.708 158.081 132.421 158.273 133.102C158.464 133.782 158.801 134.413 159.26 134.95C159.719 135.488 160.289 135.92 160.93 136.216C161.572 136.512 162.27 136.666 162.977 136.666H173.757C175.153 136.678 176.508 136.192 177.578 135.294C178.648 134.397 179.363 133.147 179.594 131.77L181.727 118.333L181.767 118.15H182.76C196.204 118.15 204.597 111.506 207.047 98.943C207.794 96.3487 207.919 93.6148 207.411 90.9633C206.903 88.3119 205.777 85.8176 204.124 83.683V83.6797Z" fill="url(#paint3_linear_15_72)"/>
</g>
<defs>
<filter id="filter0_d_15_72" x="-136" y="-212.132" width="624.264" height="624.264" filterUnits="userSpaceOnUse" color-interpolation-filters="sRGB">
<feFlood flood-opacity="0" result="BackgroundImageFix"/>
<feColorMatrix in="SourceAlpha" type="matrix" values="0 0 0 0 0 0 0 0 0 0 0 0 0 0 0 0 0 0 127 0" result="hardAlpha"/>
<feOffset/>
<feGaussianBlur stdDeviation="50"/>
<feComposite in2="hardAlpha" operator="out"/>
<feColorMatrix type="matrix" values="0 0 0 0 0.184889 0 0 0 0 0.0817778 0 0 0 0 0.718222 0 0 0 0.5 0"/>
<feBlend mode="normal" in2="BackgroundImageFix" result="effect1_dropShadow_15_72"/>
<feBlend mode="normal" in="SourceGraphic" in2="effect1_dropShadow_15_72" result="shape"/>
</filter>
<filter id="filter1_d_15_72" x="-65" y="-141.421" width="482.843" height="482.843" filterUnits="userSpaceOnUse" color-interpolation-filters="sRGB">
<feFlood flood-opacity="0" result="BackgroundImageFix"/>
<feColorMatrix in="SourceAlpha" type="matrix" values="0 0 0 0 0 0 0 0 0 0 0 0 0 0 0 0 0 0 127 0" result="hardAlpha"/>
<feOffset/>
<feGaussianBlur stdDeviation="50"/>
<feComposite in2="hardAlpha" operator="out"/>
<feColorMatrix type="matrix" values="0 0 0 0 0.184889 0 0 0 0 0.0817778 0 0 0 0 0.718222 0 0 0 0.5 0"/>
<feBlend mode="normal" in2="BackgroundImageFix" result="effect1_dropShadow_15_72"/>
<feBlend mode="normal" in="SourceGraphic" in2="effect1_dropShadow_15_72" result="shape"/>
</filter>
<radialGradient id="paint0_radial_15_72" cx="0" cy="0" r="1" gradientUnits="userSpaceOnUse" gradientTransform="translate(114 250) rotate(135) scale(177.75)">
<stop stop-color="white" stop-opacity="0.1"/>
<stop offset="1" stop-color="white" stop-opacity="0"/>
</radialGradient>
<radialGradient id="paint1_radial_15_72" cx="0" cy="0" r="1" gradientUnits="userSpaceOnUse" gradientTransform="translate(135 200) rotate(135) scale(118.5)">
<stop stop-color="white" stop-opacity="0.1"/>
<stop offset="1" stop-color="white" stop-opacity="0"/>
</radialGradient>
<linearGradient id="paint2_linear_15_72" x1="173.41" y1="70.4036" x2="173.41" y2="129.276" gradientUnits="userSpaceOnUse">
<stop stop-color="white"/>
<stop offset="0.921882" stop-color="#F7F6FE"/>
</linearGradient>
<linearGradient id="paint3_linear_15_72" x1="182.904" y1="87.8493" x2="182.904" y2="136.667" gradientUnits="userSpaceOnUse">
<stop stop-color="white"/>
<stop offset="0.921882" stop-color="#F7F6FE"/>
</linearGradient>
<clipPath id="clip0_15_72">
<rect width="352" height="200" fill="white"/>
</clipPath>
</defs>
</svg>
