<svg width="352" height="200" viewBox="0 0 352 200" fill="none" xmlns="http://www.w3.org/2000/svg">
<g clip-path="url(#clip0_15_665)">
<path d="M0 0H352V200H0V0Z" fill="#F7DF27"/>
<mask id="path-2-inside-1_15_665" fill="white">
<path d="M325.998 99.9991C325.998 182.842 258.842 250 176 250C93.1569 250 26 182.842 26 99.9991C26 17.1569 93.1569 -50 176 -50C258.841 -50 325.998 17.1569 325.998 99.9991Z"/>
</mask>
<path d="M325.998 99.9991C325.998 182.842 258.842 250 176 250C93.1569 250 26 182.842 26 99.9991C26 17.1569 93.1569 -50 176 -50C258.841 -50 325.998 17.1569 325.998 99.9991Z" fill="url(#paint0_linear_15_665)"/>
<path d="M176 250V247V250ZM322.998 99.9991C322.998 181.185 257.185 247 176 247V253C260.499 253 328.998 184.499 328.998 99.9991H322.998ZM176 247C94.8137 247 29 181.185 29 99.9991H23C23 184.499 91.5 253 176 253V247ZM29 99.9991C29 18.8137 94.8137 -47 176 -47V-53C91.5 -53 23 15.5 23 99.9991H29ZM176 -47C257.184 -47 322.998 18.8137 322.998 99.9991H328.998C328.998 15.5 260.498 -53 176 -53V-47Z" fill="url(#paint1_linear_15_665)" mask="url(#path-2-inside-1_15_665)"/>
<mask id="path-4-inside-2_15_665" fill="white">
<path d="M96.001 100.001C96.001 50.2947 136.295 10 186 10C235.706 10 276 50.2946 276 100.001C276 149.706 235.706 190 186 190C136.295 190 96.001 149.706 96.001 100.001Z"/>
</mask>
<path d="M96.001 100.001C96.001 50.2947 136.295 10 186 10C235.706 10 276 50.2946 276 100.001C276 149.706 235.706 190 186 190C136.295 190 96.001 149.706 96.001 100.001Z" fill="url(#paint2_linear_15_665)"/>
<path d="M99.001 100.001C99.001 51.9515 137.952 13 186 13L186 7.00001C134.638 7.00001 93.001 48.6379 93.001 100.001L99.001 100.001ZM186 13C234.049 13 273 51.9515 273 100.001L279 100.001C279 48.6378 237.363 7 186 7.00001L186 13ZM273 100.001C273 148.049 234.049 187 186 187L186 193C237.363 193 279 151.363 279 100.001L273 100.001ZM186 187C137.952 187 99.001 148.049 99.001 100.001L93.001 100.001C93.001 151.363 134.638 193 186 193L186 187Z" fill="url(#paint3_linear_15_665)" mask="url(#path-4-inside-2_15_665)"/>
<path d="M144 99.9998C144 122.091 126.091 140 104 140C81.9085 140 64 122.091 64 99.9998C64 77.9085 81.9085 60 104 60C126.091 60 144 77.9085 144 99.9998Z" fill="white" fill-opacity="0.7"/>
<path d="M136 99.9998C136 117.673 121.673 132 104 132C86.3268 132 72 117.673 72 99.9998C72 82.3268 86.3268 68 104 68C121.673 68 136 82.3268 136 99.9998Z" fill="white"/>
<g clip-path="url(#clip1_15_665)">
<path d="M96.236 96.8075L104.005 89.0419L111.777 96.8138L116.294 92.2929L104.005 80L91.715 92.2897L96.236 96.8075Z" fill="#0E0637"/>
<path d="M84 100.002L88.5178 95.4806L93.0388 100.002L88.5178 104.519L84 100.002Z" fill="#0E0637"/>
<path d="M96.236 103.192L104.005 110.961L111.777 103.189L116.298 107.704L104.008 119.997L91.715 107.713L96.236 103.192Z" fill="#0E0637"/>
<path d="M114.961 100.001L119.479 95.4805L124 99.9983L119.479 104.522L114.961 100.001Z" fill="#0E0637"/>
<path d="M108.589 99.9984L104.005 95.4111L100.615 98.8011L100.223 99.1897L99.4209 99.9921L104.005 104.573L108.589 100.002V99.9984Z" fill="#0E0637"/>
</g>
<path d="M288 99.9998C288 122.091 270.091 140 248 140C225.908 140 208 122.091 208 99.9998C208 77.9085 225.908 60 248 60C270.091 60 288 77.9085 288 99.9998Z" fill="white" fill-opacity="0.7"/>
<path d="M280 99.9998C280 117.673 265.673 132 248 132C230.327 132 216 117.673 216 99.9998C216 82.3268 230.327 68 248 68C265.673 68 280 82.3268 280 99.9998Z" fill="#F7DF27"/>
<path d="M235.5 101.25L245.5 111.25L260.5 88.75" stroke="white" stroke-width="6" stroke-linecap="round" stroke-linejoin="round"/>
<path d="M190.5 80.5L198 88M198 88L190.5 95.5M198 88H162" stroke="url(#paint4_linear_15_665)" stroke-width="4" stroke-linecap="round" stroke-linejoin="round"/>
<path d="M169.5 119.5L162 112M162 112L169.5 104.5M162 112H198" stroke="url(#paint5_linear_15_665)" stroke-width="4" stroke-linecap="round" stroke-linejoin="round"/>
</g>
<defs>
<linearGradient id="paint0_linear_15_665" x1="325.998" y1="-50" x2="25.9975" y2="250" gradientUnits="userSpaceOnUse">
<stop stop-color="white" stop-opacity="0.5"/>
<stop offset="1" stop-color="white" stop-opacity="0"/>
</linearGradient>
<linearGradient id="paint1_linear_15_665" x1="167.5" y1="-72.5" x2="176" y2="181" gradientUnits="userSpaceOnUse">
<stop stop-color="white"/>
<stop offset="1" stop-color="white" stop-opacity="0"/>
</linearGradient>
<linearGradient id="paint2_linear_15_665" x1="96.0015" y1="190" x2="276.001" y2="9.99995" gradientUnits="userSpaceOnUse">
<stop stop-color="white" stop-opacity="0.5"/>
<stop offset="1" stop-color="white" stop-opacity="0"/>
</linearGradient>
<linearGradient id="paint3_linear_15_665" x1="191.1" y1="203.5" x2="186" y2="51.4" gradientUnits="userSpaceOnUse">
<stop stop-color="white"/>
<stop offset="1" stop-color="white" stop-opacity="0"/>
</linearGradient>
<linearGradient id="paint4_linear_15_665" x1="198" y1="88" x2="162" y2="88" gradientUnits="userSpaceOnUse">
<stop stop-color="white"/>
<stop offset="1" stop-color="white" stop-opacity="0"/>
</linearGradient>
<linearGradient id="paint5_linear_15_665" x1="162" y1="112" x2="198" y2="112" gradientUnits="userSpaceOnUse">
<stop stop-color="white"/>
<stop offset="1" stop-color="white" stop-opacity="0"/>
</linearGradient>
<clipPath id="clip0_15_665">
<rect width="352" height="200" fill="white"/>
</clipPath>
<clipPath id="clip1_15_665">
<rect width="40" height="40" fill="white" transform="translate(84 80)"/>
</clipPath>
</defs>
</svg>
