<svg width="352" height="200" viewBox="0 0 352 200" fill="none" xmlns="http://www.w3.org/2000/svg">
<g clip-path="url(#clip0_15_598)">
<rect width="352" height="200" fill="#EFEDFD"/>
<path d="M2 61H190.349C194.422 61 195.89 66.3755 192.382 68.445L87.1179 130.555C83.6105 132.624 85.0782 138 89.1506 138H352.5" stroke="white" stroke-width="2"/>
<rect x="159" y="32" width="226" height="56" rx="12" fill="white"/>
<path d="M256.979 65H255.348L259.012 54.8182H260.787L264.451 65H262.82L259.942 56.6676H259.862L256.979 65ZM257.252 61.0128H262.542V62.3054H257.252V61.0128ZM265.802 67.8636V57.3636H267.254V58.6016H267.378C267.464 58.4425 267.588 58.2585 267.751 58.0497C267.913 57.8409 268.139 57.6586 268.427 57.5028C268.715 57.3438 269.097 57.2642 269.57 57.2642C270.187 57.2642 270.737 57.42 271.221 57.7315C271.705 58.0431 272.084 58.4922 272.36 59.0788C272.638 59.6655 272.777 60.3714 272.777 61.1967C272.777 62.022 272.64 62.7296 272.365 63.3196C272.089 63.9062 271.712 64.3587 271.231 64.6768C270.75 64.9917 270.202 65.1491 269.585 65.1491C269.121 65.1491 268.742 65.0713 268.447 64.9155C268.155 64.7597 267.927 64.5774 267.761 64.3686C267.595 64.1598 267.468 63.9742 267.378 63.8118H267.289V67.8636H265.802ZM267.259 61.1818C267.259 61.7187 267.337 62.1894 267.492 62.5938C267.648 62.9981 267.874 63.3146 268.169 63.5433C268.463 63.7687 268.825 63.8814 269.252 63.8814C269.696 63.8814 270.068 63.7637 270.366 63.5284C270.664 63.2898 270.89 62.9666 271.042 62.5589C271.198 62.1513 271.276 61.6922 271.276 61.1818C271.276 60.678 271.2 60.2256 271.047 59.8246C270.898 59.4235 270.673 59.107 270.371 58.875C270.073 58.643 269.7 58.527 269.252 58.527C268.821 58.527 268.457 58.638 268.159 58.8601C267.864 59.0821 267.64 59.392 267.487 59.7898C267.335 60.1875 267.259 60.6515 267.259 61.1818ZM274.443 67.8636V57.3636H275.894V58.6016H276.019C276.105 58.4425 276.229 58.2585 276.392 58.0497C276.554 57.8409 276.779 57.6586 277.068 57.5028C277.356 57.3438 277.737 57.2642 278.211 57.2642C278.828 57.2642 279.378 57.42 279.862 57.7315C280.346 58.0431 280.725 58.4922 281 59.0788C281.279 59.6655 281.418 60.3714 281.418 61.1967C281.418 62.022 281.28 62.7296 281.005 63.3196C280.73 63.9062 280.352 64.3587 279.872 64.6768C279.391 64.9917 278.843 65.1491 278.226 65.1491C277.762 65.1491 277.383 65.0713 277.088 64.9155C276.796 64.7597 276.567 64.5774 276.401 64.3686C276.236 64.1598 276.108 63.9742 276.019 63.8118H275.929V67.8636H274.443ZM275.899 61.1818C275.899 61.7187 275.977 62.1894 276.133 62.5938C276.289 62.9981 276.514 63.3146 276.809 63.5433C277.104 63.7687 277.465 63.8814 277.893 63.8814C278.337 63.8814 278.708 63.7637 279.007 63.5284C279.305 63.2898 279.53 62.9666 279.683 62.5589C279.838 62.1513 279.916 61.6922 279.916 61.1818C279.916 60.678 279.84 60.2256 279.688 59.8246C279.539 59.4235 279.313 59.107 279.012 58.875C278.713 58.643 278.34 58.527 277.893 58.527C277.462 58.527 277.097 58.638 276.799 58.8601C276.504 59.0821 276.28 59.392 276.128 59.7898C275.976 60.1875 275.899 60.6515 275.899 61.1818ZM284.57 54.8182V65H283.083V54.8182H284.57ZM289.861 65.1541C289.108 65.1541 288.46 64.9934 287.917 64.6719C287.377 64.3471 286.959 63.8913 286.664 63.3047C286.372 62.7147 286.227 62.0237 286.227 61.2315C286.227 60.4493 286.372 59.7599 286.664 59.1634C286.959 58.5668 287.37 58.1011 287.897 57.7663C288.427 57.4316 289.047 57.2642 289.756 57.2642C290.187 57.2642 290.605 57.3355 291.009 57.478C291.414 57.6205 291.777 57.8442 292.098 58.1491C292.42 58.4541 292.673 58.8501 292.859 59.3374C293.044 59.8213 293.137 60.4096 293.137 61.1023V61.6293H287.067V60.5156H291.68C291.68 60.1245 291.601 59.7782 291.442 59.4766C291.283 59.1716 291.059 58.9313 290.771 58.7557C290.486 58.58 290.151 58.4922 289.766 58.4922C289.349 58.4922 288.984 58.5949 288.673 58.8004C288.364 59.0026 288.126 59.2678 287.957 59.5959C287.791 59.9207 287.708 60.2737 287.708 60.6548V61.5249C287.708 62.0353 287.798 62.4695 287.977 62.8274C288.159 63.1854 288.412 63.4588 288.737 63.6477C289.062 63.8333 289.442 63.9261 289.876 63.9261C290.157 63.9261 290.414 63.8864 290.646 63.8068C290.878 63.724 291.079 63.6013 291.248 63.4389C291.417 63.2765 291.546 63.076 291.636 62.8374L293.043 63.0909C292.93 63.5052 292.728 63.8681 292.436 64.1797C292.148 64.4879 291.785 64.7282 291.347 64.9006C290.913 65.0696 290.418 65.1541 289.861 65.1541ZM298.611 65V54.8182H302.24C303.032 54.8182 303.688 54.9624 304.209 55.2507C304.729 55.5391 305.119 55.9335 305.377 56.4339C305.636 56.9311 305.765 57.4912 305.765 58.1143C305.765 58.7408 305.634 59.3042 305.372 59.8047C305.114 60.3018 304.723 60.6963 304.199 60.9879C303.679 61.2763 303.024 61.4205 302.235 61.4205H299.739V60.1179H302.096C302.596 60.1179 303.002 60.0317 303.314 59.8594C303.625 59.6837 303.854 59.4451 304 59.1435C304.146 58.8419 304.219 58.4988 304.219 58.1143C304.219 57.7299 304.146 57.3885 304 57.0902C303.854 56.7919 303.624 56.5582 303.309 56.3892C302.997 56.2202 302.586 56.1357 302.076 56.1357H300.147V65H298.611ZM309.6 65.169C309.117 65.169 308.679 65.0795 308.288 64.9006C307.897 64.7183 307.587 64.4548 307.358 64.1101C307.133 63.7654 307.02 63.3428 307.02 62.8423C307.02 62.4115 307.103 62.0568 307.269 61.7784C307.435 61.5 307.658 61.2796 307.94 61.1172C308.222 60.9548 308.537 60.8321 308.885 60.7493C309.233 60.6664 309.587 60.6035 309.949 60.5604C310.406 60.5073 310.777 60.4643 311.062 60.4311C311.347 60.3946 311.554 60.3366 311.684 60.2571C311.813 60.1776 311.877 60.0483 311.877 59.8693V59.8345C311.877 59.4003 311.755 59.0639 311.51 58.8253C311.268 58.5866 310.906 58.4673 310.426 58.4673C309.925 58.4673 309.531 58.5784 309.243 58.8004C308.958 59.0192 308.76 59.2628 308.651 59.5312L307.254 59.2131C307.42 58.7491 307.662 58.3745 307.98 58.0895C308.301 57.8011 308.671 57.5923 309.088 57.4631C309.506 57.3305 309.945 57.2642 310.406 57.2642C310.711 57.2642 311.034 57.3007 311.375 57.3736C311.72 57.4432 312.042 57.5724 312.34 57.7614C312.641 57.9503 312.888 58.2204 313.081 58.5717C313.273 58.9197 313.369 59.3722 313.369 59.929V65H311.917V63.956H311.858C311.761 64.1482 311.617 64.3371 311.425 64.5227C311.233 64.7083 310.986 64.8625 310.684 64.9851C310.383 65.1077 310.021 65.169 309.6 65.169ZM309.924 63.9759C310.335 63.9759 310.686 63.8946 310.978 63.7322C311.273 63.5698 311.496 63.3577 311.649 63.0959C311.805 62.8307 311.882 62.5473 311.882 62.2457V61.2614C311.829 61.3144 311.727 61.3641 311.574 61.4105C311.425 61.4536 311.254 61.4917 311.062 61.5249C310.87 61.5547 310.683 61.5829 310.5 61.6094C310.318 61.6326 310.166 61.6525 310.043 61.669C309.755 61.7055 309.491 61.7668 309.252 61.853C309.017 61.9392 308.828 62.0634 308.686 62.2259C308.547 62.3849 308.477 62.5971 308.477 62.8622C308.477 63.2301 308.613 63.5085 308.885 63.6974C309.156 63.883 309.503 63.9759 309.924 63.9759ZM316.015 67.8636C315.793 67.8636 315.591 67.8454 315.409 67.8089C315.226 67.7758 315.09 67.7393 315.001 67.6996L315.359 66.4815C315.631 66.5545 315.873 66.5859 316.085 66.576C316.297 66.5661 316.484 66.4865 316.646 66.3374C316.812 66.1882 316.958 65.9446 317.084 65.6065L317.268 65.0994L314.474 57.3636H316.065L317.999 63.2898H318.078L320.012 57.3636H321.608L318.461 66.0192C318.315 66.4169 318.13 66.7533 317.904 67.0284C317.679 67.3068 317.41 67.5156 317.099 67.6548C316.787 67.794 316.426 67.8636 316.015 67.8636Z" fill="black"/>
<rect x="167" y="40" width="72" height="40" rx="8" fill="#E7E3FC"/>
<g clip-path="url(#clip1_15_598)">
<path d="M190.311 53.8092C189.841 54.3692 189.093 54.813 188.345 54.748C188.246 53.993 188.619 53.1842 189.049 52.683C189.518 52.1117 190.338 51.7017 191.003 51.668C191.081 52.4567 190.774 53.2317 190.313 53.8092H190.311ZM190.995 54.8967C189.909 54.8305 188.976 55.5205 188.461 55.5205C187.935 55.5205 187.146 54.9292 186.288 54.9492C185.174 54.963 184.133 55.5992 183.566 56.623C182.388 58.6592 183.26 61.6742 184.393 63.3342C184.946 64.1542 185.609 65.053 186.483 65.028C187.309 64.9942 187.641 64.4817 188.638 64.4817C189.646 64.4817 189.933 65.028 190.813 65.008C191.716 64.9942 192.289 64.188 192.843 63.368C193.474 62.4367 193.734 61.5242 193.748 61.4792C193.734 61.4592 191.996 60.7892 191.984 58.7705C191.97 57.0767 193.35 56.2705 193.409 56.2242C192.634 55.053 191.41 54.9292 190.994 54.898L190.995 54.8967ZM197.265 52.6042V64.923H199.159V60.7117H201.778C204.166 60.7117 205.846 59.0517 205.846 56.6555C205.846 54.2542 204.2 52.6055 201.843 52.6055L197.265 52.6042ZM199.159 54.2192H201.34C202.98 54.2192 203.919 55.1042 203.919 56.6605C203.919 58.2167 202.98 59.1092 201.328 59.1092H199.159V54.2192ZM209.295 65.0142C210.486 65.0142 211.586 64.4092 212.089 63.4442H212.129V64.923H213.879V58.7892C213.879 57.0192 212.474 55.868 210.305 55.868C208.3 55.868 206.815 57.033 206.764 58.628H208.463C208.606 57.8667 209.296 57.3717 210.254 57.3717C211.413 57.3717 212.058 57.918 212.058 58.9217V59.598L209.701 59.7417C207.5 59.878 206.315 60.783 206.315 62.3655C206.315 63.9605 207.54 65.0155 209.296 65.0155L209.295 65.0142ZM209.81 63.5555C208.8 63.5555 208.156 63.0667 208.156 62.3192C208.156 61.5442 208.775 61.088 209.953 61.0155L212.056 60.8855V61.5817C212.056 62.7355 211.086 63.5555 209.803 63.5555H209.81ZM216.216 68.2755C218.058 68.2755 218.925 67.5592 219.68 65.4042L223 55.9905H221.08L218.854 63.2617H218.814L216.588 55.9905H214.609L217.813 64.9555L217.643 65.5017C217.349 66.4205 216.881 66.7767 216.048 66.7767C215.898 66.7767 215.611 66.758 215.494 66.7455V68.2242C215.604 68.2555 216.074 68.2692 216.21 68.2692L216.216 68.2755Z" fill="black"/>
</g>
<rect x="40" y="112" width="226" height="56" rx="12" fill="white"/>
<path d="M144.009 138.035C143.913 137.733 143.784 137.463 143.621 137.224C143.462 136.982 143.272 136.777 143.05 136.608C142.828 136.436 142.574 136.305 142.289 136.215C142.007 136.126 141.697 136.081 141.359 136.081C140.786 136.081 140.269 136.228 139.808 136.523C139.348 136.818 138.983 137.251 138.714 137.821C138.449 138.388 138.317 139.082 138.317 139.904C138.317 140.729 138.451 141.427 138.719 141.997C138.988 142.567 139.356 143 139.823 143.295C140.29 143.59 140.822 143.737 141.419 143.737C141.973 143.737 142.455 143.625 142.866 143.399C143.28 143.174 143.6 142.856 143.825 142.445C144.054 142.03 144.168 141.543 144.168 140.983L144.566 141.058H141.653V139.79H145.655V140.948C145.655 141.803 145.473 142.546 145.108 143.175C144.747 143.802 144.246 144.286 143.607 144.627C142.97 144.969 142.241 145.139 141.419 145.139C140.498 145.139 139.689 144.927 138.993 144.503C138.3 144.079 137.76 143.477 137.372 142.698C136.984 141.916 136.79 140.988 136.79 139.914C136.79 139.102 136.903 138.373 137.129 137.727C137.354 137.08 137.67 136.532 138.078 136.081C138.489 135.627 138.971 135.281 139.525 135.042C140.082 134.8 140.69 134.679 141.349 134.679C141.9 134.679 142.412 134.76 142.886 134.923C143.363 135.085 143.787 135.315 144.158 135.614C144.533 135.912 144.843 136.267 145.088 136.678C145.333 137.085 145.499 137.538 145.585 138.035H144.009ZM150.702 145.154C149.986 145.154 149.362 144.99 148.828 144.662C148.294 144.334 147.88 143.875 147.585 143.285C147.29 142.695 147.143 142.005 147.143 141.217C147.143 140.424 147.29 139.732 147.585 139.138C147.88 138.545 148.294 138.085 148.828 137.756C149.362 137.428 149.986 137.264 150.702 137.264C151.418 137.264 152.043 137.428 152.577 137.756C153.11 138.085 153.524 138.545 153.819 139.138C154.114 139.732 154.262 140.424 154.262 141.217C154.262 142.005 154.114 142.695 153.819 143.285C153.524 143.875 153.11 144.334 152.577 144.662C152.043 144.99 151.418 145.154 150.702 145.154ZM150.707 143.906C151.171 143.906 151.556 143.784 151.861 143.538C152.166 143.293 152.391 142.967 152.537 142.559C152.686 142.151 152.76 141.702 152.76 141.212C152.76 140.724 152.686 140.277 152.537 139.869C152.391 139.458 152.166 139.129 151.861 138.88C151.556 138.631 151.171 138.507 150.707 138.507C150.24 138.507 149.852 138.631 149.544 138.88C149.239 139.129 149.012 139.458 148.863 139.869C148.717 140.277 148.644 140.724 148.644 141.212C148.644 141.702 148.717 142.151 148.863 142.559C149.012 142.967 149.239 143.293 149.544 143.538C149.852 143.784 150.24 143.906 150.707 143.906ZM159.138 145.154C158.422 145.154 157.797 144.99 157.263 144.662C156.73 144.334 156.316 143.875 156.021 143.285C155.726 142.695 155.578 142.005 155.578 141.217C155.578 140.424 155.726 139.732 156.021 139.138C156.316 138.545 156.73 138.085 157.263 137.756C157.797 137.428 158.422 137.264 159.138 137.264C159.854 137.264 160.478 137.428 161.012 137.756C161.546 138.085 161.96 138.545 162.255 139.138C162.55 139.732 162.697 140.424 162.697 141.217C162.697 142.005 162.55 142.695 162.255 143.285C161.96 143.875 161.546 144.334 161.012 144.662C160.478 144.99 159.854 145.154 159.138 145.154ZM159.143 143.906C159.607 143.906 159.991 143.784 160.296 143.538C160.601 143.293 160.826 142.967 160.972 142.559C161.121 142.151 161.196 141.702 161.196 141.212C161.196 140.724 161.121 140.277 160.972 139.869C160.826 139.458 160.601 139.129 160.296 138.88C159.991 138.631 159.607 138.507 159.143 138.507C158.675 138.507 158.288 138.631 157.979 138.88C157.674 139.129 157.447 139.458 157.298 139.869C157.152 140.277 157.08 140.724 157.08 141.212C157.08 141.702 157.152 142.151 157.298 142.559C157.447 142.967 157.674 143.293 157.979 143.538C158.288 143.784 158.675 143.906 159.143 143.906ZM167.558 148.023C166.952 148.023 166.43 147.943 165.992 147.784C165.558 147.625 165.204 147.415 164.928 147.153C164.653 146.891 164.448 146.604 164.312 146.293L165.59 145.766C165.679 145.911 165.798 146.066 165.948 146.228C166.1 146.394 166.306 146.535 166.564 146.651C166.826 146.767 167.162 146.825 167.573 146.825C168.137 146.825 168.602 146.687 168.97 146.412C169.338 146.14 169.522 145.706 169.522 145.109V143.608H169.428C169.338 143.77 169.209 143.951 169.04 144.15C168.874 144.349 168.646 144.521 168.354 144.667C168.062 144.813 167.683 144.886 167.215 144.886C166.612 144.886 166.069 144.745 165.585 144.463C165.104 144.178 164.723 143.759 164.441 143.205C164.163 142.648 164.024 141.964 164.024 141.152C164.024 140.34 164.161 139.644 164.436 139.064C164.715 138.484 165.096 138.04 165.58 137.732C166.064 137.42 166.612 137.264 167.225 137.264C167.699 137.264 168.082 137.344 168.374 137.503C168.665 137.659 168.892 137.841 169.055 138.05C169.221 138.259 169.348 138.442 169.438 138.602H169.547V137.364H171.004V145.169C171.004 145.825 170.851 146.364 170.546 146.785C170.241 147.206 169.829 147.517 169.308 147.719C168.791 147.922 168.208 148.023 167.558 148.023ZM167.544 143.653C167.971 143.653 168.332 143.553 168.627 143.354C168.926 143.152 169.151 142.864 169.303 142.489C169.459 142.112 169.537 141.659 169.537 141.132C169.537 140.618 169.461 140.166 169.308 139.775C169.156 139.384 168.932 139.079 168.637 138.86C168.342 138.638 167.978 138.527 167.544 138.527C167.096 138.527 166.723 138.643 166.425 138.875C166.127 139.104 165.901 139.415 165.749 139.81C165.6 140.204 165.525 140.645 165.525 141.132C165.525 141.633 165.601 142.072 165.754 142.45C165.906 142.827 166.132 143.122 166.43 143.335C166.731 143.547 167.103 143.653 167.544 143.653ZM174.484 134.818V145H172.997V134.818H174.484ZM179.775 145.154C179.022 145.154 178.375 144.993 177.831 144.672C177.291 144.347 176.873 143.891 176.578 143.305C176.286 142.715 176.141 142.024 176.141 141.232C176.141 140.449 176.286 139.76 176.578 139.163C176.873 138.567 177.284 138.101 177.811 137.766C178.341 137.432 178.961 137.264 179.67 137.264C180.101 137.264 180.519 137.335 180.923 137.478C181.328 137.621 181.691 137.844 182.012 138.149C182.334 138.454 182.587 138.85 182.773 139.337C182.958 139.821 183.051 140.41 183.051 141.102V141.629H176.981V140.516H181.594C181.594 140.125 181.515 139.778 181.356 139.477C181.197 139.172 180.973 138.931 180.685 138.756C180.4 138.58 180.065 138.492 179.68 138.492C179.263 138.492 178.898 138.595 178.587 138.8C178.278 139.003 178.04 139.268 177.871 139.596C177.705 139.921 177.622 140.274 177.622 140.655V141.525C177.622 142.035 177.712 142.469 177.891 142.827C178.073 143.185 178.326 143.459 178.651 143.648C178.976 143.833 179.356 143.926 179.79 143.926C180.071 143.926 180.328 143.886 180.56 143.807C180.792 143.724 180.993 143.601 181.162 143.439C181.331 143.277 181.46 143.076 181.55 142.837L182.957 143.091C182.844 143.505 182.642 143.868 182.35 144.18C182.062 144.488 181.699 144.728 181.261 144.901C180.827 145.07 180.332 145.154 179.775 145.154ZM188.525 145V134.818H192.154C192.946 134.818 193.603 134.962 194.123 135.251C194.643 135.539 195.033 135.933 195.291 136.434C195.55 136.931 195.679 137.491 195.679 138.114C195.679 138.741 195.548 139.304 195.286 139.805C195.028 140.302 194.637 140.696 194.113 140.988C193.593 141.276 192.938 141.42 192.149 141.42H189.653V140.118H192.01C192.51 140.118 192.916 140.032 193.228 139.859C193.54 139.684 193.768 139.445 193.914 139.143C194.06 138.842 194.133 138.499 194.133 138.114C194.133 137.73 194.06 137.388 193.914 137.09C193.768 136.792 193.538 136.558 193.223 136.389C192.911 136.22 192.5 136.136 191.99 136.136H190.061V145H188.525ZM199.515 145.169C199.031 145.169 198.593 145.08 198.202 144.901C197.811 144.718 197.501 144.455 197.272 144.11C197.047 143.765 196.934 143.343 196.934 142.842C196.934 142.411 197.017 142.057 197.183 141.778C197.349 141.5 197.572 141.28 197.854 141.117C198.136 140.955 198.451 140.832 198.799 140.749C199.147 140.666 199.501 140.603 199.863 140.56C200.32 140.507 200.691 140.464 200.976 140.431C201.261 140.395 201.468 140.337 201.598 140.257C201.727 140.178 201.792 140.048 201.792 139.869V139.835C201.792 139.4 201.669 139.064 201.424 138.825C201.182 138.587 200.82 138.467 200.34 138.467C199.839 138.467 199.445 138.578 199.157 138.8C198.872 139.019 198.674 139.263 198.565 139.531L197.168 139.213C197.334 138.749 197.576 138.375 197.894 138.089C198.215 137.801 198.585 137.592 199.002 137.463C199.42 137.33 199.859 137.264 200.32 137.264C200.625 137.264 200.948 137.301 201.289 137.374C201.634 137.443 201.956 137.572 202.254 137.761C202.556 137.95 202.802 138.22 202.995 138.572C203.187 138.92 203.283 139.372 203.283 139.929V145H201.831V143.956H201.772C201.676 144.148 201.531 144.337 201.339 144.523C201.147 144.708 200.9 144.862 200.598 144.985C200.297 145.108 199.935 145.169 199.515 145.169ZM199.838 143.976C200.249 143.976 200.6 143.895 200.892 143.732C201.187 143.57 201.41 143.358 201.563 143.096C201.719 142.831 201.797 142.547 201.797 142.246V141.261C201.743 141.314 201.641 141.364 201.488 141.411C201.339 141.454 201.168 141.492 200.976 141.525C200.784 141.555 200.597 141.583 200.414 141.609C200.232 141.633 200.08 141.652 199.957 141.669C199.669 141.705 199.405 141.767 199.167 141.853C198.931 141.939 198.742 142.063 198.6 142.226C198.461 142.385 198.391 142.597 198.391 142.862C198.391 143.23 198.527 143.509 198.799 143.697C199.07 143.883 199.417 143.976 199.838 143.976ZM205.929 147.864C205.707 147.864 205.505 147.845 205.323 147.809C205.14 147.776 205.004 147.739 204.915 147.7L205.273 146.482C205.545 146.554 205.787 146.586 205.999 146.576C206.211 146.566 206.398 146.487 206.561 146.337C206.726 146.188 206.872 145.945 206.998 145.607L207.182 145.099L204.388 137.364H205.979L207.913 143.29H207.992L209.926 137.364H211.522L208.375 146.019C208.229 146.417 208.044 146.753 207.818 147.028C207.593 147.307 207.325 147.516 207.013 147.655C206.701 147.794 206.34 147.864 205.929 147.864Z" fill="black"/>
<rect x="48" y="120" width="72" height="40" rx="8" fill="#E7E3FC"/>
<g clip-path="url(#clip2_15_598)">
<path d="M104 136.666L98.7784 148.332H97.1634L99.1034 144.25L95.6659 136.665H97.3646L99.8521 142.479H99.8846L102.293 136.665L104 136.666ZM82.3071 140.274V145H80.6659V133.334H85.0084C86.0392 133.305 87.043 133.665 87.8209 134.342C88.5896 134.974 89.0121 135.866 88.9996 136.81C89.0049 137.285 88.9014 137.755 88.6971 138.183C88.4928 138.612 88.1931 138.989 87.8209 139.284C87.0659 139.947 86.1284 140.274 85.0084 140.274H82.3071ZM82.3009 134.772V138.841H85.0484C85.6465 138.863 86.229 138.647 86.6696 138.242C87.0934 137.865 87.3271 137.35 87.3271 136.816C87.3271 136.276 87.0921 135.761 86.6696 135.39C86.4538 135.184 86.1994 135.024 85.9211 134.918C85.6428 134.812 85.3461 134.762 85.0484 134.771L82.3009 134.772ZM92.2871 136.666C93.3284 136.666 94.1559 136.959 94.7609 137.539C95.3659 138.119 95.6659 138.912 95.6659 139.921V144.745H94.3121V143.657H94.2534C93.6671 144.55 92.8921 144.999 91.9221 144.999C91.0884 144.999 90.3984 144.745 89.8384 144.23C89.5682 143.991 89.3531 143.696 89.2081 143.365C89.0631 143.035 88.9915 142.677 88.9984 142.316C88.9984 141.509 89.2909 140.865 89.8834 140.382C90.4696 139.907 91.2571 139.666 92.2396 139.666C93.0796 139.666 93.7696 139.829 94.3096 140.147V139.809C94.3114 139.563 94.2605 139.319 94.1605 139.095C94.0605 138.87 93.9136 138.669 93.7296 138.506C93.3592 138.159 92.8696 137.968 92.3621 137.972C91.5746 137.972 90.9496 138.317 90.4871 139.007L89.2434 138.2C89.9271 137.177 90.9421 136.664 92.2834 136.664L92.2871 136.666ZM90.4584 142.35C90.4556 142.535 90.4966 142.718 90.578 142.885C90.6595 143.051 90.7791 143.196 90.9271 143.307C91.2396 143.561 91.6309 143.699 92.0271 143.691C92.6196 143.691 93.1921 143.444 93.6159 143.007C94.0646 142.591 94.3196 142.005 94.3196 141.392C93.8771 141.027 93.2646 140.845 92.4771 140.845C91.8971 140.845 91.4221 140.989 91.0384 141.275C90.6546 141.567 90.4584 141.92 90.4584 142.349V142.35ZM70.8034 133.334C72.4864 133.313 74.1139 133.935 75.3546 135.072L73.4146 136.974C72.7059 136.316 71.7699 135.959 70.8034 135.977C69.9599 135.981 69.1387 136.248 68.4539 136.741C67.769 137.233 67.2546 137.927 66.9821 138.725C66.6958 139.552 66.6958 140.451 66.9821 141.277C67.2546 142.076 67.769 142.769 68.4539 143.261C69.1387 143.754 69.9599 144.021 70.8034 144.025C71.7209 144.025 72.5096 143.797 73.1209 143.394C73.4725 143.165 73.7739 142.866 74.0066 142.517C74.2394 142.168 74.3986 141.775 74.4746 141.362H70.8021V138.797H77.2146C77.2934 139.246 77.3321 139.696 77.3321 140.151C77.3321 142.182 76.5896 143.901 75.3071 145.06C74.1809 146.076 72.6384 146.667 70.8021 146.667C69.5488 146.674 68.3179 146.334 67.245 145.686C66.1721 145.038 65.2987 144.107 64.7209 142.995C64.2458 142.068 63.998 141.041 63.998 140C63.998 138.958 64.2458 137.932 64.7209 137.005C65.298 135.894 66.1702 134.963 67.2417 134.315C68.3132 133.667 69.5425 133.327 70.7946 133.332L70.8034 133.334Z" fill="black"/>
</g>
<path d="M0 0H352V200H0V0Z" fill="url(#paint0_radial_15_598)"/>
<rect x="167" y="40" width="72" height="40" rx="8" fill="#E7E3FC"/>
<g clip-path="url(#clip3_15_598)">
<path d="M190.311 53.8092C189.841 54.3692 189.093 54.813 188.345 54.748C188.246 53.993 188.619 53.1842 189.049 52.683C189.518 52.1117 190.338 51.7017 191.003 51.668C191.081 52.4567 190.774 53.2317 190.313 53.8092H190.311ZM190.995 54.8967C189.909 54.8305 188.976 55.5205 188.461 55.5205C187.935 55.5205 187.146 54.9292 186.288 54.9492C185.174 54.963 184.133 55.5992 183.566 56.623C182.388 58.6592 183.26 61.6742 184.393 63.3342C184.946 64.1542 185.609 65.053 186.483 65.028C187.309 64.9942 187.641 64.4817 188.638 64.4817C189.646 64.4817 189.933 65.028 190.813 65.008C191.716 64.9942 192.289 64.188 192.843 63.368C193.474 62.4367 193.734 61.5242 193.748 61.4792C193.734 61.4592 191.996 60.7892 191.984 58.7705C191.97 57.0767 193.35 56.2705 193.409 56.2242C192.634 55.053 191.41 54.9292 190.994 54.898L190.995 54.8967ZM197.265 52.6042V64.923H199.159V60.7117H201.778C204.166 60.7117 205.846 59.0517 205.846 56.6555C205.846 54.2542 204.2 52.6055 201.843 52.6055L197.265 52.6042ZM199.159 54.2192H201.34C202.98 54.2192 203.919 55.1042 203.919 56.6605C203.919 58.2167 202.98 59.1092 201.328 59.1092H199.159V54.2192ZM209.295 65.0142C210.486 65.0142 211.586 64.4092 212.089 63.4442H212.129V64.923H213.879V58.7892C213.879 57.0192 212.474 55.868 210.305 55.868C208.3 55.868 206.815 57.033 206.764 58.628H208.463C208.606 57.8667 209.296 57.3717 210.254 57.3717C211.413 57.3717 212.058 57.918 212.058 58.9217V59.598L209.701 59.7417C207.5 59.878 206.315 60.783 206.315 62.3655C206.315 63.9605 207.54 65.0155 209.296 65.0155L209.295 65.0142ZM209.81 63.5555C208.8 63.5555 208.156 63.0667 208.156 62.3192C208.156 61.5442 208.775 61.088 209.953 61.0155L212.056 60.8855V61.5817C212.056 62.7355 211.086 63.5555 209.803 63.5555H209.81ZM216.216 68.2755C218.058 68.2755 218.925 67.5592 219.68 65.4042L223 55.9905H221.08L218.854 63.2617H218.814L216.588 55.9905H214.609L217.813 64.9555L217.643 65.5017C217.349 66.4205 216.881 66.7767 216.048 66.7767C215.898 66.7767 215.611 66.758 215.494 66.7455V68.2242C215.604 68.2555 216.074 68.2692 216.21 68.2692L216.216 68.2755Z" fill="black"/>
</g>
<rect x="48" y="120" width="72" height="40" rx="8" fill="#E7E3FC"/>
<g clip-path="url(#clip4_15_598)">
<path d="M104 136.666L98.7784 148.332H97.1634L99.1034 144.25L95.6659 136.665H97.3646L99.8521 142.479H99.8846L102.293 136.665L104 136.666ZM82.3071 140.274V145H80.6659V133.334H85.0084C86.0392 133.305 87.043 133.665 87.8209 134.342C88.5896 134.974 89.0121 135.866 88.9996 136.81C89.0049 137.285 88.9014 137.755 88.6971 138.183C88.4928 138.612 88.1931 138.989 87.8209 139.284C87.0659 139.947 86.1284 140.274 85.0084 140.274H82.3071ZM82.3009 134.772V138.841H85.0484C85.6465 138.863 86.229 138.647 86.6696 138.242C87.0934 137.865 87.3271 137.35 87.3271 136.816C87.3271 136.276 87.0921 135.761 86.6696 135.39C86.4538 135.184 86.1994 135.024 85.9211 134.918C85.6428 134.812 85.3461 134.762 85.0484 134.771L82.3009 134.772ZM92.2871 136.666C93.3284 136.666 94.1559 136.959 94.7609 137.539C95.3659 138.119 95.6659 138.912 95.6659 139.921V144.745H94.3121V143.657H94.2534C93.6671 144.55 92.8921 144.999 91.9221 144.999C91.0884 144.999 90.3984 144.745 89.8384 144.23C89.5682 143.991 89.3531 143.696 89.2081 143.365C89.0631 143.035 88.9915 142.677 88.9984 142.316C88.9984 141.509 89.2909 140.865 89.8834 140.382C90.4696 139.907 91.2571 139.666 92.2396 139.666C93.0796 139.666 93.7696 139.829 94.3096 140.147V139.809C94.3114 139.563 94.2605 139.319 94.1605 139.095C94.0605 138.87 93.9136 138.669 93.7296 138.506C93.3592 138.159 92.8696 137.968 92.3621 137.972C91.5746 137.972 90.9496 138.317 90.4871 139.007L89.2434 138.2C89.9271 137.177 90.9421 136.664 92.2834 136.664L92.2871 136.666ZM90.4584 142.35C90.4556 142.535 90.4966 142.718 90.578 142.885C90.6595 143.051 90.7791 143.196 90.9271 143.307C91.2396 143.561 91.6309 143.699 92.0271 143.691C92.6196 143.691 93.1921 143.444 93.6159 143.007C94.0646 142.591 94.3196 142.005 94.3196 141.392C93.8771 141.027 93.2646 140.845 92.4771 140.845C91.8971 140.845 91.4221 140.989 91.0384 141.275C90.6546 141.567 90.4584 141.92 90.4584 142.349V142.35ZM70.8034 133.334C72.4864 133.313 74.1139 133.935 75.3546 135.072L73.4146 136.974C72.7059 136.316 71.7699 135.959 70.8034 135.977C69.9599 135.981 69.1387 136.248 68.4539 136.741C67.769 137.233 67.2546 137.927 66.9821 138.725C66.6958 139.552 66.6958 140.451 66.9821 141.277C67.2546 142.076 67.769 142.769 68.4539 143.261C69.1387 143.754 69.9599 144.021 70.8034 144.025C71.7209 144.025 72.5096 143.797 73.1209 143.394C73.4725 143.165 73.7739 142.866 74.0066 142.517C74.2394 142.168 74.3986 141.775 74.4746 141.362H70.8021V138.797H77.2146C77.2934 139.246 77.3321 139.696 77.3321 140.151C77.3321 142.182 76.5896 143.901 75.3071 145.06C74.1809 146.076 72.6384 146.667 70.8021 146.667C69.5488 146.674 68.3179 146.334 67.245 145.686C66.1721 145.038 65.2987 144.107 64.7209 142.995C64.2458 142.068 63.998 141.041 63.998 140C63.998 138.958 64.2458 137.932 64.7209 137.005C65.298 135.894 66.1702 134.963 67.2417 134.315C68.3132 133.667 69.5425 133.327 70.7946 133.332L70.8034 133.334Z" fill="black"/>
</g>
</g>
<defs>
<radialGradient id="paint0_radial_15_598" cx="0" cy="0" r="1" gradientUnits="userSpaceOnUse" gradientTransform="translate(176 100) rotate(90) scale(158 278.08)">
<stop stop-color="white" stop-opacity="0"/>
<stop offset="1" stop-color="white"/>
</radialGradient>
<clipPath id="clip0_15_598">
<rect width="352" height="200" fill="white"/>
</clipPath>
<clipPath id="clip1_15_598">
<rect width="40" height="40" fill="white" transform="translate(183 40)"/>
</clipPath>
<clipPath id="clip2_15_598">
<rect width="40" height="40" fill="white" transform="translate(64 120)"/>
</clipPath>
<clipPath id="clip3_15_598">
<rect width="40" height="40" fill="white" transform="translate(183 40)"/>
</clipPath>
<clipPath id="clip4_15_598">
<rect width="40" height="40" fill="white" transform="translate(64 120)"/>
</clipPath>
</defs>
</svg>
