<svg width="352" height="200" viewBox="0 0 352 200" fill="none" xmlns="http://www.w3.org/2000/svg">
<g clip-path="url(#clip0_15_695)">
<path d="M0 0H352V200H0V0Z" fill="#0E0637"/>
<path d="M40 55.5H65.4309L80.3902 67.5H119.285L132.748 78.5H165.659M40 68.5H67.9241M40.4986 74.5H52.9648M40 81H63.4363L73.4092 73H88.8672M40.4986 87H70.4173L78.8943 79.5H115.794M40.4986 91.5H128.759L136.737 101H163.664M40.4986 96.5H113.799L128.759 115.5H153.691M40 101H108.314L119.285 114.5M40 107.5H67.9241M40 114.5H73.4092L86.374 107.5H105.821L114.797 119.5H167.653L177.626 113.5H207.545M40 61H58.9485M40.4986 122.5H74.4065L87.3713 115.5H103.827L113.799 127H167.653L177.626 121H224M40.4986 129.5H74.4065L87.3713 122.5H103.827L113.799 135H163.664M40.4986 133H93.8537M40.4986 140H87.3713M40 146H52.9648M40.4986 153H56.4553L68.9214 146H116.791L124.271 140H149.203L156.184 146H179.122M40 159H56.4553L68.9214 153H113.799M40 165H70.4173L78.8943 160H126.764M40 169H85.3767L89.8645 173H156.184M40 174H74.9051L86.374 180.5H132.748M40 180.5H74.9051L86.374 187H143.22M40.4986 49.5H67.9241L82.8835 61.5H125.767L135.74 69.5H176.629M40.4986 42H67.9241L82.8835 54.5H133.745M40 35.5H49.9729V22H139.729M40 27.5H42.9919V17H76.4011M60.4444 27.5H73.4092L91.3604 42H129.756M88.8672 27.5L98.8401 36H168.152M60.4444 34.5H70.4173L87.8699 49L150.201 48.5" stroke="#FFE0C8"/>
<g filter="url(#filter0_f_15_695)">
<path d="M126.878 31.1449C126.205 31.142 125.629 30.9645 125.152 30.6122C124.675 30.2599 124.31 29.7472 124.057 29.0739C123.804 28.4006 123.678 27.5895 123.678 26.6406C123.678 25.6946 123.804 24.8864 124.057 24.2159C124.313 23.5455 124.679 23.0341 125.156 22.6818C125.636 22.3295 126.21 22.1534 126.878 22.1534C127.545 22.1534 128.118 22.331 128.595 22.6861C129.072 23.0384 129.438 23.5497 129.69 24.2202C129.946 24.8878 130.074 25.6946 130.074 26.6406C130.074 27.5923 129.947 28.4048 129.695 29.0781C129.442 29.7486 129.077 30.2614 128.599 30.6165C128.122 30.9688 127.548 31.1449 126.878 31.1449ZM126.878 30.0071C127.469 30.0071 127.93 29.7188 128.263 29.142C128.598 28.5653 128.766 27.7315 128.766 26.6406C128.766 25.9162 128.689 25.304 128.536 24.804C128.385 24.3011 128.168 23.9205 127.884 23.6619C127.602 23.4006 127.267 23.2699 126.878 23.2699C126.29 23.2699 125.828 23.5597 125.493 24.1392C125.158 24.7187 124.989 25.5526 124.986 26.6406C124.986 27.3679 125.061 27.983 125.212 28.4858C125.365 28.9858 125.582 29.3651 125.864 29.6236C126.145 29.8793 126.483 30.0071 126.878 30.0071ZM134.684 31.1449C134.011 31.142 133.435 30.9645 132.958 30.6122C132.481 30.2599 132.116 29.7472 131.863 29.0739C131.61 28.4006 131.484 27.5895 131.484 26.6406C131.484 25.6946 131.61 24.8864 131.863 24.2159C132.119 23.5455 132.485 23.0341 132.962 22.6818C133.442 22.3295 134.016 22.1534 134.684 22.1534C135.352 22.1534 135.924 22.331 136.401 22.6861C136.879 23.0384 137.244 23.5497 137.496 24.2202C137.752 24.8878 137.88 25.6946 137.88 26.6406C137.88 27.5923 137.754 28.4048 137.501 29.0781C137.248 29.7486 136.883 30.2614 136.406 30.6165C135.928 30.9688 135.354 31.1449 134.684 31.1449ZM134.684 30.0071C135.275 30.0071 135.736 29.7188 136.069 29.142C136.404 28.5653 136.572 27.7315 136.572 26.6406C136.572 25.9162 136.495 25.304 136.342 24.804C136.191 24.3011 135.974 23.9205 135.69 23.6619C135.408 23.4006 135.073 23.2699 134.684 23.2699C134.096 23.2699 133.634 23.5597 133.299 24.1392C132.964 24.7187 132.795 25.5526 132.792 26.6406C132.792 27.3679 132.867 27.983 133.018 28.4858C133.171 28.9858 133.388 29.3651 133.67 29.6236C133.951 29.8793 134.289 30.0071 134.684 30.0071ZM155.433 31.1449C154.76 31.142 154.185 30.9645 153.707 30.6122C153.23 30.2599 152.865 29.7472 152.612 29.0739C152.359 28.4006 152.233 27.5895 152.233 26.6406C152.233 25.6946 152.359 24.8864 152.612 24.2159C152.868 23.5455 153.234 23.0341 153.712 22.6818C154.192 22.3295 154.766 22.1534 155.433 22.1534C156.101 22.1534 156.673 22.331 157.15 22.6861C157.628 23.0384 157.993 23.5497 158.246 24.2202C158.501 24.8878 158.629 25.6946 158.629 26.6406C158.629 27.5923 158.503 28.4048 158.25 29.0781C157.997 29.7486 157.632 30.2614 157.155 30.6165C156.677 30.9688 156.104 31.1449 155.433 31.1449ZM155.433 30.0071C156.024 30.0071 156.486 29.7188 156.818 29.142C157.153 28.5653 157.321 27.7315 157.321 26.6406C157.321 25.9162 157.244 25.304 157.091 24.804C156.94 24.3011 156.723 23.9205 156.439 23.6619C156.158 23.4006 155.822 23.2699 155.433 23.2699C154.845 23.2699 154.383 23.5597 154.048 24.1392C153.713 24.7187 153.544 25.5526 153.541 26.6406C153.541 27.3679 153.616 27.983 153.767 28.4858C153.92 28.9858 154.138 29.3651 154.419 29.6236C154.7 29.8793 155.038 30.0071 155.433 30.0071ZM163.512 22.2727V31H162.191V23.5938H162.14L160.052 24.9574V23.696L162.229 22.2727H163.512ZM169.244 22.2727V31H167.923V23.5938H167.872L165.784 24.9574V23.696L167.961 22.2727H169.244Z" fill="white"/>
</g>
<path d="M193.878 69.1449C193.205 69.142 192.629 68.9645 192.152 68.6122C191.675 68.2599 191.31 67.7472 191.057 67.0739C190.804 66.4006 190.678 65.5895 190.678 64.6406C190.678 63.6946 190.804 62.8864 191.057 62.2159C191.313 61.5455 191.679 61.0341 192.156 60.6818C192.636 60.3295 193.21 60.1534 193.878 60.1534C194.545 60.1534 195.118 60.331 195.595 60.6861C196.072 61.0384 196.438 61.5497 196.69 62.2202C196.946 62.8878 197.074 63.6946 197.074 64.6406C197.074 65.5923 196.947 66.4048 196.695 67.0781C196.442 67.7486 196.077 68.2614 195.599 68.6165C195.122 68.9688 194.548 69.1449 193.878 69.1449ZM193.878 68.0071C194.469 68.0071 194.93 67.7188 195.263 67.142C195.598 66.5653 195.766 65.7315 195.766 64.6406C195.766 63.9162 195.689 63.304 195.536 62.804C195.385 62.3011 195.168 61.9205 194.884 61.6619C194.602 61.4006 194.267 61.2699 193.878 61.2699C193.29 61.2699 192.828 61.5597 192.493 62.1392C192.158 62.7187 191.989 63.5526 191.986 64.6406C191.986 65.3679 192.061 65.983 192.212 66.4858C192.365 66.9858 192.582 67.3651 192.864 67.6236C193.145 67.8793 193.483 68.0071 193.878 68.0071ZM201.957 60.2727V69H200.636V61.5938H200.585L198.496 62.9574V61.696L200.674 60.2727H201.957ZM210.652 69.1449C209.978 69.142 209.403 68.9645 208.926 68.6122C208.448 68.2599 208.083 67.7472 207.831 67.0739C207.578 66.4006 207.451 65.5895 207.451 64.6406C207.451 63.6946 207.578 62.8864 207.831 62.2159C208.086 61.5455 208.453 61.0341 208.93 60.6818C209.41 60.3295 209.984 60.1534 210.652 60.1534C211.319 60.1534 211.892 60.331 212.369 60.6861C212.846 61.0384 213.211 61.5497 213.464 62.2202C213.72 62.8878 213.848 63.6946 213.848 64.6406C213.848 65.5923 213.721 66.4048 213.468 67.0781C213.216 67.7486 212.85 68.2614 212.373 68.6165C211.896 68.9688 211.322 69.1449 210.652 69.1449ZM210.652 68.0071C211.243 68.0071 211.704 67.7188 212.037 67.142C212.372 66.5653 212.539 65.7315 212.539 64.6406C212.539 63.9162 212.463 63.304 212.309 62.804C212.159 62.3011 211.941 61.9205 211.657 61.6619C211.376 61.4006 211.041 61.2699 210.652 61.2699C210.064 61.2699 209.602 61.5597 209.267 62.1392C208.931 62.7187 208.762 63.5526 208.76 64.6406C208.76 65.3679 208.835 65.983 208.985 66.4858C209.139 66.9858 209.356 67.3651 209.637 67.6236C209.919 67.8793 210.257 68.0071 210.652 68.0071ZM228.438 60.2727V69H227.117V61.5938H227.066L224.978 62.9574V61.696L227.155 60.2727H228.438ZM237.133 69.1449C236.459 69.142 235.884 68.9645 235.407 68.6122C234.93 68.2599 234.565 67.7472 234.312 67.0739C234.059 66.4006 233.932 65.5895 233.932 64.6406C233.932 63.6946 234.059 62.8864 234.312 62.2159C234.567 61.5455 234.934 61.0341 235.411 60.6818C235.891 60.3295 236.465 60.1534 237.133 60.1534C237.8 60.1534 238.373 60.331 238.85 60.6861C239.327 61.0384 239.692 61.5497 239.945 62.2202C240.201 62.8878 240.329 63.6946 240.329 64.6406C240.329 65.5923 240.202 66.4048 239.949 67.0781C239.697 67.7486 239.332 68.2614 238.854 68.6165C238.377 68.9688 237.803 69.1449 237.133 69.1449ZM237.133 68.0071C237.724 68.0071 238.185 67.7188 238.518 67.142C238.853 66.5653 239.02 65.7315 239.02 64.6406C239.02 63.9162 238.944 63.304 238.79 62.804C238.64 62.3011 238.422 61.9205 238.138 61.6619C237.857 61.4006 237.522 61.2699 237.133 61.2699C236.545 61.2699 236.083 61.5597 235.748 62.1392C235.413 62.7187 235.243 63.5526 235.241 64.6406C235.241 65.3679 235.316 65.983 235.466 66.4858C235.62 66.9858 235.837 67.3651 236.118 67.6236C236.4 67.8793 236.738 68.0071 237.133 68.0071ZM244.939 69.1449C244.265 69.142 243.69 68.9645 243.213 68.6122C242.736 68.2599 242.371 67.7472 242.118 67.0739C241.865 66.4006 241.738 65.5895 241.738 64.6406C241.738 63.6946 241.865 62.8864 242.118 62.2159C242.373 61.5455 242.74 61.0341 243.217 60.6818C243.697 60.3295 244.271 60.1534 244.939 60.1534C245.606 60.1534 246.179 60.331 246.656 60.6861C247.133 61.0384 247.498 61.5497 247.751 62.2202C248.007 62.8878 248.135 63.6946 248.135 64.6406C248.135 65.5923 248.008 66.4048 247.756 67.0781C247.503 67.7486 247.138 68.2614 246.66 68.6165C246.183 68.9688 245.609 69.1449 244.939 69.1449ZM244.939 68.0071C245.53 68.0071 245.991 67.7188 246.324 67.142C246.659 66.5653 246.827 65.7315 246.827 64.6406C246.827 63.9162 246.75 63.304 246.596 62.804C246.446 62.3011 246.229 61.9205 245.944 61.6619C245.663 61.4006 245.328 61.2699 244.939 61.2699C244.351 61.2699 243.889 61.5597 243.554 62.1392C243.219 62.7187 243.05 63.5526 243.047 64.6406C243.047 65.3679 243.122 65.983 243.273 66.4858C243.426 66.9858 243.643 67.3651 243.925 67.6236C244.206 67.8793 244.544 68.0071 244.939 68.0071ZM259.489 60.2727V69H258.168V61.5938H258.117L256.029 62.9574V61.696L258.206 60.2727H259.489ZM265.221 60.2727V69H263.9V61.5938H263.849L261.761 62.9574V61.696L263.938 60.2727H265.221ZM273.916 69.1449C273.243 69.142 272.667 68.9645 272.19 68.6122C271.713 68.2599 271.348 67.7472 271.095 67.0739C270.842 66.4006 270.716 65.5895 270.716 64.6406C270.716 63.6946 270.842 62.8864 271.095 62.2159C271.351 61.5455 271.717 61.0341 272.194 60.6818C272.674 60.3295 273.248 60.1534 273.916 60.1534C274.584 60.1534 275.156 60.331 275.633 60.6861C276.111 61.0384 276.476 61.5497 276.728 62.2202C276.984 62.8878 277.112 63.6946 277.112 64.6406C277.112 65.5923 276.986 66.4048 276.733 67.0781C276.48 67.7486 276.115 68.2614 275.638 68.6165C275.16 68.9688 274.586 69.1449 273.916 69.1449ZM273.916 68.0071C274.507 68.0071 274.969 67.7188 275.301 67.142C275.636 66.5653 275.804 65.7315 275.804 64.6406C275.804 63.9162 275.727 63.304 275.574 62.804C275.423 62.3011 275.206 61.9205 274.922 61.6619C274.64 61.4006 274.305 61.2699 273.916 61.2699C273.328 61.2699 272.866 61.5597 272.531 62.1392C272.196 62.7187 272.027 63.5526 272.024 64.6406C272.024 65.3679 272.099 65.983 272.25 66.4858C272.403 66.9858 272.621 67.3651 272.902 67.6236C273.183 67.8793 273.521 68.0071 273.916 68.0071ZM285.231 60.2727V69H283.91V61.5938H283.858L281.77 62.9574V61.696L283.948 60.2727H285.231Z" fill="#F7DF27"/>
<g filter="url(#filter1_f_15_695)">
<path d="M227.878 31.1449C227.205 31.142 226.629 30.9645 226.152 30.6122C225.675 30.2599 225.31 29.7472 225.057 29.0739C224.804 28.4006 224.678 27.5895 224.678 26.6406C224.678 25.6946 224.804 24.8864 225.057 24.2159C225.313 23.5455 225.679 23.0341 226.156 22.6818C226.636 22.3295 227.21 22.1534 227.878 22.1534C228.545 22.1534 229.118 22.331 229.595 22.6861C230.072 23.0384 230.438 23.5497 230.69 24.2202C230.946 24.8878 231.074 25.6946 231.074 26.6406C231.074 27.5923 230.947 28.4048 230.695 29.0781C230.442 29.7486 230.077 30.2614 229.599 30.6165C229.122 30.9688 228.548 31.1449 227.878 31.1449ZM227.878 30.0071C228.469 30.0071 228.93 29.7188 229.263 29.142C229.598 28.5653 229.766 27.7315 229.766 26.6406C229.766 25.9162 229.689 25.304 229.536 24.804C229.385 24.3011 229.168 23.9205 228.884 23.6619C228.602 23.4006 228.267 23.2699 227.878 23.2699C227.29 23.2699 226.828 23.5597 226.493 24.1392C226.158 24.7187 225.989 25.5526 225.986 26.6406C225.986 27.3679 226.061 27.983 226.212 28.4858C226.365 28.9858 226.582 29.3651 226.864 29.6236C227.145 29.8793 227.483 30.0071 227.878 30.0071ZM235.957 22.2727V31H234.636V23.5938H234.585L232.496 24.9574V23.696L234.674 22.2727H235.957ZM244.652 31.1449C243.978 31.142 243.403 30.9645 242.926 30.6122C242.448 30.2599 242.083 29.7472 241.831 29.0739C241.578 28.4006 241.451 27.5895 241.451 26.6406C241.451 25.6946 241.578 24.8864 241.831 24.2159C242.086 23.5455 242.453 23.0341 242.93 22.6818C243.41 22.3295 243.984 22.1534 244.652 22.1534C245.319 22.1534 245.892 22.331 246.369 22.6861C246.846 23.0384 247.211 23.5497 247.464 24.2202C247.72 24.8878 247.848 25.6946 247.848 26.6406C247.848 27.5923 247.721 28.4048 247.468 29.0781C247.216 29.7486 246.85 30.2614 246.373 30.6165C245.896 30.9688 245.322 31.1449 244.652 31.1449ZM244.652 30.0071C245.243 30.0071 245.704 29.7188 246.037 29.142C246.372 28.5653 246.539 27.7315 246.539 26.6406C246.539 25.9162 246.463 25.304 246.309 24.804C246.159 24.3011 245.941 23.9205 245.657 23.6619C245.376 23.4006 245.041 23.2699 244.652 23.2699C244.064 23.2699 243.602 23.5597 243.267 24.1392C242.931 24.7187 242.762 25.5526 242.76 26.6406C242.76 27.3679 242.835 27.983 242.985 28.4858C243.139 28.9858 243.356 29.3651 243.637 29.6236C243.919 29.8793 244.257 30.0071 244.652 30.0071ZM252.73 22.2727V31H251.409V23.5938H251.358L249.27 24.9574V23.696L251.448 22.2727H252.73Z" fill="white"/>
</g>
<path d="M296.878 69.1449C296.205 69.142 295.629 68.9645 295.152 68.6122C294.675 68.2599 294.31 67.7472 294.057 67.0739C293.804 66.4006 293.678 65.5895 293.678 64.6406C293.678 63.6946 293.804 62.8864 294.057 62.2159C294.313 61.5455 294.679 61.0341 295.156 60.6818C295.636 60.3295 296.21 60.1534 296.878 60.1534C297.545 60.1534 298.118 60.331 298.595 60.6861C299.072 61.0384 299.438 61.5497 299.69 62.2202C299.946 62.8878 300.074 63.6946 300.074 64.6406C300.074 65.5923 299.947 66.4048 299.695 67.0781C299.442 67.7486 299.077 68.2614 298.599 68.6165C298.122 68.9688 297.548 69.1449 296.878 69.1449ZM296.878 68.0071C297.469 68.0071 297.93 67.7188 298.263 67.142C298.598 66.5653 298.766 65.7315 298.766 64.6406C298.766 63.9162 298.689 63.304 298.536 62.804C298.385 62.3011 298.168 61.9205 297.884 61.6619C297.602 61.4006 297.267 61.2699 296.878 61.2699C296.29 61.2699 295.828 61.5597 295.493 62.1392C295.158 62.7187 294.989 63.5526 294.986 64.6406C294.986 65.3679 295.061 65.983 295.212 66.4858C295.365 66.9858 295.582 67.3651 295.864 67.6236C296.145 67.8793 296.483 68.0071 296.878 68.0071ZM304.957 60.2727V69H303.636V61.5938H303.585L301.496 62.9574V61.696L303.674 60.2727H304.957ZM313.652 69.1449C312.978 69.142 312.403 68.9645 311.926 68.6122C311.448 68.2599 311.083 67.7472 310.831 67.0739C310.578 66.4006 310.451 65.5895 310.451 64.6406C310.451 63.6946 310.578 62.8864 310.831 62.2159C311.086 61.5455 311.453 61.0341 311.93 60.6818C312.41 60.3295 312.984 60.1534 313.652 60.1534C314.319 60.1534 314.892 60.331 315.369 60.6861C315.846 61.0384 316.211 61.5497 316.464 62.2202C316.72 62.8878 316.848 63.6946 316.848 64.6406C316.848 65.5923 316.721 66.4048 316.468 67.0781C316.216 67.7486 315.85 68.2614 315.373 68.6165C314.896 68.9688 314.322 69.1449 313.652 69.1449ZM313.652 68.0071C314.243 68.0071 314.704 67.7188 315.037 67.142C315.372 66.5653 315.539 65.7315 315.539 64.6406C315.539 63.9162 315.463 63.304 315.309 62.804C315.159 62.3011 314.941 61.9205 314.657 61.6619C314.376 61.4006 314.041 61.2699 313.652 61.2699C313.064 61.2699 312.602 61.5597 312.267 62.1392C311.931 62.7187 311.762 63.5526 311.76 64.6406C311.76 65.3679 311.835 65.983 311.985 66.4858C312.139 66.9858 312.356 67.3651 312.637 67.6236C312.919 67.8793 313.257 68.0071 313.652 68.0071ZM321.73 60.2727V69H320.409V61.5938H320.358L318.27 62.9574V61.696L320.448 60.2727H321.73Z" fill="#F7DF27"/>
<path d="M257.151 108.273V117H255.83V109.594H255.778L253.69 110.957V109.696L255.868 108.273H257.151ZM272.317 117.145C271.644 117.142 271.068 116.964 270.591 116.612C270.114 116.26 269.749 115.747 269.496 115.074C269.243 114.401 269.117 113.589 269.117 112.641C269.117 111.695 269.243 110.886 269.496 110.216C269.752 109.545 270.118 109.034 270.595 108.682C271.076 108.33 271.649 108.153 272.317 108.153C272.985 108.153 273.557 108.331 274.034 108.686C274.512 109.038 274.877 109.55 275.13 110.22C275.385 110.888 275.513 111.695 275.513 112.641C275.513 113.592 275.387 114.405 275.134 115.078C274.881 115.749 274.516 116.261 274.039 116.616C273.561 116.969 272.988 117.145 272.317 117.145ZM272.317 116.007C272.908 116.007 273.37 115.719 273.702 115.142C274.037 114.565 274.205 113.732 274.205 112.641C274.205 111.916 274.128 111.304 273.975 110.804C273.824 110.301 273.607 109.92 273.323 109.662C273.041 109.401 272.706 109.27 272.317 109.27C271.729 109.27 271.267 109.56 270.932 110.139C270.597 110.719 270.428 111.553 270.425 112.641C270.425 113.368 270.5 113.983 270.651 114.486C270.804 114.986 271.022 115.365 271.303 115.624C271.584 115.879 271.922 116.007 272.317 116.007ZM290.103 108.273V117H288.782V109.594H288.731L286.643 110.957V109.696L288.821 108.273H290.103ZM298.798 117.145C298.125 117.142 297.55 116.964 297.072 116.612C296.595 116.26 296.23 115.747 295.977 115.074C295.724 114.401 295.598 113.589 295.598 112.641C295.598 111.695 295.724 110.886 295.977 110.216C296.233 109.545 296.599 109.034 297.077 108.682C297.557 108.33 298.131 108.153 298.798 108.153C299.466 108.153 300.038 108.331 300.515 108.686C300.993 109.038 301.358 109.55 301.611 110.22C301.866 110.888 301.994 111.695 301.994 112.641C301.994 113.592 301.868 114.405 301.615 115.078C301.362 115.749 300.997 116.261 300.52 116.616C300.042 116.969 299.469 117.145 298.798 117.145ZM298.798 116.007C299.389 116.007 299.851 115.719 300.183 115.142C300.518 114.565 300.686 113.732 300.686 112.641C300.686 111.916 300.609 111.304 300.456 110.804C300.305 110.301 300.088 109.92 299.804 109.662C299.523 109.401 299.187 109.27 298.798 109.27C298.21 109.27 297.748 109.56 297.413 110.139C297.078 110.719 296.909 111.553 296.906 112.641C296.906 113.368 296.981 113.983 297.132 114.486C297.285 114.986 297.503 115.365 297.784 115.624C298.065 115.879 298.403 116.007 298.798 116.007ZM306.604 117.145C305.931 117.142 305.356 116.964 304.878 116.612C304.401 116.26 304.036 115.747 303.783 115.074C303.53 114.401 303.404 113.589 303.404 112.641C303.404 111.695 303.53 110.886 303.783 110.216C304.039 109.545 304.405 109.034 304.883 108.682C305.363 108.33 305.937 108.153 306.604 108.153C307.272 108.153 307.844 108.331 308.322 108.686C308.799 109.038 309.164 109.55 309.417 110.22C309.672 110.888 309.8 111.695 309.8 112.641C309.8 113.592 309.674 114.405 309.421 115.078C309.168 115.749 308.803 116.261 308.326 116.616C307.849 116.969 307.275 117.145 306.604 117.145ZM306.604 116.007C307.195 116.007 307.657 115.719 307.989 115.142C308.324 114.565 308.492 113.732 308.492 112.641C308.492 111.916 308.415 111.304 308.262 110.804C308.111 110.301 307.894 109.92 307.61 109.662C307.329 109.401 306.993 109.27 306.604 109.27C306.016 109.27 305.555 109.56 305.219 110.139C304.884 110.719 304.715 111.553 304.712 112.641C304.712 113.368 304.787 113.983 304.938 114.486C305.091 114.986 305.309 115.365 305.59 115.624C305.871 115.879 306.209 116.007 306.604 116.007ZM314.683 108.273V117H313.362V109.594H313.311L311.223 110.957V109.696L313.4 108.273H314.683ZM323.378 117.145C322.705 117.142 322.129 116.964 321.652 116.612C321.175 116.26 320.81 115.747 320.557 115.074C320.304 114.401 320.178 113.589 320.178 112.641C320.178 111.695 320.304 110.886 320.557 110.216C320.813 109.545 321.179 109.034 321.656 108.682C322.137 108.33 322.71 108.153 323.378 108.153C324.046 108.153 324.618 108.331 325.095 108.686C325.573 109.038 325.938 109.55 326.19 110.22C326.446 110.888 326.574 111.695 326.574 112.641C326.574 113.592 326.448 114.405 326.195 115.078C325.942 115.749 325.577 116.261 325.1 116.616C324.622 116.969 324.048 117.145 323.378 117.145ZM323.378 116.007C323.969 116.007 324.431 115.719 324.763 115.142C325.098 114.565 325.266 113.732 325.266 112.641C325.266 111.916 325.189 111.304 325.036 110.804C324.885 110.301 324.668 109.92 324.384 109.662C324.102 109.401 323.767 109.27 323.378 109.27C322.79 109.27 322.328 109.56 321.993 110.139C321.658 110.719 321.489 111.553 321.486 112.641C321.486 113.368 321.561 113.983 321.712 114.486C321.865 114.986 322.083 115.365 322.364 115.624C322.645 115.879 322.983 116.007 323.378 116.007ZM331.457 108.273V117H330.136V109.594H330.085L327.997 110.957V109.696L330.174 108.273H331.457Z" fill="white"/>
<path d="M246.151 169.273V178H244.83V170.594H244.778L242.69 171.957V170.696L244.868 169.273H246.151ZM264.826 169.273V178H263.505V170.594H263.453L261.365 171.957V170.696L263.543 169.273H264.826Z" fill="#F7DF27"/>
<g filter="url(#filter2_f_15_695)">
<path d="M294.878 178.145C294.205 178.142 293.629 177.964 293.152 177.612C292.675 177.26 292.31 176.747 292.057 176.074C291.804 175.401 291.678 174.589 291.678 173.641C291.678 172.695 291.804 171.886 292.057 171.216C292.313 170.545 292.679 170.034 293.156 169.682C293.636 169.33 294.21 169.153 294.878 169.153C295.545 169.153 296.118 169.331 296.595 169.686C297.072 170.038 297.438 170.55 297.69 171.22C297.946 171.888 298.074 172.695 298.074 173.641C298.074 174.592 297.947 175.405 297.695 176.078C297.442 176.749 297.077 177.261 296.599 177.616C296.122 177.969 295.548 178.145 294.878 178.145ZM294.878 177.007C295.469 177.007 295.93 176.719 296.263 176.142C296.598 175.565 296.766 174.732 296.766 173.641C296.766 172.916 296.689 172.304 296.536 171.804C296.385 171.301 296.168 170.92 295.884 170.662C295.602 170.401 295.267 170.27 294.878 170.27C294.29 170.27 293.828 170.56 293.493 171.139C293.158 171.719 292.989 172.553 292.986 173.641C292.986 174.368 293.061 174.983 293.212 175.486C293.365 175.986 293.582 176.365 293.864 176.624C294.145 176.879 294.483 177.007 294.878 177.007ZM302.957 169.273V178H301.636V170.594H301.585L299.496 171.957V170.696L301.674 169.273H302.957ZM321.359 178.145C320.686 178.142 320.11 177.964 319.633 177.612C319.156 177.26 318.791 176.747 318.538 176.074C318.285 175.401 318.159 174.589 318.159 173.641C318.159 172.695 318.285 171.886 318.538 171.216C318.794 170.545 319.16 170.034 319.637 169.682C320.117 169.33 320.691 169.153 321.359 169.153C322.027 169.153 322.599 169.331 323.076 169.686C323.554 170.038 323.919 170.55 324.171 171.22C324.427 171.888 324.555 172.695 324.555 173.641C324.555 174.592 324.429 175.405 324.176 176.078C323.923 176.749 323.558 177.261 323.081 177.616C322.603 177.969 322.029 178.145 321.359 178.145ZM321.359 177.007C321.95 177.007 322.411 176.719 322.744 176.142C323.079 175.565 323.247 174.732 323.247 173.641C323.247 172.916 323.17 172.304 323.017 171.804C322.866 171.301 322.649 170.92 322.365 170.662C322.083 170.401 321.748 170.27 321.359 170.27C320.771 170.27 320.309 170.56 319.974 171.139C319.639 171.719 319.47 172.553 319.467 173.641C319.467 174.368 319.542 174.983 319.693 175.486C319.846 175.986 320.063 176.365 320.345 176.624C320.626 176.879 320.964 177.007 321.359 177.007ZM342.381 169.273V178H341.06V170.594H341.009L338.921 171.957V170.696L341.098 169.273H342.381Z" fill="white"/>
</g>
<path d="M170.878 168.145C170.205 168.142 169.629 167.964 169.152 167.612C168.675 167.26 168.31 166.747 168.057 166.074C167.804 165.401 167.678 164.589 167.678 163.641C167.678 162.695 167.804 161.886 168.057 161.216C168.313 160.545 168.679 160.034 169.156 159.682C169.636 159.33 170.21 159.153 170.878 159.153C171.545 159.153 172.118 159.331 172.595 159.686C173.072 160.038 173.438 160.55 173.69 161.22C173.946 161.888 174.074 162.695 174.074 163.641C174.074 164.592 173.947 165.405 173.695 166.078C173.442 166.749 173.077 167.261 172.599 167.616C172.122 167.969 171.548 168.145 170.878 168.145ZM170.878 167.007C171.469 167.007 171.93 166.719 172.263 166.142C172.598 165.565 172.766 164.732 172.766 163.641C172.766 162.916 172.689 162.304 172.536 161.804C172.385 161.301 172.168 160.92 171.884 160.662C171.602 160.401 171.267 160.27 170.878 160.27C170.29 160.27 169.828 160.56 169.493 161.139C169.158 161.719 168.989 162.553 168.986 163.641C168.986 164.368 169.061 164.983 169.212 165.486C169.365 165.986 169.582 166.365 169.864 166.624C170.145 166.879 170.483 167.007 170.878 167.007ZM178.684 168.145C178.011 168.142 177.435 167.964 176.958 167.612C176.481 167.26 176.116 166.747 175.863 166.074C175.61 165.401 175.484 164.589 175.484 163.641C175.484 162.695 175.61 161.886 175.863 161.216C176.119 160.545 176.485 160.034 176.962 159.682C177.442 159.33 178.016 159.153 178.684 159.153C179.352 159.153 179.924 159.331 180.401 159.686C180.879 160.038 181.244 160.55 181.496 161.22C181.752 161.888 181.88 162.695 181.88 163.641C181.88 164.592 181.754 165.405 181.501 166.078C181.248 166.749 180.883 167.261 180.406 167.616C179.928 167.969 179.354 168.145 178.684 168.145ZM178.684 167.007C179.275 167.007 179.736 166.719 180.069 166.142C180.404 165.565 180.572 164.732 180.572 163.641C180.572 162.916 180.495 162.304 180.342 161.804C180.191 161.301 179.974 160.92 179.69 160.662C179.408 160.401 179.073 160.27 178.684 160.27C178.096 160.27 177.634 160.56 177.299 161.139C176.964 161.719 176.795 162.553 176.792 163.641C176.792 164.368 176.867 164.983 177.018 165.486C177.171 165.986 177.388 166.365 177.67 166.624C177.951 166.879 178.289 167.007 178.684 167.007ZM199.433 168.145C198.76 168.142 198.185 167.964 197.707 167.612C197.23 167.26 196.865 166.747 196.612 166.074C196.359 165.401 196.233 164.589 196.233 163.641C196.233 162.695 196.359 161.886 196.612 161.216C196.868 160.545 197.234 160.034 197.712 159.682C198.192 159.33 198.766 159.153 199.433 159.153C200.101 159.153 200.673 159.331 201.15 159.686C201.628 160.038 201.993 160.55 202.246 161.22C202.501 161.888 202.629 162.695 202.629 163.641C202.629 164.592 202.503 165.405 202.25 166.078C201.997 166.749 201.632 167.261 201.155 167.616C200.677 167.969 200.104 168.145 199.433 168.145ZM199.433 167.007C200.024 167.007 200.486 166.719 200.818 166.142C201.153 165.565 201.321 164.732 201.321 163.641C201.321 162.916 201.244 162.304 201.091 161.804C200.94 161.301 200.723 160.92 200.439 160.662C200.158 160.401 199.822 160.27 199.433 160.27C198.845 160.27 198.383 160.56 198.048 161.139C197.713 161.719 197.544 162.553 197.541 163.641C197.541 164.368 197.616 164.983 197.767 165.486C197.92 165.986 198.138 166.365 198.419 166.624C198.7 166.879 199.038 167.007 199.433 167.007ZM207.512 159.273V168H206.191V160.594H206.14L204.052 161.957V160.696L206.229 159.273H207.512ZM213.244 159.273V168H211.923V160.594H211.872L209.784 161.957V160.696L211.961 159.273H213.244Z" fill="#F7DF27"/>
<path d="M0 16C0 7.16344 7.16344 0 16 0H336C344.837 0 352 7.16344 352 16V200H0V16Z" fill="url(#paint0_linear_15_695)"/>
<circle cx="77" cy="17" r="1" fill="#FFE0C8"/>
<circle cx="140" cy="22" r="2" fill="#FFE0C8"/>
<circle cx="167" cy="36" r="2" fill="white"/>
<circle cx="166" cy="78" r="3" fill="#FFE0C8"/>
<circle cx="166" cy="101" r="3" fill="#FFE0C8"/>
<circle cx="225" cy="121" r="2" fill="white"/>
<circle cx="180" cy="146" r="2" fill="white"/>
<circle cx="127" cy="160" r="2" fill="#FFE0C8"/>
<circle cx="133" cy="181" r="2" fill="white"/>
<circle cx="150" cy="48" r="2" fill="white"/>
</g>
<defs>
<filter id="filter0_f_15_695" x="119.678" y="18.1534" width="53.5663" height="16.9915" filterUnits="userSpaceOnUse" color-interpolation-filters="sRGB">
<feFlood flood-opacity="0" result="BackgroundImageFix"/>
<feBlend mode="normal" in="SourceGraphic" in2="BackgroundImageFix" result="shape"/>
<feGaussianBlur stdDeviation="2" result="effect1_foregroundBlur_15_695"/>
</filter>
<filter id="filter1_f_15_695" x="222.678" y="20.1534" width="32.0529" height="12.9915" filterUnits="userSpaceOnUse" color-interpolation-filters="sRGB">
<feFlood flood-opacity="0" result="BackgroundImageFix"/>
<feBlend mode="normal" in="SourceGraphic" in2="BackgroundImageFix" result="shape"/>
<feGaussianBlur stdDeviation="1" result="effect1_foregroundBlur_15_695"/>
</filter>
<filter id="filter2_f_15_695" x="287.678" y="165.153" width="58.7032" height="16.9915" filterUnits="userSpaceOnUse" color-interpolation-filters="sRGB">
<feFlood flood-opacity="0" result="BackgroundImageFix"/>
<feBlend mode="normal" in="SourceGraphic" in2="BackgroundImageFix" result="shape"/>
<feGaussianBlur stdDeviation="2" result="effect1_foregroundBlur_15_695"/>
</filter>
<linearGradient id="paint0_linear_15_695" x1="25.5" y1="92" x2="238.5" y2="92" gradientUnits="userSpaceOnUse">
<stop stop-color="#0E0637"/>
<stop offset="1" stop-color="#0E0637" stop-opacity="0"/>
</linearGradient>
<clipPath id="clip0_15_695">
<rect width="352" height="200" fill="white"/>
</clipPath>
</defs>
</svg>
