<svg width="544" height="348" viewBox="0 0 544 348" fill="none" xmlns="http://www.w3.org/2000/svg">
<g clip-path="url(#clip0_13_1303)">
<path d="M0 16C0 7.16344 7.16344 0 16 0H544V348H16C7.16346 348 0 340.837 0 332V16Z" fill="#0E0637"/>
<path d="M23.1457 175.195L-55.3255 127.413C-56.3179 126.809 -57.524 126.666 -58.6301 127.021L-144.224 154.538C-145.878 155.07 -147 156.609 -147 158.346V230C-147 232.209 -145.209 234 -143 234H579C581.21 234 583 232.209 583 230V147.911C583 146.941 582.648 146.005 582.009 145.276L549.711 108.399C547.787 106.202 544.233 106.741 543.047 109.41L510.853 181.858C509.518 184.861 505.331 185.063 503.715 182.201L490.445 158.713C489.736 157.457 488.405 156.68 486.963 156.68H434.476C432.805 156.68 431.31 155.642 430.727 154.076L419.176 123.064C418.81 122.084 418.076 121.286 417.129 120.841L382.248 104.446C381.225 103.966 380.454 103.076 380.124 101.995L366.49 57.3799C365.443 53.9516 360.762 53.5261 359.113 56.7092L307.594 156.176C307.421 156.511 307.201 156.819 306.942 157.092L268.83 197.207C267.599 198.502 265.659 198.824 264.076 197.996L247.526 189.337C247.252 189.194 246.963 189.083 246.664 189.007L233.879 185.731C232.371 185.344 230.775 185.869 229.789 187.075L214.674 205.572C213.138 207.452 210.296 207.541 208.645 205.762L182.846 177.965C182.09 177.149 181.027 176.686 179.915 176.686H136.967C136.231 176.686 135.509 176.483 134.881 176.099L104.538 157.551C103.626 156.994 102.53 156.824 101.493 157.08L26.1843 175.662C25.1497 175.918 24.0559 175.75 23.1457 175.195Z" fill="url(#paint0_linear_13_1303)"/>
<path d="M584 103.692H548.167C546.587 103.692 545.154 104.623 544.512 106.067L510.812 181.862C509.477 184.865 505.291 185.066 503.675 182.206L490.395 158.712C489.685 157.457 488.355 156.68 486.913 156.68H434.394C432.723 156.68 431.229 155.642 430.645 154.077L419.087 123.064C418.722 122.084 417.987 121.286 417.04 120.841L381.726 104.252C380.951 103.888 380.314 103.285 379.907 102.532L355.029 56.461C353.423 53.486 349.079 53.7222 347.805 56.8539L307.469 155.98C307.281 156.443 307.008 156.866 306.663 157.228L268.659 197.208C267.429 198.503 265.489 198.825 263.907 197.997L247.345 189.337C247.071 189.194 246.782 189.083 246.484 189.007L233.689 185.73C232.181 185.344 230.585 185.868 229.6 187.073L214.474 205.575C212.938 207.453 210.097 207.543 208.446 205.765L182.63 177.964C181.873 177.149 180.811 176.686 179.699 176.686H136.725C135.99 176.686 135.268 176.483 134.64 176.099L104.279 157.55C103.368 156.993 102.272 156.824 101.236 157.08L25.8828 175.663C24.8486 175.918 23.7554 175.75 22.8455 175.196L-55.6509 127.424C-56.6544 126.813 -57.8757 126.675 -58.9906 127.045L-156.962 159.564" stroke="url(#paint1_linear_13_1303)" stroke-width="3" stroke-linecap="round"/>
<rect x="16" y="310" width="24" height="38" rx="2" fill="#40376C"/>
<rect x="56" y="321" width="24" height="27" rx="2" fill="#40376C"/>
<rect x="96" y="289" width="24" height="59" rx="2" fill="#40376C"/>
<rect x="136" y="236" width="24" height="112" rx="2" fill="#40376C"/>
<rect x="176" y="286" width="24" height="62" rx="2" fill="#40376C"/>
<rect x="216" y="332" width="24" height="16" rx="2" fill="#40376C"/>
<rect x="256" y="284" width="24" height="64" rx="2" fill="#40376C"/>
<rect x="296" y="278" width="24" height="70" rx="2" fill="#40376C"/>
<rect x="336" y="297" width="24" height="51" rx="2" fill="#40376C"/>
<rect x="376" y="267" width="24" height="81" rx="2" fill="#40376C"/>
<rect x="416" y="251" width="24" height="97" rx="2" fill="#40376C"/>
<rect x="456" y="324" width="24" height="24" rx="2" fill="#40376C"/>
<rect x="496" y="324" width="24" height="24" rx="2" fill="#40376C"/>
<rect x="536" y="251" width="24" height="97" rx="2" fill="#40376C"/>
<rect x="16" y="254" width="24" height="38" rx="2" fill="#40376C"/>
<rect x="56" y="265" width="24" height="27" rx="2" fill="#40376C"/>
<rect x="96" y="233" width="24" height="59" rx="2" fill="#40376C"/>
<rect x="136" y="180" width="24" height="112" rx="2" fill="#40376C"/>
<rect x="176" y="230" width="24" height="62" rx="2" fill="#40376C"/>
<rect x="216" y="276" width="24" height="16" rx="2" fill="#40376C"/>
<rect x="256" y="228" width="24" height="64" rx="2" fill="#40376C"/>
<rect x="296" y="222" width="24" height="70" rx="2" fill="#40376C"/>
<rect x="336" y="241" width="24" height="51" rx="2" fill="#40376C"/>
<rect x="376" y="211" width="24" height="81" rx="2" fill="#40376C"/>
<rect x="416" y="195" width="24" height="97" rx="2" fill="#40376C"/>
<rect x="456" y="268" width="24" height="24" rx="2" fill="#40376C"/>
<rect x="496" y="268" width="24" height="24" rx="2" fill="#40376C"/>
<rect x="536" y="195" width="24" height="97" rx="2" fill="#40376C"/>
<line y1="114.5" x2="544" y2="114.5" stroke="#F7DF27" stroke-width="3"/>
<circle cx="325" cy="116" r="8" fill="#0E0637"/>
<circle cx="325" cy="116" r="4" fill="#F7DF27"/>
<rect width="544" height="348" fill="url(#paint2_radial_13_1303)"/>
</g>
<defs>
<linearGradient id="paint0_linear_13_1303" x1="249.457" y1="48" x2="249.457" y2="271.101" gradientUnits="userSpaceOnUse">
<stop stop-color="#0E0637"/>
<stop offset="1" stop-color="#0E0637"/>
</linearGradient>
<linearGradient id="paint1_linear_13_1303" x1="213.519" y1="49" x2="213.519" y2="209.128" gradientUnits="userSpaceOnUse">
<stop stop-color="#EFEDFD"/>
<stop offset="1" stop-color="#EFEDFD"/>
<stop offset="1" stop-color="#EFEDFD"/>
</linearGradient>
<radialGradient id="paint2_radial_13_1303" cx="0" cy="0" r="1" gradientUnits="userSpaceOnUse" gradientTransform="translate(272.369 148) rotate(90) scale(329.5 345.43)">
<stop stop-color="#0E0637" stop-opacity="0"/>
<stop offset="1" stop-color="#0E0637"/>
</radialGradient>
<clipPath id="clip0_13_1303">
<rect width="544" height="348" fill="white"/>
</clipPath>
</defs>
</svg>
